<?xml version="1.0" encoding="UTF-8"?>
<svg id="Layer_1" xmlns="http://www.w3.org/2000/svg" version="1.1" viewBox="0 0 447.06 131.53">
  <!-- Generator: Adobe Illustrator 29.6.1, SVG Export Plug-In . SVG Version: 2.1.1 Build 9)  -->
  <defs>
    <style>
      .st0 {
        fill: #fff;
      }
    </style>
  </defs>
  <path class="st0" d="M18.34,121.9c1.1-1.27,2.31-2.48,3.52-3.64C60.01,81.73,99.12,46.18,137.35,9.76l4.36-1.75c13.87-.05,27.96-.82,41.85-.27,11.44.45,20.72,4.63,26.78,14.59,9.59,15.78,1.75,30.76-4.15,46.07-7.09,18.38-18.95,51.54-42.16,53.25h-45.03s8.46-20.32,8.46-20.32l33.52-.11c8.39-.7,14.57-13.7,17.8-20.51,5.27-11.11,10.55-24.69,14.37-36.38,2.47-7.58.58-14.78-8.17-15.93l-34.71.12-38.68,93.37h-21.99l25.63-62.95-67.14,62.95h-29.75Z"/>
  <g>
    <path class="st0" d="M395.56,100.76l-8.35,20.44-.47.23h-61.85c-16.27-1.14-26.84-17.24-20.93-32.64,5.23-13.6,13.4-27.29,18.16-41.05,3.27-9.43,1.26-18.13-9.93-19.1h-24.7s-.56.39-.56.39l-46.16,88.25c-6.32,7.5-17.73,3.72-18.53-6.07V36.28c-1.32-11.11-6.73-21.47-15.52-28.41,2.76-.14,5.59-.21,8.36-.13,5.75.17,9.84.34,14.81,3.53,7.89,5.05,12.02,14.79,13.04,23.85v33.47c.36-.13.64-.82.83-1.17,10.26-18.54,18.93-38.06,29.74-56.26,1.92-1.96,4.47-2.88,7.17-3.17,20.2,1.12,47.82-5.62,59.51,15.97,9.68,17.89-.39,35.13-7.61,51.6-3.08,7.04-6.28,14.03-9.57,20.97-.34,1.16-.01,2.54.85,3.39.14.14,1.19.84,1.27.84h70.43Z"/>
    <path class="st0" d="M434.12,7.52l-8.26,20.4-58.88.03c-6.63.54-13.42,3.71-17.06,9.39-.38.06-.22-.32-.23-.58-.36-7.79-2.3-14.74-7.52-20.67,6.3-4.9,14.07-7.67,21.99-8.57h69.96Z"/>
  </g>
</svg>