<?xml version="1.0" encoding="UTF-8"?>
<svg xmlns="http://www.w3.org/2000/svg" version="1.1" xmlns:cc="http://creativecommons.org/ns#" xmlns:dc="http://purl.org/dc/elements/1.1/" xmlns:inkscape="http://www.inkscape.org/namespaces/inkscape" xmlns:rdf="http://www.w3.org/1999/02/22-rdf-syntax-ns#" xmlns:sodipodi="http://sodipodi.sourceforge.net/DTD/sodipodi-0.dtd" xmlns:svg="http://www.w3.org/2000/svg" viewBox="0 0 520 520">
  <!-- Generator: Adobe Illustrator 29.6.1, SVG Export Plug-In . SVG Version: 2.1.1 Build 9)  -->
  <defs>
    <style>
      .st0, .st1 {
        fill: #fff;
      }

      .st1, .st2 {
        fill-rule: evenodd;
      }

      .st3 {
        fill: none;
      }
    </style>
  </defs>
  <g id="svg8921" sodipodi:docname="Seal_of_the_Department_of_Energy_(Philippines).svg">
    <g>
      <g>
        <polygon points="376.34 197.51 321.22 144.1 321.87 142.79 355.93 73.62 433.43 84.49 433.77 85.85 446.79 161.7 445.47 162.36 377.36 198.53 376.34 197.51"/>
        <path d="M356.8,75.26l75.42,10.58.08.32,12.82,74.7-.32.16-67.17,35.67-.24-.24-54.34-52.66.16-.32,33.58-68.21M355.07,71.98l-.96,1.95-33.58,68.21-.15.3-.98,1.97,1.58,1.53,54.34,52.66.21.21,1.57,1.57,1.96-1.04,67.13-35.65.29-.14,1.99-1-.38-2.2-12.82-74.7-.02-.11-.03-.11-.08-.32-.49-1.96-2-.28-75.42-10.58-2.15-.3h0Z"/>
      </g>
      <g>
        <polygon points="73.59 163.49 84.47 85.91 161.75 72.71 162.41 74.02 198.57 142.12 144.07 198.19 73.59 163.49"/>
        <path d="M160.91,74.37l.16.32,35.67,67.17-52.98,54.5-68.53-33.74,10.58-75.42,75.1-12.82M162.6,71.04l-2.19.37-75.1,12.82-2.16.37-.3,2.17-10.58,75.42-.3,2.15,1.95.96,68.53,33.74,1.96.96,1.52-1.56,52.98-54.5,1.52-1.57-1.03-1.93-35.65-67.13-.14-.29-.99-1.99h0Z"/>
      </g>
      <g>
        <polygon points="459.99 322.22 386.16 299.59 386.16 298.08 385.02 221.35 459.38 196.04 506.54 258.62 461.31 322.55 459.99 322.22"/>
        <path d="M458.83,197.81l45.85,60.84-44,62.2-.32-.08-72.7-22.28v-.4l-1.12-75.66,72.3-24.61M459.92,194.27l-2.06.7-72.3,24.61-2.07.7.03,2.18,1.12,75.66v.36s0,2.22,0,2.22l2.12.65,72.7,22.28.08.02.08.02.32.08,1.99.5,1.19-1.68,44-62.2,1.27-1.79-1.32-1.75-45.85-60.84-1.31-1.73h0Z"/>
      </g>
      <g>
        <polygon points="357.06 445.43 320.9 377.33 375.32 321.17 376.62 321.82 445.91 355.94 445.56 357.36 434.93 433.38 433.57 433.72 357.72 446.74 357.06 445.43"/>
        <path d="M375.64,323.01l.32.16,68.21,33.58-.08.32-10.5,75.1-.32.08-74.7,12.82-.16-.32-35.67-67.17,52.9-54.58M375.01,319.34l-1.53,1.58-52.9,54.58-1.52,1.57,1.02,1.93,35.65,67.13.14.29,1,1.99,2.2-.38,74.7-12.82.11-.02.11-.03.32-.08,1.96-.49.28-2,10.48-74.94.04-.17.59-2.35-2.17-1.07-68.21-33.58-.3-.15-1.97-.98h0Z"/>
      </g>
      <g>
        <polygon points="196.75 461.22 219.75 386.11 221.26 386.11 297.99 384.97 323.3 459.33 260.73 506.49 196.75 461.22"/>
        <path d="M296.93,386.49l24.61,72.3-60.84,45.85-62.2-44,22.36-73.02h.4l75.66-1.12M299.06,383.45l-2.18.03-75.66,1.12h-.36s-2.22,0-2.22,0l-.65,2.12-22.36,73.02-.64,2.07,1.77,1.25,62.2,44,1.79,1.27,1.75-1.32,60.84-45.85,1.73-1.31-.7-2.06-24.61-72.3-.7-2.07h0Z"/>
      </g>
      <g>
        <polygon points="161.98 445.59 85.87 434.95 72.68 357.67 73.99 357.01 142.11 320.84 143.13 321.87 198.24 375.27 163.4 445.94 161.98 445.59"/>
        <path d="M141.83,322.69l.24.24,54.34,52.66-33.82,68.61-.32-.08-75.1-10.5-12.82-75.1.32-.16,67.17-35.67M142.38,319l-1.96,1.04-67.13,35.65-.29.14-1.99.99.37,2.19,12.82,75.1.37,2.16,2.17.3,74.94,10.48.17.04,2.35.59,1.07-2.17,33.82-68.61.97-1.96-1.57-1.52-54.34-52.66-.21-.21-1.57-1.57h0Z"/>
      </g>
      <g>
        <polygon points="12.93 260.68 58.2 196.7 133.31 219.7 133.31 221.21 134.45 297.94 60.09 323.25 12.93 260.68"/>
        <path d="M58.79,198.45l73.02,22.36v.4l1.12,75.66-72.3,24.61-45.85-60.84,44-62.2M57.6,194.95l-1.25,1.77-44,62.2-1.27,1.79,1.32,1.75,45.85,60.84,1.31,1.73,2.06-.7,72.3-24.61,2.07-.7-.03-2.18-1.12-75.66v-.36s0-2.22,0-2.22l-2.12-.65-73.02-22.36-2.07-.64h0Z"/>
      </g>
      <g>
        <polygon points="196.09 60.04 258.67 12.88 322.6 58.11 322.27 59.43 299.64 133.26 298.13 133.26 221.4 134.4 196.09 60.04"/>
        <path d="M258.69,14.74l62.2,44-.08.32-22.28,72.7h-.4l-75.66,1.12-24.61-72.3,60.84-45.85M258.64,11.03l-1.75,1.32-60.84,45.85-1.73,1.31.7,2.06,24.61,72.3.7,2.07,2.18-.03,75.66-1.12h.36s2.22,0,2.22,0l.65-2.12,22.28-72.7.02-.08.02-.08.08-.32.5-1.99-1.68-1.19-62.2-44-1.79-1.27h0Z"/>
      </g>
    </g>
    <g id="g8815">
      <g id="path8429">
        <path class="st1" d="M378.01,196.37l-54.02-52.42,33.42-67.89,74.7,10.5,12.74,74.38-66.85,35.43Z" inkscape:flatsided="true" inkscape:randomized="0" inkscape:rounded="0" inkscape:transform-center-x="-155.17445" inkscape:transform-center-y="-154.4322" sodipodi:arg1="0.92729522" sodipodi:arg2="1.5556137" sodipodi:cx="1145.9399" sodipodi:cy="316.90332" sodipodi:r1="59.766537" sodipodi:r2="48.352139" sodipodi:sides="5" sodipodi:type="star"/>
        <path d="M377.93,197.01l-.24-.24-54.34-52.66.16-.32,33.58-68.21,75.42,10.58.08.32,12.82,74.7-.32.16-67.17,35.67ZM324.55,143.87l53.54,51.94,66.21-35.11-12.58-73.66-73.98-10.34-33.18,67.17Z"/>
      </g>
      <g id="path8429-9">
        <path class="st1" d="M196.39,142.02l-52.42,54.02-67.89-33.42,10.5-74.7,74.38-12.74,35.43,66.85Z" inkscape:flatsided="true" inkscape:randomized="0" inkscape:rounded="0" inkscape:transform-center-x="154.43225" inkscape:transform-center-y="-155.17453" sodipodi:arg1="0.92729522" sodipodi:arg2="1.5556137" sodipodi:cx="1145.9399" sodipodi:cy="316.90332" sodipodi:r1="59.766537" sodipodi:r2="48.352139" sodipodi:sides="5" sodipodi:type="star"/>
        <path d="M144.05,196.69l-68.53-33.74,10.58-75.42,75.1-12.82.16.32,35.67,67.17-52.98,54.5ZM76.64,162.38l67.25,33.1,51.94-53.54-35.11-66.21-73.66,12.58-10.42,74.06Z"/>
      </g>
      <g id="path8429-6">
        <path class="st1" d="M388.43,298.4l-1.12-75.26,71.66-24.37,45.45,60.27-43.6,61.56-72.38-22.2Z" inkscape:flatsided="true" inkscape:randomized="0" inkscape:rounded="0" inkscape:transform-center-x="-231.81026" inkscape:transform-center-y="-0.37493511" sodipodi:arg1="0.92729522" sodipodi:arg2="1.5556137" sodipodi:cx="1145.9399" sodipodi:cy="316.90332" sodipodi:r1="59.766537" sodipodi:r2="48.352139" sodipodi:sides="5" sodipodi:type="star"/>
        <path d="M460.97,321.16l-.32-.08-72.7-22.28v-.4l-1.12-75.66,72.3-24.61,45.85,60.84-44,62.2ZM388.91,298.08l71.66,21.96,43.12-61-44.97-59.63-70.93,24.13,1.12,74.54Z"/>
      </g>
      <g id="path8429-97">
        <path class="st1" d="M323.59,377.99l52.42-54.02,67.89,33.42-10.5,74.7-74.38,12.74-35.43-66.85Z" inkscape:flatsided="true" inkscape:randomized="0" inkscape:rounded="0" inkscape:transform-center-x="-154.43219" inkscape:transform-center-y="155.17448" sodipodi:arg1="0.92729522" sodipodi:arg2="1.5556137" sodipodi:cx="1145.9399" sodipodi:cy="316.90332" sodipodi:r1="59.766537" sodipodi:r2="48.352139" sodipodi:sides="5" sodipodi:type="star"/>
        <path d="M358.86,445.4l-.16-.32-35.67-67.17,52.9-54.58.32.16,68.21,33.58-.08.32-10.5,75.1-.32.08-74.7,12.82ZM324.23,378.07l35.11,66.21,73.66-12.58,10.34-73.98-67.25-33.1-51.86,53.46Z"/>
      </g>
      <g id="path8429-3">
        <path class="st1" d="M221.56,388.41l75.26-1.12,24.37,71.66-60.27,45.45-61.56-43.6,22.2-72.38Z" inkscape:flatsided="true" inkscape:randomized="0" inkscape:rounded="0" inkscape:transform-center-x="-0.37492511" inkscape:transform-center-y="231.8103" sodipodi:arg1="0.92729522" sodipodi:arg2="1.5556137" sodipodi:cx="1145.9399" sodipodi:cy="316.90332" sodipodi:r1="59.766537" sodipodi:r2="48.352139" sodipodi:sides="5" sodipodi:type="star"/>
        <path d="M260.99,504.95l-62.2-44,22.36-73.02h.4l75.66-1.12,24.61,72.3-60.84,45.85ZM200,460.55l61,43.12,59.63-44.97-24.13-70.93-74.54,1.12-21.96,71.66Z"/>
      </g>
      <g id="path8429-39">
        <path class="st1" d="M142.05,323.65l54.02,52.42-33.42,67.89-74.7-10.5-12.74-74.38,66.85-35.43Z" inkscape:flatsided="true" inkscape:randomized="0" inkscape:rounded="0" inkscape:transform-center-x="155.17447" inkscape:transform-center-y="154.43223" sodipodi:arg1="0.92729522" sodipodi:arg2="1.5556137" sodipodi:cx="1145.9399" sodipodi:cy="316.90332" sodipodi:r1="59.766537" sodipodi:r2="48.352139" sodipodi:sides="5" sodipodi:type="star"/>
        <path d="M162.88,444.52l-.32-.08-75.1-10.5-12.82-75.1.32-.16,67.17-35.67.24.24,54.34,52.66-33.82,68.61ZM88.34,432.97l73.98,10.34,33.1-67.25-53.54-51.94-66.21,35.11,12.66,73.74Z"/>
      </g>
      <g id="path8429-64">
        <path class="st1" d="M131.55,221.53l1.12,75.26-71.66,24.37-45.45-60.27,43.6-61.56,72.38,22.2Z" inkscape:flatsided="true" inkscape:randomized="0" inkscape:rounded="0" inkscape:transform-center-x="231.81038" inkscape:transform-center-y="0.37496511" sodipodi:arg1="0.92729522" sodipodi:arg2="1.5556137" sodipodi:cx="1145.9399" sodipodi:cy="316.90332" sodipodi:r1="59.766537" sodipodi:r2="48.352139" sodipodi:sides="5" sodipodi:type="star"/>
        <path d="M60.93,321.8l-45.85-60.84,44-62.2,73.02,22.36v.4l1.12,75.66-72.3,24.61ZM16.29,260.97l44.97,59.63,70.93-24.13-1.12-74.54-71.66-21.96-43.12,61Z"/>
      </g>
      <g id="path8429-99">
        <path class="st1" d="M298.42,131.6l-75.26,1.12-24.37-71.66,60.27-45.45,61.56,43.6-22.2,72.38Z" inkscape:flatsided="true" inkscape:randomized="0" inkscape:rounded="0" inkscape:transform-center-x="0.3749181" inkscape:transform-center-y="-231.8104" sodipodi:arg1="0.92729522" sodipodi:arg2="1.5556137" sodipodi:cx="1145.9399" sodipodi:cy="316.90332" sodipodi:r1="59.766537" sodipodi:r2="48.352139" sodipodi:sides="5" sodipodi:type="star"/>
        <path d="M222.76,133.21l-24.61-72.3,60.84-45.85,62.2,44-.08.32-22.28,72.7h-.4l-75.66,1.12ZM199.35,61.31l24.13,70.93,74.54-1.12,21.96-71.66-61-43.12-59.63,44.97Z"/>
      </g>
    </g>
    <g id="path8707">
      <circle class="st0" cx="260" cy="260.01" r="147.24" sodipodi:cx="281.5975" sodipodi:cy="-34.117874" sodipodi:rx="183.68936" sodipodi:ry="183.68936"/>
      <path d="M260,409.26c-82.32,0-149.24-66.93-149.24-149.24s66.93-149.24,149.24-149.24,149.24,66.93,149.24,149.24-66.93,149.24-149.24,149.24ZM260,114.78c-80.07,0-145.24,65.16-145.24,145.24s65.16,145.24,145.24,145.24,145.24-65.16,145.24-145.24-65.16-145.24-145.24-145.24Z"/>
    </g>
    <g id="path8497-8">
      <circle class="st0" cx="260" cy="260.01" r="98.83" sodipodi:cx="281.5975" sodipodi:cy="-34.117874" sodipodi:rx="123.30441" sodipodi:ry="123.3044"/>
      <path d="M260,360.04c-55.14,0-100.03-44.89-100.03-100.03s44.89-100.03,100.03-100.03,100.03,44.89,100.03,100.03-44.89,100.03-100.03,100.03ZM260,162.39c-53.86,0-97.62,43.76-97.62,97.62s43.76,97.62,97.62,97.62,97.63-43.76,97.63-97.62c0-53.86-43.76-97.62-97.63-97.62Z"/>
    </g>
    <path id="path8516-5" class="st2" d="M221.61,181.55l1.36,36.79,27.57-14.83-28.93-21.96Z" inkscape:connector-curvature="0" inkscape:transform-center-x="29.81105" inkscape:transform-center-y="-74.919735" sodipodi:nodetypes="cccc"/>
    <path id="path8516-9" class="st2" d="M340.71,293.28l-25.41-26.61-10.82,29.42,36.23-2.81Z" inkscape:connector-curvature="0" inkscape:transform-center-x="-78.11795" inkscape:transform-center-y="26.624615" sodipodi:nodetypes="cccc"/>
    <path id="path8516-74" class="st2" d="M346.97,251.92l-34.87-11.78,4.09,31.1,30.78-19.32Z" inkscape:connector-curvature="0" inkscape:transform-center-x="-86.7286" inkscape:transform-center-y="-5.36588" sodipodi:nodetypes="cccc"/>
    <path id="path8516-75" class="st2" d="M333.26,212.48l-36.31,5.77,18.03,25.65,18.27-31.42Z" inkscape:connector-curvature="0" inkscape:transform-center-x="-68.7038" inkscape:transform-center-y="-39.73793" sodipodi:nodetypes="cccc"/>
    <path id="path8516-8" class="st2" d="M302.72,183.87l-29.5,22.04,27.89,14.35,1.6-36.39Z" inkscape:connector-curvature="0" inkscape:transform-center-x="-34.94015" inkscape:transform-center-y="-72.33808" sodipodi:nodetypes="cccc"/>
    <path id="path8516-40" class="st2" d="M316.03,326.94l-10.1-35.35-23.24,21,33.34,14.35Z" inkscape:connector-curvature="0" inkscape:transform-center-x="-49.0836" inkscape:transform-center-y="61.48735" sodipodi:nodetypes="cccc"/>
    <path id="path8516-81" class="st2" d="M278.52,345.3l7.45-35.99-30.38,7.77,22.92,28.21Z" inkscape:connector-curvature="0" inkscape:transform-center-x="-13.46375" inkscape:transform-center-y="83.998205" sodipodi:nodetypes="cccc"/>
    <path id="path8516-31" class="st2" d="M236.76,344.17l23.32-28.45-30.46-7.21,7.13,35.67Z" inkscape:connector-curvature="0" inkscape:transform-center-x="18.9254" inkscape:transform-center-y="82.757045" sodipodi:nodetypes="cccc"/>
    <path id="path8516-0" class="st2" d="M200.29,323.74l33.9-14.35-23.64-20.6-10.26,34.95Z" inkscape:connector-curvature="0" inkscape:transform-center-x="53.3735" inkscape:transform-center-y="57.714485" sodipodi:nodetypes="cccc"/>
    <path id="path8516-1" class="st2" d="M177.53,288.63l36.63,3.05-11.38-29.18-25.25,26.13Z" inkscape:connector-curvature="0" inkscape:transform-center-x="80.04255" inkscape:transform-center-y="21.366475" sodipodi:nodetypes="cccc"/>
    <path id="path8516-745" class="st2" d="M173.68,247.03l31.02,19.72,3.53-31.1-34.55,11.38Z" inkscape:connector-curvature="0" inkscape:transform-center-x="86.19035" inkscape:transform-center-y="-10.948775" sodipodi:nodetypes="cccc"/>
    <path id="path8516-6" class="st2" d="M189.55,208.4l18.27,31.9,17.55-25.97-35.83-5.93Z" inkscape:connector-curvature="0" inkscape:transform-center-x="65.50375" inkscape:transform-center-y="-44.48135" sodipodi:nodetypes="cccc"/>
    <path id="path8516" class="st2" d="M262.49,172.73l-15.87,33.18,31.34-.24-15.47-32.94Z" inkscape:connector-curvature="0" inkscape:transform-center-x="-2.8125" inkscape:transform-center-y="-88.194915" sodipodi:nodetypes="cccc"/>
    <circle id="path8497" cx="260" cy="260.01" r="59.31" sodipodi:cx="281.5975" sodipodi:cy="-34.117874" sodipodi:rx="73.982651" sodipodi:ry="73.982643"/>
    <path id="path8497-8-3" class="st3" d="M154.76,294.88c-19.24-58.11,12.26-120.87,70.37-140.11s120.87,12.26,140.11,70.37c8.98,27.17,7.13,56.83-5.21,82.64" sodipodi:cx="281.5975" sodipodi:cy="-34.117874" sodipodi:end="6.7288602" sodipodi:open="true" sodipodi:rx="138.31737" sodipodi:ry="138.31735" sodipodi:start="2.8218578" sodipodi:type="arc"/>
    <path id="path8497-8-3-7" class="st3" d="M150.27,338.08c43.12,60.59,127.12,74.78,187.72,31.66,16.27-11.62,29.82-26.69,39.51-44.08" sodipodi:cx="281.5975" sodipodi:cy="34.117874" sodipodi:end="5.7744108" sodipodi:open="true" sodipodi:rx="167.9568" sodipodi:ry="167.95679" sodipodi:start="3.7600263" sodipodi:type="arc"/>
    <g id="g10432">
      <g id="text8825">
        <g id="path10396">
          <path d="M132.54,297.74l-2.4-10.98c-.32-1.6-.4-3.05-.08-4.33.4-1.6,1.36-3.05,2.81-4.41,1.44-1.36,3.37-2.32,5.69-2.81,1.92-.4,3.69-.48,5.37-.24,1.28.16,2.48.64,3.53,1.44,1.04.72,2,1.76,2.73,2.97.56.96.96,2.24,1.36,3.93l2.16,9.78-1.04.24-.4-2c-.08-.48-.24-.8-.48-.96s-.48-.24-.8-.16l-17.07,3.69c-.32.08-.48.24-.64.48-.16.24-.16.56-.08.96l.48,2.16-1.12.24h0ZM131.98,289.81c.08.4.24.72.48.88.24.16.48.24.88.16l16.91-3.69c.32-.08.56-.24.72-.56.08-.24.08-.72,0-1.28l-.4-1.84c-.32-1.6-1.04-2.97-2.16-4.01-.72-.64-1.6-1.12-2.73-1.28-1.44-.24-3.45-.16-5.77.4-3.53.8-6.01,1.92-7.37,3.53-1.12,1.36-1.52,3.13-1.04,5.21l.48,2.48h0Z" inkscape:connector-curvature="0"/>
          <path d="M132.46,297.82l-2.4-11.06c-.32-1.6-.4-3.13-.08-4.41.4-1.6,1.36-3.05,2.89-4.41s3.45-2.32,5.77-2.81c1.92-.4,3.77-.48,5.37-.24,1.28.16,2.48.64,3.61,1.44,1.12.72,2,1.76,2.73,2.97.56.96,1.04,2.24,1.36,3.93l2.16,9.94-1.28.32-.48-2.16c-.08-.48-.24-.8-.4-.96s-.4-.16-.72-.08l-17.07,3.69c-.24.08-.48.16-.56.4-.16.24-.16.48-.08.88l.48,2.24-1.28.32ZM142.08,274.98c-1.04,0-2.24.16-3.37.4-2.24.48-4.17,1.44-5.61,2.81s-2.4,2.81-2.81,4.33c-.32,1.2-.32,2.65.08,4.25l2.32,10.82.8-.16-.48-2.08c-.08-.4-.08-.72.08-1.04.16-.24.4-.48.72-.56l17.07-3.69c.4-.08.72,0,.96.16s.4.48.48,1.04l.4,1.92.8-.16-2.08-9.7c-.32-1.68-.8-2.97-1.36-3.85-.72-1.2-1.6-2.24-2.65-2.97s-2.24-1.2-3.53-1.36c-.56-.08-1.2-.16-1.84-.16ZM132.94,291.01c-.24,0-.48-.08-.64-.16-.24-.16-.4-.48-.56-.96l-.56-2.4c-.48-2.16-.08-3.93,1.04-5.29,1.36-1.6,3.93-2.81,7.45-3.61,2.4-.56,4.33-.64,5.85-.4,1.12.16,2.08.64,2.81,1.36,1.12,1.04,1.84,2.4,2.24,4.01l.4,1.84c.16.64.16,1.04,0,1.36-.16.32-.4.48-.8.56l-16.91,3.69c-.08-.08-.16,0-.32,0ZM132.06,289.81c.08.4.24.64.4.8s.48.16.8.08l16.91-3.69c.32-.08.48-.24.64-.48.08-.24.08-.64,0-1.2l-.4-1.84c-.32-1.6-1.04-2.89-2.16-3.93-.72-.64-1.6-1.04-2.65-1.28-1.44-.24-3.37-.16-5.77.4-3.53.8-5.93,1.92-7.29,3.53-1.12,1.28-1.44,3.05-1.04,5.13l.56,2.48Z"/>
        </g>
        <g id="path10398">
          <path d="M127.33,269.45l-.16-17.23,7.29-.48v.96c-2.32.4-3.93,1.04-4.81,1.92-.88.88-1.36,1.92-1.36,3.29l.08,4.25c0,.32.08.56.32.8.16.16.48.24.88.24l7.69-.08v-1.84c0-.96-.4-1.76-1.12-2.4-.72-.64-1.84-.96-3.29-.96v-1.04l10.02-.08v1.04c-1.68.08-2.89.4-3.53,1.04-.72.64-1.04,1.52-1.04,2.56v1.68l8.66-.08c.32,0,.56-.08.72-.32s.24-.56.24-1.04v-3.37c0-3.69-2.4-5.69-7.05-6.25v-1.04l8.1.24.16,17.87h-1.12v-1.44c0-.56-.08-.96-.32-1.2-.24-.24-.48-.32-.88-.32l-17.23.24c-.4,0-.64.08-.88.32-.16.24-.24.56-.24.96v1.76h-1.12Z" inkscape:connector-curvature="0"/>
          <path d="M127.25,269.61v-.16l-.16-17.31,7.53-.48v1.2h-.08c-2.24.4-3.85,1.04-4.73,1.92-.88.8-1.28,1.92-1.28,3.21l.08,4.25c0,.32.08.56.24.72.16.16.4.24.8.24l7.61-.08v-1.76c0-.96-.4-1.76-1.04-2.32-.72-.56-1.76-.88-3.21-.96h-.08v-1.28h.08l10.18-.08v1.28h-.08c-1.6.08-2.81.4-3.45,1.04-.72.64-1.04,1.44-1.04,2.48v1.6l8.5-.08c.24,0,.48-.08.64-.24.16-.16.24-.56.24-.96v-3.37c0-3.53-2.4-5.61-6.97-6.09h-.08v-1.28l8.34.32v.08l.16,18.03h-1.36v-1.6c0-.56-.08-.96-.24-1.12-.16-.24-.48-.32-.8-.32l-17.23.16c-.32,0-.56.08-.72.24-.16.16-.24.48-.24.88v1.92l-1.6-.08ZM127.25,252.37l.16,16.99h.88v-1.68c0-.48.08-.8.32-1.04s.56-.32.96-.32l17.23-.16h0c.4,0,.72.16.96.4s.32.72.32,1.28v1.36h.88l-.16-17.63-7.85-.24v.8c4.65.56,7.05,2.65,7.05,6.33v3.37c0,.56-.08.88-.24,1.12s-.48.32-.8.4l-8.74.08v-1.84c0-1.12.32-2,1.12-2.65.72-.64,1.92-1.04,3.53-1.12v-.8l-9.78.08v.8c1.44.08,2.56.4,3.29,1.04s1.12,1.44,1.12,2.48v2h-.08l-7.69.08h0c-.4,0-.72-.08-.88-.32-.24-.16-.32-.48-.32-.88l-.08-4.25c0-1.36.48-2.56,1.36-3.45s2.48-1.52,4.81-1.92v-.72l-7.37.4Z"/>
        </g>
        <g id="path10400">
          <path d="M127.73,244.44l1.92-10.5c.4-2.4,1.28-4.09,2.56-5.13s2.81-1.44,4.57-1.12c1.76.32,2.97,1.12,3.69,2.48.96,1.84,1.28,3.93.8,6.25l-.72,3.85,7.29,1.28c.4.08.72,0,.96-.16.24-.24.48-.56.56-1.04l.4-2.4,1.12.16-1.84,10.26-1.12-.16.4-2.16c.08-.4.08-.72-.08-.96-.16-.24-.32-.4-.64-.4l-16.99-3.05c-.4-.08-.8,0-1.04.24s-.4.64-.56,1.36l-.32,1.6c.16-.24-.96-.4-.96-.4ZM139.59,239.87l.56-2.89c.32-1.84.16-3.21-.4-4.17-.64-.96-1.84-1.6-3.61-1.92-1.2-.24-2.24-.24-2.97.08-.72.24-1.28.72-1.76,1.36-.48.64-.8,1.76-1.12,3.37-.16,1.04-.24,1.76-.08,2.08.16.32.48.48.96.64l8.42,1.44h0Z" inkscape:connector-curvature="0"/>
          <path d="M149.21,248.37l-1.28-.24.4-2.24c.08-.4.08-.72-.08-.88-.08-.24-.32-.32-.56-.4l-17.07-3.05c-.4-.08-.72,0-.88.16-.24.16-.4.64-.48,1.28l-.32,1.68-1.28-.24,1.92-10.66c.4-2.4,1.28-4.17,2.65-5.21,1.36-1.04,2.89-1.44,4.65-1.12,1.76.32,3.05,1.2,3.77,2.48.96,1.84,1.28,3.93.88,6.33l-.64,3.69,7.21,1.28c.4.08.64,0,.88-.08.24-.24.4-.56.48-.96l.48-2.56,1.28.24-2,10.5ZM148.17,247.97l.88.16,1.76-10.02-.88-.16-.4,2.32c-.08.48-.32.88-.56,1.12-.24.16-.64.24-1.04.16l-7.37-1.36.72-3.93c.4-2.32.16-4.33-.8-6.17-.72-1.28-1.92-2.08-3.61-2.4-1.68-.32-3.21.08-4.49,1.12s-2.16,2.73-2.56,5.05l-1.84,10.42.88.16.24-1.44c.16-.72.32-1.2.56-1.44.24-.24.64-.32,1.12-.24l16.99,3.05c.32.08.56.24.72.48s.16.56.08,1.04l-.4,2.08ZM139.67,240.03l-8.5-1.52c-.56-.08-.88-.32-1.04-.64-.16-.32-.16-1.04.08-2.16.32-1.6.64-2.81,1.12-3.45s1.04-1.12,1.84-1.36c.72-.24,1.76-.24,2.97-.08,1.76.32,3.05.96,3.69,1.92.64.96.8,2.4.48,4.25l-.64,3.05ZM134.54,230.89c-.48,0-.96.08-1.28.16-.72.24-1.28.64-1.68,1.28-.4.64-.8,1.76-1.12,3.37-.24,1.28-.16,1.84-.08,2,.16.24.4.48.88.56l8.26,1.44.48-2.81c.32-1.76.16-3.21-.4-4.09-.64-.96-1.76-1.52-3.53-1.84-.56-.08-1.04-.08-1.52-.08Z"/>
        </g>
        <g id="path10402">
          <path d="M135.5,211.82l.32-.88,21.32-.16c.88,0,1.44-.48,1.84-1.36l.24-.64,1.04.4-3.13,8.1-1.04-.4.24-.64c.32-.8.48-1.44.4-1.92,0-.32-.16-.48-.48-.56-.16-.08-.32-.08-.56-.08h-4.97l-3.05,8.02,2.08,1.92c.56.48,1.04.8,1.44.96.48.16.88.08,1.36-.16.48-.32.88-.88,1.2-1.6l.24-.72,1.04.4-2.81,7.37-1.04-.4c.32-.8.4-1.44.24-2.08-.16-.56-.64-1.28-1.44-2l-14.51-13.55h0ZM139.19,213.74l7.61,7.05,2.73-7.13-10.34.08Z" inkscape:connector-curvature="0"/>
          <path d="M152.42,229.93l-1.28-.48.08-.08c.32-.72.32-1.44.24-2-.16-.56-.64-1.2-1.44-1.92l-14.67-13.55.4-1.04h.08l21.32-.16c.8,0,1.36-.4,1.68-1.28l.32-.72,1.28.48-3.21,8.34-1.28-.48.32-.72c.32-.8.48-1.44.4-1.84,0-.24-.16-.4-.4-.48-.16-.08-.32-.08-.48-.08h-4.89l-3.05,7.85,2,1.84c.56.48,1.04.8,1.36.96.4.16.8.08,1.28-.16.48-.32.8-.8,1.12-1.6l.32-.8,1.28.48-2.81,7.45ZM151.45,229.29l.8.32,2.73-7.13-.8-.32-.24.56c-.32.8-.72,1.36-1.2,1.68s-1.04.4-1.52.16c-.4-.16-.88-.48-1.44-.96l-2.16-1.92v-.08l3.13-8.1h5.05c.24,0,.4,0,.56.08.32.08.48.32.56.64.08.48-.08,1.04-.4,1.92l-.24.56.8.32,3.05-7.85-.8-.32-.16.48c-.4.96-1.04,1.44-1.92,1.44l-21.32.24-.32.8,14.51,13.39c.8.8,1.36,1.44,1.52,2.08.16.56.08,1.28-.16,2ZM146.89,221.04l-.16-.16-7.85-7.29,10.9-.08-2.89,7.53ZM139.51,213.82l7.29,6.73,2.65-6.81-9.94.08Z"/>
        </g>
        <g id="path10404">
          <path d="M142.24,196.99l5.93-9.46c1.12-1.84,2.48-2.97,3.93-3.45,1.44-.48,2.89-.32,4.25.56.8.48,1.44,1.2,1.76,2,.4.8.48,1.68.4,2.73-.08.96-.56,2.32-1.44,4.09,1.04-.96,1.92-1.6,2.48-1.84.56-.24,1.2-.32,1.84-.32s1.84.32,3.61.96c1.2.4,2.16.64,2.73.64.48,0,.72-.16.88-.4.16-.24.16-.64-.08-1.04-.24-.48-.8-1.04-1.76-1.68l.56-.88c2.73,1.92,3.45,3.85,2.24,5.77-.4.64-.88,1.04-1.44,1.28-.56.24-1.2.32-2,.16-.56-.08-1.84-.64-3.85-1.6-1.2-.56-2.08-.88-2.73-.88s-1.28.16-1.92.56c-.64.4-1.2.96-1.68,1.76l-.96,1.52,7.21,4.57c.32.16.56.24.8.16.32-.08.56-.4.8-.8l1.12-1.76.96.56-5.37,8.5-.96-.56,1.12-1.76c.24-.4.32-.72.32-1.04s-.16-.48-.48-.72l-14.67-9.22c-.32-.16-.64-.24-.88-.16s-.56.32-.8.72l-1.12,1.76-.8-.72h0ZM154.18,196.75l1.36-2.16c.88-1.44,1.36-2.81,1.36-3.93,0-1.2-.72-2.24-2.16-3.13-.96-.64-1.84-.96-2.56-.96-.72-.08-1.36.08-1.92.48s-1.28,1.28-2.16,2.81c-.64.96-.96,1.6-.96,1.92s.16.56.48.8l6.57,4.17Z" inkscape:connector-curvature="0"/>
          <path d="M160.67,208.77l-1.12-.72,1.2-1.92c.24-.4.32-.72.32-.96s-.16-.48-.4-.64l-14.67-9.22c-.32-.16-.56-.24-.8-.16-.24.08-.48.32-.72.64l-1.2,1.92-1.12-.72.08-.08,5.93-9.46c1.2-1.84,2.48-3.05,4.01-3.53s2.97-.32,4.33.56c.8.48,1.44,1.2,1.84,2s.56,1.76.4,2.73c-.08.88-.48,2.08-1.2,3.53.88-.72,1.52-1.28,2.08-1.44.64-.24,1.28-.4,1.92-.32.64,0,1.84.32,3.61.96,1.2.4,2.08.64,2.65.56.4,0,.64-.16.8-.32.16-.24.08-.56-.08-.96-.24-.48-.8-.96-1.68-1.6l-.08-.08.64-1.04.08.08c2.73,2,3.53,3.93,2.32,5.93-.4.64-.88,1.04-1.52,1.36-.64.24-1.28.32-2.08.16-.56-.08-1.84-.64-3.93-1.6-1.12-.56-2.08-.88-2.65-.88s-1.2.16-1.84.56-1.2.96-1.68,1.76l-.88,1.36,7.13,4.49c.24.16.48.24.72.16.24-.08.48-.32.72-.72l1.2-1.84,1.12.72-.08.08-5.37,8.66ZM159.87,207.97l.72.48,5.21-8.34-.72-.48-1.04,1.68c-.32.48-.56.72-.88.8-.24.08-.56,0-.88-.16l-7.29-4.57,1.04-1.6c.48-.8,1.12-1.44,1.76-1.84s1.36-.56,2-.56,1.6.32,2.81.88c2,.96,3.29,1.52,3.85,1.6.72.16,1.36.08,1.92-.16.56-.24,1.04-.64,1.36-1.2,1.2-1.84.48-3.69-2.16-5.53l-.4.64c.88.64,1.44,1.2,1.68,1.68s.32.88.08,1.2c-.16.32-.48.4-.96.48-.56,0-1.52-.16-2.81-.64-1.68-.56-2.89-.88-3.53-.96-.64-.08-1.28.08-1.84.32s-1.44.88-2.48,1.84l-.16-.16c.88-1.68,1.36-3.05,1.44-4.01s-.08-1.84-.4-2.65c-.4-.8-.96-1.44-1.76-1.92-1.28-.8-2.73-1.04-4.17-.56s-2.73,1.6-3.85,3.45l-5.93,9.38.72.48,1.04-1.68c.24-.4.56-.64.88-.8.32-.08.64-.08.96.16l14.67,9.22c.32.16.48.48.56.8.08.32-.08.64-.32,1.12l-1.12,1.6ZM154.26,196.91l-.08-.08-6.65-4.17c-.4-.24-.56-.56-.56-.88s.32-.96.96-2c.96-1.52,1.68-2.4,2.24-2.81s1.2-.56,2-.48,1.68.4,2.65.96c1.44.88,2.16,2,2.24,3.21,0,1.2-.4,2.56-1.36,4.01l-1.44,2.24ZM151.93,186.65c-.64,0-1.12.16-1.6.48-.48.4-1.2,1.28-2.16,2.73-.72,1.2-.88,1.68-.88,1.92s.16.48.4.72l6.49,4.09,1.28-2.08c.88-1.44,1.36-2.73,1.28-3.85,0-1.12-.72-2.16-2.08-2.97-.96-.56-1.76-.88-2.56-.96,0-.08-.08-.08-.16-.08Z"/>
        </g>
        <g id="path10406">
          <path d="M156.9,175.03l12.02-12.9,6.25,5.29-.72.72c-4.01-2.81-6.89-3.21-8.82-1.12-.4.4-.56.8-.56,1.04,0,.32.16.56.48.88l12.66,11.86c.24.24.48.32.8.32s.56-.24.88-.56l1.52-1.6.8.72-6.89,7.37-.8-.72,1.68-1.84c.24-.24.32-.48.32-.72s-.08-.48-.32-.64l-12.9-12.02c-.24-.24-.56-.4-.88-.32-.32,0-.64.24-.96.56-.96,1.04-1.28,2.32-.96,4.01.24,1.36,1.2,2.97,2.65,4.81l-.72.8-5.53-5.93h0Z" inkscape:connector-curvature="0"/>
          <path d="M175.34,187.29l-.96-.88,1.76-1.92c.24-.24.32-.4.32-.64s-.08-.4-.24-.56l-12.9-12.02c-.24-.24-.48-.32-.72-.32s-.56.24-.88.56c-.96,1.04-1.28,2.32-.96,3.85.24,1.28,1.12,2.89,2.65,4.73l.08.08-.88.96-.08-.08-5.77-6.01.08-.08,12.1-12.98,6.49,5.45-.88.88-.08-.08c-3.93-2.73-6.81-3.13-8.74-1.12-.4.4-.56.72-.56.96s.16.48.48.8l12.66,11.86c.24.24.48.32.64.24.24,0,.48-.24.8-.56l1.6-1.68.96.88-6.97,7.69ZM174.7,186.33l.64.56,6.73-7.21-.64-.56-1.44,1.52c-.32.4-.64.56-.96.64-.32,0-.56-.08-.88-.32l-12.66-11.86c-.32-.32-.56-.64-.56-.96s.24-.72.64-1.12c1.92-2.08,4.97-1.76,8.9,1.04l.56-.56-6.09-5.13-11.86,12.66,5.53,5.77.56-.64c-1.44-1.84-2.32-3.45-2.65-4.73-.32-1.6,0-3.05.96-4.09.32-.4.72-.56,1.04-.64.32-.08.64.08.96.32l12.9,12.02c.24.24.32.48.32.72s-.16.56-.4.8l-1.6,1.76Z"/>
        </g>
        <g id="path10408">
          <path d="M173.5,157.56l5.93-4.09,15.07,10.5-4.81-17.47,6.09-4.17.64.88-1.52,1.04c-.56.32-.8.64-.88.96-.08.24,0,.64.32.96l9.7,14.19c.16.32.48.4.8.4s.72-.16,1.28-.56l1.36-.96.64.88-8.18,5.61-.64-.88,1.52-1.04c.4-.32.72-.64.8-.88.08-.32.08-.56-.16-.88l-10.42-15.23,5.77,21.08-.8.56-17.95-12.5,8.9,12.98c.56.8,1.04,1.28,1.52,1.52.48.24.96.32,1.44.32.48-.08,1.2-.32,2.08-.88l.64.88-6.73,4.65-.64-.88c1.04-.8,1.6-1.6,1.76-2.24s-.16-1.52-.88-2.56l-8.58-12.34c-.24-.32-.48-.48-.72-.48-.32,0-.72.16-1.2.48l-1.52,1.04-.64-.88h0Z" inkscape:connector-curvature="0"/>
          <path d="M185.76,175.67l-.72-1.12.08-.08c1.04-.8,1.6-1.52,1.68-2.16s-.16-1.44-.88-2.48l-8.5-12.34c-.16-.24-.4-.4-.64-.4s-.64.16-1.12.48l-1.6,1.12-.72-1.12,6.09-4.25.08.08,14.75,10.26-4.73-17.31.08-.08,6.17-4.25.72,1.12-1.6,1.12c-.48.32-.8.64-.88.88s0,.56.24.88l9.7,14.19c.16.24.4.4.64.4.32,0,.72-.16,1.2-.56l1.44-1.04.72,1.12-.08.08-8.26,5.69-.72-1.12,1.6-1.12c.4-.32.64-.56.72-.88.08-.24.08-.56-.08-.72l-10.02-14.59,5.61,20.44-.96.64-.08-.08-17.47-12.18,8.58,12.42c.48.72,1.04,1.28,1.44,1.52.4.24.88.32,1.36.32.48-.08,1.12-.32,2-.8l.08-.08.72,1.12-6.65,4.89ZM185.28,174.55l.48.72,6.57-4.49-.48-.72c-.8.48-1.52.8-2,.8-.56,0-1.04-.08-1.52-.32-.48-.24-.96-.8-1.52-1.6l-8.9-12.98.16-.16,17.87,12.5.72-.48-5.69-21,.24-.08,10.42,15.23c.16.32.24.64.16.96s-.4.64-.88.96l-1.44.96.48.72,8.02-5.45-.48-.72-1.28.88c-.56.4-.96.56-1.36.56s-.64-.16-.88-.48l-9.78-14.19c-.24-.4-.4-.8-.32-1.04.08-.32.4-.64.96-1.04l1.36-.96-.48-.72-5.93,4.09,4.81,17.71-15.23-10.58-5.77,4.01.48.72,1.44-.96c.56-.4.96-.56,1.28-.48.32,0,.56.16.8.56l8.5,12.34c.72,1.04,1.04,1.92.88,2.65-.08.56-.64,1.28-1.68,2.08Z"/>
        </g>
        <g id="path10410">
          <path d="M202.83,139.04l16.03-6.33,3.05,6.65-.88.4c-1.2-2-2.4-3.29-3.53-3.85s-2.32-.56-3.61-.08l-3.93,1.6c-.32.16-.56.32-.64.56s-.08.56.08.88l2.81,7.21,1.76-.72c.96-.4,1.52-.96,1.84-1.92.32-.88.24-2-.24-3.45l.96-.4,3.69,9.38-.96.4c-.64-1.52-1.44-2.48-2.24-2.97-.88-.48-1.76-.48-2.81-.08l-1.6.64,3.21,8.02c.08.32.32.48.56.56.24.08.64,0,1.04-.16l3.13-1.2c3.37-1.36,4.49-4.25,3.29-8.82l.96-.4,2.65,7.69-16.67,6.57-.32-1.04,1.36-.56c.56-.24.88-.48,1.04-.72.16-.24.16-.56,0-.96l-6.33-16.03c-.16-.32-.32-.56-.56-.64s-.56-.08-1.04.08l-1.68.64-.4-.96h0Z" inkscape:connector-curvature="0"/>
          <path d="M210.77,159.4l-.48-1.28,1.52-.56c.48-.24.8-.4.96-.64s.16-.56,0-.88l-6.33-16.03c-.16-.32-.32-.56-.56-.64s-.56-.08-.88.08l-1.76.72-.48-1.28.08-.08,16.11-6.33,3.21,6.89-1.12.48-.08-.08c-1.2-2-2.32-3.21-3.45-3.77-1.12-.56-2.24-.56-3.45-.08l-3.93,1.6c-.32.08-.48.24-.56.48-.08.24-.08.48.08.8l2.81,7.05,1.6-.64c.88-.32,1.52-.96,1.76-1.84.32-.88.24-2-.24-3.37v-.08l1.12-.48.08.08,3.77,9.46-1.2.48-.08-.08c-.64-1.52-1.36-2.48-2.24-2.89-.8-.4-1.68-.48-2.73-.08l-1.44.56,3.13,7.94c.08.24.24.4.48.48s.56,0,.96-.16l3.13-1.2c3.29-1.28,4.41-4.25,3.21-8.66v-.08l1.2-.48,2.73,7.85-.08.08-16.83,6.65ZM210.61,158.28l.32.8,16.35-6.49-2.56-7.45-.8.32c1.12,4.49,0,7.53-3.37,8.82l-3.13,1.2c-.48.16-.88.24-1.12.16-.32-.08-.48-.32-.64-.64l-3.21-8.18,1.68-.64c1.04-.4,2-.4,2.89.08.88.4,1.6,1.44,2.24,2.89l.72-.32-3.61-9.14-.72.32c.48,1.36.56,2.48.24,3.37-.32.88-.96,1.6-1.92,1.92l-1.84.72-.08-.08-2.81-7.21c-.16-.4-.16-.72-.08-.96.08-.24.32-.48.72-.64l3.93-1.6c1.28-.48,2.56-.48,3.69.08,1.12.56,2.32,1.84,3.53,3.77l.72-.24-2.97-6.41-15.79,6.25.32.8,1.52-.64c.4-.16.8-.24,1.12-.08.32.08.48.4.64.72l6.33,16.03c.16.4.16.72,0,1.04-.16.32-.48.56-1.12.8l-1.2.64Z"/>
        </g>
        <g id="path10412">
          <path d="M226.8,130.22l5.13-.88,15.79,14.67-2.08-12.18c-.24-1.2-.64-2.08-1.28-2.56-.64-.48-1.44-.64-2.4-.48l-.16-1.12,7.45-1.28.16,1.12c-.8.16-1.28.32-1.68.64s-.64.72-.8,1.36-.24,1.28-.08,1.92l2.89,16.99-1.36.24-16.35-15.23,2.16,12.9c.16,1.2.64,2,1.36,2.48s1.68.64,2.89.4l.16,1.12-8.18,1.36-.16-1.12c1.04-.24,1.76-.72,2.24-1.44.48-.72.64-1.6.48-2.48l-2.48-14.51-.32-.24c-.56-.4-.96-.72-1.2-.72-.32-.08-.64-.08-1.12,0l-.96.16-.08-1.12h0Z" inkscape:connector-curvature="0"/>
          <path d="M230.32,151.78l-.24-1.28h.08c.96-.24,1.68-.64,2.16-1.36.48-.72.64-1.52.48-2.4l-2.48-14.43-.24-.16c-.72-.56-1.04-.72-1.12-.72-.32-.08-.64-.08-1.04,0l-1.12.16-.24-1.28,5.29-.88.08.08,15.47,14.43-2-11.78c-.24-1.2-.64-2-1.28-2.48-.56-.4-1.36-.56-2.32-.4h-.08l-.24-1.28,7.69-1.28.24,1.28h-.08c-.72.16-1.28.32-1.6.56s-.56.72-.72,1.28c-.16.56-.24,1.2-.08,1.84l2.89,17.15-1.52.24-.08-.08-16.03-14.99,2.08,12.58c.16,1.12.64,1.92,1.28,2.4s1.6.56,2.81.4h.08l.24,1.28-8.34,1.12ZM230.4,150.66l.16.88,7.94-1.36-.16-.88c-1.2.16-2.16,0-2.89-.48-.72-.48-1.2-1.36-1.36-2.56l-2.24-13.23,16.51,15.47,1.2-.16-2.89-16.91c-.08-.64-.08-1.36.08-2s.48-1.12.8-1.36.88-.48,1.6-.64l-.16-.88-7.21,1.2.16.88c.96-.16,1.76,0,2.4.48.72.48,1.12,1.44,1.36,2.65l2.08,12.5-15.95-14.83-4.97.8.16.88.88-.16c.48-.08.88-.08,1.2,0,.24.08.64.32,1.2.8l.32.24v.08l2.48,14.51c.16.96,0,1.84-.56,2.56-.4.8-1.2,1.28-2.16,1.52Z"/>
        </g>
        <g id="path10414">
          <path d="M255.49,126.3l17.63.56.16,8.18h-1.04c-.48-4.81-2.16-7.29-4.97-7.37-.56,0-.96.08-1.2.24s-.32.48-.32.96l-.56,17.31c0,.32.08.64.32.8.16.16.56.24,1.04.32l2.16.08v1.12l-10.1-.32v-1.12l2.48.08c.32,0,.56-.08.8-.24.16-.16.24-.4.32-.64l.56-17.55c0-.4-.08-.64-.32-.88s-.56-.32-1.04-.32c-1.44-.08-2.65.56-3.61,1.92-.8,1.04-1.44,2.81-1.84,5.13h-1.04l.56-8.26h0Z" inkscape:connector-curvature="0"/>
          <path d="M268.72,148.58l-10.34-.32.08-1.36,2.65.08c.32,0,.56-.08.72-.16.16-.16.24-.32.24-.56l.56-17.55c0-.32-.08-.56-.24-.72-.16-.16-.56-.32-.96-.32-1.36-.08-2.56.56-3.53,1.84-.8,1.04-1.44,2.81-1.84,5.13v.08l-1.28-.08v-.16l.72-8.34h.08l17.71.56.16,8.42-1.2-.08v-.08c-.48-4.73-2.16-7.21-4.89-7.29-.56,0-.88.08-1.12.24-.16.16-.32.48-.32.88l-.56,17.31c0,.32.08.56.24.72.16.16.48.24.96.24l2.32.08-.16,1.44ZM258.62,148.02l9.86.32v-.88l-2.08-.08c-.48,0-.88-.08-1.04-.32-.24-.16-.32-.48-.32-.88l.56-17.31c0-.48.16-.8.4-1.04s.64-.32,1.28-.32c2.89.08,4.57,2.56,5.05,7.37h.8l-.16-7.94-17.39-.56-.72,7.94h.8c.4-2.32,1.04-4.01,1.84-5.13.96-1.28,2.16-1.92,3.61-1.92h.16c.56,0,.88.16,1.12.4s.4.56.32.96l-.56,17.55c0,.32-.08.56-.32.72s-.48.24-.88.24l-2.4-.08.08.96Z"/>
        </g>
        <g id="path10416">
          <path d="M299.49,132.15c1.76.56,3.21,1.52,4.49,2.89,1.28,1.36,2,3.05,2.4,4.97.32,1.92.24,3.93-.48,5.93s-1.68,3.77-3.05,5.21-2.97,2.32-4.81,2.81c-1.76.48-3.53.4-5.29-.16-1.68-.56-3.05-1.44-4.25-2.81s-1.92-3.05-2.32-5.05c-.32-2-.16-4.01.48-6.09.64-2,1.6-3.77,2.97-5.13s2.97-2.32,4.73-2.73c1.84-.4,3.53-.4,5.13.16h0ZM299.41,133.27c-1.84-.56-3.53-.24-5.13.88s-2.97,3.45-4.01,6.89c-1.2,3.69-1.36,6.41-.64,8.26.72,1.76,1.92,2.97,3.61,3.45,1.2.4,2.32.4,3.45,0,1.12-.32,2.16-1.12,3.13-2.4.96-1.2,1.84-2.97,2.56-5.29.8-2.48,1.12-4.49,1.04-6.01s-.48-2.81-1.2-3.77c-.72-.96-1.68-1.68-2.81-2h0Z" inkscape:connector-curvature="0"/>
          <path d="M295.57,154.35c-.96,0-1.92-.16-2.89-.4-1.68-.56-3.13-1.52-4.33-2.89-1.2-1.36-1.92-3.13-2.32-5.05-.32-2-.16-4.01.48-6.09.64-2.08,1.68-3.77,3.05-5.13,1.36-1.36,2.97-2.32,4.81-2.81,1.76-.48,3.53-.48,5.13.08h0c1.76.56,3.29,1.52,4.49,2.97,1.28,1.44,2.08,3.13,2.4,5.05.32,1.92.24,3.93-.48,6.01-.64,2.08-1.68,3.85-3.05,5.21-1.36,1.36-3.05,2.32-4.89,2.81-.72.16-1.52.24-2.4.24ZM296.93,131.83c-.8,0-1.6.08-2.48.32-1.76.48-3.29,1.36-4.65,2.73-1.36,1.36-2.32,3.05-2.97,5.05-.64,2-.8,4.09-.48,6.01s1.12,3.61,2.24,4.97,2.56,2.24,4.17,2.81c1.68.56,3.45.56,5.21.16,1.76-.48,3.37-1.36,4.73-2.73,1.36-1.36,2.4-3.13,3.05-5.13s.8-4.01.4-5.93c-.32-1.92-1.12-3.53-2.32-4.89-1.2-1.36-2.73-2.32-4.41-2.89h0c-.8-.32-1.6-.48-2.48-.48ZM295.01,153.15c-.56,0-1.2-.08-1.84-.32-1.76-.56-2.97-1.76-3.69-3.53s-.48-4.57.64-8.34c1.04-3.45,2.4-5.77,4.09-6.89,1.6-1.2,3.37-1.44,5.21-.88h0c1.2.4,2.16,1.04,2.89,2s1.12,2.24,1.2,3.85c.08,1.52-.32,3.61-1.04,6.09-.72,2.24-1.6,4.09-2.56,5.29-.96,1.28-2.08,2.08-3.21,2.4-.56.24-1.12.32-1.68.32ZM297.65,133.11c-1.12,0-2.24.4-3.29,1.12-1.6,1.12-2.89,3.45-4.01,6.81-1.12,3.69-1.36,6.41-.64,8.18.72,1.76,1.92,2.89,3.53,3.45,1.2.4,2.32.4,3.37,0,1.04-.32,2.08-1.12,3.05-2.32.96-1.2,1.84-2.97,2.48-5.21.8-2.48,1.12-4.49,1.04-6.01s-.48-2.81-1.12-3.69c-.72-.96-1.6-1.6-2.73-1.92h0c-.56-.32-1.12-.4-1.68-.4Z"/>
        </g>
        <g id="path10418">
          <path d="M315.93,138.72l15.47,8.5-3.37,6.73-.88-.48c.88-2.48,1.12-4.25.72-5.37-.4-1.28-1.36-2.24-2.81-3.13l-3.05-1.68c-.32-.16-.56-.24-.8-.16s-.4.24-.56.48l-3.77,6.89,1.6.88c.88.48,1.76.56,2.65.32.88-.32,1.68-1.04,2.4-2.32l.96.48-4.73,8.58-.96-.48c.72-1.44.96-2.65.8-3.53s-.72-1.6-1.68-2.08l-1.6-.88-4.01,7.29c-.24.4-.32.8-.16,1.12.08.32.4.56.96.88l2,1.12-.56.96-9.14-4.97.56-.96,1.92,1.04c.4.24.72.32.96.24.24-.08.48-.32.72-.64l8.26-15.15c.16-.32.24-.64.16-.88-.08-.24-.32-.48-.8-.72l-1.84-1.04.56-1.04h0Z" inkscape:connector-curvature="0"/>
          <path d="M314.72,162.93l-9.38-5.13.64-1.2,2.08,1.12c.4.16.64.24.88.24.24-.08.4-.24.64-.56l8.26-15.15c.16-.32.24-.56.16-.8-.08-.24-.32-.4-.72-.64l-2-1.04.64-1.2,15.71,8.58-.08.08-3.37,6.81-1.12-.56v-.08c.8-2.48,1.12-4.25.72-5.29-.4-1.2-1.28-2.24-2.81-3.05l-3.05-1.68c-.24-.16-.48-.16-.72-.16-.16.08-.32.24-.48.48l-3.69,6.81,1.52.8c.88.48,1.76.56,2.56.32.8-.32,1.6-1.04,2.32-2.24l.08-.08,1.12.64-4.81,8.82-1.12-.64.08-.08c.72-1.44.96-2.56.8-3.45s-.72-1.52-1.6-2l-1.52-.8-3.93,7.13c-.24.4-.24.72-.16.96.08.24.4.48.88.8l2.08,1.12-.64,1.12ZM305.75,157.72l8.98,4.89.4-.72-1.84-1.04c-.56-.32-.88-.56-.96-.88-.16-.32-.08-.72.16-1.2l4.01-7.37,1.76.96c.96.56,1.52,1.28,1.76,2.16.16.88-.08,2.08-.72,3.53l.72.4,4.57-8.42-.72-.4c-.72,1.2-1.52,1.92-2.4,2.24-.88.32-1.84.24-2.81-.32l-1.76-.96,3.85-6.97c.16-.32.4-.48.64-.56.24-.08.56,0,.88.16l3.05,1.68c1.52.8,2.48,1.92,2.89,3.21.32,1.12.08,2.81-.72,5.29l.72.4,3.21-6.49-15.31-8.34-.4.72,1.76.96c.48.24.72.48.88.8.08.24.08.64-.16.96l-8.26,15.15c-.24.4-.48.64-.72.72-.32.08-.64,0-1.04-.24l-1.84-1.04-.56.72Z"/>
        </g>
        <g id="path10420">
          <path d="M345.1,157.23l12.42,11.86-4.73,5.61-.72-.64c1.28-1.92,2-3.53,2-4.81s-.48-2.32-1.44-3.29l-3.05-2.97c-.24-.24-.48-.32-.72-.32s-.48.16-.8.4l-5.37,5.61,1.36,1.28c.72.72,1.52.96,2.48.88.96-.08,1.92-.64,2.97-1.68l.72.72-6.97,7.29-.72-.72c1.12-1.2,1.68-2.32,1.76-3.29.08-.96-.32-1.84-1.12-2.56l-1.28-1.2-5.93,6.25c-.24.24-.32.48-.24.72.08.24.24.56.56.88l2.4,2.32c2.65,2.48,5.77,2.32,9.38-.72l.8.72-5.85,5.61-12.9-12.34.72-.8,1.04,1.04c.4.4.8.64,1.12.64s.56-.08.88-.4l11.86-12.42c.24-.24.4-.56.4-.8s-.16-.56-.48-.88l-1.28-1.2.72-.8h0Z" inkscape:connector-curvature="0"/>
          <path d="M343.02,185.45l-13.14-12.58.96-.96,1.12,1.12c.4.4.72.56,1.04.56h0c.24,0,.48-.08.72-.32l11.86-12.42c.24-.24.32-.48.32-.72s-.16-.48-.48-.8l-1.36-1.28.96-.96.08.08,12.5,11.94-.08.08-4.89,5.69-.88-.8.08-.08c1.28-1.92,1.92-3.53,2-4.73,0-1.2-.48-2.24-1.36-3.21l-3.05-2.97c-.24-.24-.4-.32-.64-.32h0c-.24,0-.48.16-.72.4l-5.29,5.53,1.28,1.2c.72.64,1.52.96,2.4.88.88-.08,1.92-.64,2.97-1.6l.08-.08.88.88-7.13,7.45-.88-.88.08-.08c1.12-1.2,1.68-2.32,1.68-3.21.08-.88-.32-1.76-1.04-2.48l-1.12-1.12-5.85,6.17c-.16.24-.24.4-.24.64s.24.56.56.8l2.4,2.32c2.56,2.48,5.69,2.24,9.22-.72l.08-.08.96.88-6.09,5.77ZM330.27,172.86l12.74,12.18,5.69-5.45-.56-.56c-3.61,2.97-6.81,3.13-9.46.64l-2.4-2.32c-.4-.32-.56-.64-.64-.96,0-.32.08-.56.32-.8l6.01-6.33,1.28,1.28c.8.8,1.2,1.68,1.12,2.65,0,.96-.56,2.08-1.68,3.29l.56.56,6.81-7.05-.56-.56c-1.04.96-2.08,1.52-2.97,1.6-.96.08-1.84-.24-2.56-.96l-1.44-1.36,5.45-5.69c.32-.32.56-.48.88-.48s.56.08.88.4l3.05,2.97c1.04.96,1.52,2.08,1.44,3.37,0,1.28-.72,2.89-2,4.73l.56.56,4.65-5.37-12.34-11.78-.56.64,1.2,1.12c.32.32.56.64.56.96s-.08.64-.4.88l-11.94,12.42c-.32.32-.64.4-.96.4s-.72-.24-1.12-.64l-.96-.96-.64.64Z"/>
        </g>
        <g id="path10422">
          <path d="M363.14,175.27l2.89,4.25-6.73,20.44,10.18-6.97c1.04-.72,1.6-1.44,1.76-2.24.16-.72-.08-1.52-.64-2.4l.88-.64,4.25,6.25-.88.64c-.4-.64-.88-1.04-1.28-1.28-.4-.16-.88-.24-1.52-.16-.64.08-1.2.32-1.76.72l-14.27,9.7-.8-1.12,7.05-21.16-10.82,7.37c-.96.64-1.52,1.44-1.68,2.24s.16,1.76.8,2.81l-.88.64-4.65-6.81.88-.64c.64.8,1.36,1.36,2.24,1.44.88.16,1.68-.08,2.48-.56l12.18-8.26.08-.32c.16-.72.24-1.2.16-1.36-.08-.32-.16-.64-.48-1.04l-.56-.8,1.12-.72h0Z" inkscape:connector-curvature="0"/>
          <path d="M356.16,203.8l-.88-1.28v-.08l6.89-20.84-10.5,7.21c-.96.64-1.52,1.36-1.6,2.16-.16.8.16,1.68.8,2.73l.08.08-1.12.72-.08-.08-4.73-6.97,1.12-.72.08.08c.56.8,1.28,1.28,2.16,1.44.8.16,1.6-.08,2.4-.56l12.1-8.26.08-.32c.16-.88.24-1.2.16-1.36-.08-.32-.16-.64-.4-.96l-.64-.88,1.12-.72.08.08,2.97,4.33v.08l-6.57,20.12,9.94-6.73c.96-.64,1.6-1.44,1.76-2.16.16-.72-.08-1.44-.56-2.32l-.08-.08,1.12-.72.08.08,4.33,6.33-1.12.72-.08-.08c-.4-.64-.8-1.04-1.2-1.2s-.88-.24-1.44-.16c-.64.08-1.2.32-1.76.64l-14.51,9.7ZM355.6,202.52l.64.96,14.11-9.62c.56-.4,1.2-.64,1.84-.72s1.2,0,1.6.16.8.56,1.2,1.2l.72-.48-4.17-6.09-.72.48c.56.88.72,1.68.56,2.4-.16.8-.8,1.6-1.84,2.32l-10.5,7.13,6.81-20.68-2.81-4.17-.72.48.48.72c.24.4.4.72.48,1.04,0,.24,0,.72-.16,1.44l-.08.4h0l-12.18,8.34c-.8.56-1.68.72-2.56.56-.88-.16-1.6-.64-2.24-1.44l-.72.48,4.57,6.65.72-.48c-.64-1.04-.88-1.92-.8-2.81.16-.88.72-1.6,1.76-2.32l11.14-7.61-.08.32-7.05,21.32Z"/>
        </g>
        <g id="path10424">
          <path d="M379.09,200.44l6.57,15.87-6.65,3.13-.4-.88c2-1.2,3.21-2.4,3.77-3.53s.56-2.32,0-3.61l-1.6-3.93c-.16-.32-.32-.56-.56-.64-.24-.08-.56-.08-.88.08l-7.13,2.97.72,1.76c.4.96,1.04,1.52,1.92,1.84s2,.24,3.45-.32l.4.96-9.3,3.85-.4-.96c1.52-.64,2.48-1.44,2.89-2.32s.48-1.76,0-2.81l-.64-1.6-8.02,3.29c-.32.08-.48.32-.56.56-.08.24,0,.64.16,1.04l1.28,3.13c1.36,3.37,4.33,4.41,8.9,3.21l.4.96-7.61,2.73-6.81-16.51,1.04-.4.56,1.36c.24.56.48.88.72,1.04.24.16.56.16.96,0l15.87-6.57c.32-.16.56-.32.64-.64.08-.24.08-.56-.08-1.04l-.64-1.6,1.04-.4h0Z" inkscape:connector-curvature="0"/>
          <path d="M365.7,225.36l-.08-.08-6.81-16.67,1.2-.48.64,1.44c.24.48.4.8.64.96s.56.08.88,0l15.87-6.57c.32-.16.56-.32.64-.56.08-.24.08-.56-.08-.88l-.72-1.76,1.2-.48.08.08,6.57,16.03-6.81,3.29-.48-1.12.08-.08c1.92-1.2,3.21-2.4,3.69-3.53s.48-2.24,0-3.45l-1.6-3.93c-.08-.32-.24-.48-.48-.56-.24-.08-.48-.08-.8.08l-7.05,2.89.64,1.6c.4.88.96,1.44,1.84,1.76.88.32,2,.16,3.37-.32l.08-.08.48,1.12-9.54,3.93-.48-1.12.08-.08c1.52-.64,2.4-1.44,2.89-2.24.4-.8.4-1.76,0-2.73l-.56-1.44-7.85,3.21c-.24.08-.4.24-.48.48-.08.24,0,.56.16.96l1.28,3.13c1.36,3.29,4.33,4.33,8.74,3.13h.08l.48,1.2-7.77,2.89ZM359.13,208.77l6.73,16.35,7.37-2.65-.32-.8c-4.49,1.2-7.53.08-8.9-3.29l-1.28-3.13c-.16-.48-.24-.88-.16-1.12.08-.32.32-.48.64-.64l8.1-3.29.72,1.68c.4,1.04.4,2,0,2.89s-1.36,1.6-2.89,2.32l.32.72,9.06-3.77-.32-.72c-1.36.48-2.48.56-3.37.24-.96-.32-1.6-.96-2-1.92l-.72-1.84,7.29-2.97c.4-.16.72-.16.96-.08.24.08.48.32.64.64l1.6,3.93c.56,1.28.48,2.48,0,3.69-.56,1.12-1.76,2.32-3.77,3.53l.32.72,6.41-3.05-6.41-15.71-.8.32.64,1.52c.16.4.24.8.08,1.12-.08.32-.32.56-.72.64l-15.87,6.57c-.4.16-.72.16-1.04,0s-.56-.48-.8-1.04l-.48-1.28-1.04.4Z"/>
        </g>
        <g id="path10426">
          <path d="M387.98,223.6l2.16,10.98c.4,2.16.24,3.85-.48,5.21s-1.92,2.24-3.45,2.48c-.96.16-1.84.08-2.65-.24-.8-.32-1.52-.88-2.16-1.68-.64-.8-1.2-2.08-1.76-3.93-.08,1.44-.32,2.48-.56,3.05-.24.56-.64,1.12-1.12,1.52s-1.6,1.04-3.29,1.76c-1.2.56-2,1.04-2.4,1.44-.32.32-.4.64-.4.88.08.32.32.56.8.72s1.28.16,2.4,0l.16.96c-3.29.48-5.13-.4-5.61-2.65-.16-.72-.08-1.36.16-1.92.24-.56.72-1.04,1.36-1.44.48-.32,1.76-.8,3.93-1.44,1.28-.4,2.08-.8,2.56-1.2s.8-.96,1.04-1.68.24-1.52,0-2.48l-.32-1.76-8.34,1.68c-.32.08-.56.24-.72.4-.16.24-.16.64-.08,1.12l.4,2.08-1.04.24-1.92-9.86,1.04-.24.4,2.08c.08.48.24.8.48.96.24.16.48.24.8.16l16.99-3.37c.4-.08.64-.24.72-.48.16-.24.16-.64.08-1.04l-.4-2.08,1.2-.24h0ZM379.41,232.02l.48,2.48c.32,1.68.88,2.97,1.76,3.77.8.8,2.08,1.12,3.69.8,1.12-.24,2-.56,2.56-1.04s.96-1.04,1.04-1.68c.16-.64,0-1.84-.32-3.53-.24-1.12-.48-1.84-.64-2.08-.24-.24-.48-.32-.88-.24l-7.69,1.52Z" inkscape:connector-curvature="0"/>
          <path d="M373.72,247.16c-2.4,0-3.77-.96-4.17-2.89-.16-.72-.08-1.36.16-2,.24-.56.72-1.12,1.36-1.52.48-.32,1.76-.8,4.01-1.52,1.2-.4,2.08-.8,2.56-1.2s.8-.96.96-1.68c.16-.72.16-1.52,0-2.4l-.32-1.6-8.26,1.6c-.32.08-.56.16-.64.32-.16.24-.16.56-.08,1.04l.4,2.16-1.28.24v-.08l-2-10.02,1.28-.24.4,2.24c.08.4.24.72.4.88.24.16.4.24.72.16l16.99-3.37c.32-.08.56-.24.64-.4.16-.24.16-.56.08-.96l-.4-2.24,1.28-.24v.08l2.16,10.98c.4,2.16.24,3.93-.48,5.29-.72,1.36-1.92,2.24-3.53,2.56-.96.16-1.84.08-2.73-.24-.8-.32-1.6-.88-2.16-1.68-.56-.72-1.04-1.84-1.6-3.37-.08,1.12-.32,2-.48,2.48-.24.64-.64,1.12-1.2,1.52-.48.4-1.6,1.04-3.29,1.76-1.2.56-2,.96-2.32,1.36-.24.32-.4.56-.32.8s.32.48.72.64c.48.16,1.28.16,2.32,0h.08l.24,1.2h-.16c-.32.24-.88.32-1.36.32ZM378.52,232.1l.4,1.84c.16.96.16,1.76,0,2.56-.24.72-.56,1.36-1.04,1.76-.48.4-1.36.88-2.65,1.28-2.16.64-3.45,1.2-3.93,1.44-.64.4-1.04.88-1.28,1.44-.24.56-.32,1.2-.16,1.84.4,2.16,2.16,2.97,5.37,2.56l-.16-.72c-1.12.16-1.84.16-2.32,0-.56-.16-.8-.48-.88-.8s.08-.64.4-1.04c.4-.4,1.2-.88,2.4-1.44,1.68-.72,2.73-1.36,3.21-1.76s.88-.88,1.12-1.44.4-1.6.56-3.05h.24c.56,1.84,1.12,3.13,1.76,3.93.56.8,1.28,1.36,2.08,1.6.8.32,1.68.4,2.56.24,1.52-.32,2.65-1.12,3.37-2.48.72-1.36.88-3.05.48-5.13l-2.16-10.9-.88.16.4,2c.08.48.08.88-.08,1.12-.16.32-.4.48-.8.56l-16.99,3.37c-.32.08-.64,0-.88-.24-.24-.16-.4-.56-.48-1.04l-.4-2-.88.16,1.92,9.62.88-.16-.4-1.92c-.08-.56-.08-.88.08-1.2.16-.24.4-.4.8-.48l8.34-1.68ZM384.05,239.31c-1.04,0-1.92-.32-2.48-.96-.8-.8-1.44-2.16-1.76-3.85l-.48-2.65,7.77-1.52c.4-.08.8,0,.96.32.24.24.48.96.72,2.08.32,1.76.48,2.89.32,3.61-.16.64-.48,1.28-1.12,1.76-.56.48-1.44.88-2.65,1.12-.4.08-.88.08-1.28.08ZM379.57,232.1l.48,2.4c.32,1.68.88,2.89,1.68,3.69s2,1.04,3.61.72c1.12-.24,1.92-.56,2.48-1.04s.88-1.04,1.04-1.6c.16-.64,0-1.76-.32-3.45-.24-1.36-.48-1.84-.64-2-.16-.24-.4-.24-.8-.24l-7.53,1.52Z"/>
        </g>
        <g id="path10428">
          <path d="M390.63,265.44l2.16,1.2v.96l-8.66.48v-.96c2.48-.72,4.33-1.52,5.45-2.56,1.44-1.28,2.16-2.73,2.16-4.33,0-1.28-.32-2.4-1.04-3.37-.72-1.04-1.76-1.76-3.21-2.32s-3.45-.8-6.01-.88c-2.48,0-4.49.24-5.93.72-1.44.56-2.48,1.28-3.13,2.16-.64.96-1.04,2-1.04,3.29,0,1.68.48,3.05,1.44,4.01.96.96,2.16,1.44,3.69,1.44h2c.32,0,.56-.16.72-.4.16-.24.24-.64.24-1.2v-1.84h1.04l-.08,9.14h-1.04v-1.2c0-.56-.08-.96-.32-1.2-.16-.24-.48-.32-.8-.32l-8.26-.08v-.96c1.28-.32,2.56-.72,3.69-1.04-1.2-.72-2.08-1.6-2.73-2.65-.56-1.04-.88-2.16-.88-3.45,0-1.84.48-3.53,1.44-5.05.96-1.52,2.32-2.81,4.01-3.69s3.69-1.28,5.77-1.28,4.09.48,5.77,1.44,3.05,2.16,4.01,3.77,1.52,3.21,1.44,4.81c0,.88-.16,1.76-.48,2.65,0,.8-.56,1.68-1.44,2.73h0Z" inkscape:connector-curvature="0"/>
          <path d="M380.61,271.21h-1.28v-1.36c0-.48-.08-.88-.24-1.12-.16-.24-.4-.32-.72-.32l-8.42-.08v-1.2h.08c1.2-.32,2.32-.64,3.45-.96-1.12-.72-1.92-1.6-2.48-2.56-.56-1.04-.88-2.24-.88-3.53,0-1.84.48-3.61,1.44-5.13.96-1.52,2.32-2.81,4.01-3.69s3.61-1.28,5.77-1.28h.16c2.16,0,4.17.48,5.85,1.44,1.68.96,3.13,2.24,4.09,3.77,1.04,1.6,1.52,3.29,1.52,4.89,0,.96-.16,1.84-.48,2.65s-.88,1.76-1.68,2.73l2.08,1.2v1.2h-.08l-8.82.48v-1.2h.08c2.48-.72,4.25-1.52,5.37-2.56,1.36-1.2,2.08-2.65,2.16-4.25,0-1.2-.32-2.32-1.04-3.37-.72-.96-1.76-1.76-3.13-2.32-1.44-.56-3.45-.8-6.01-.8s-4.49.24-5.85.72c-1.36.48-2.4,1.2-3.13,2.16-.64.88-.96,2-1.04,3.21,0,1.68.48,2.97,1.36,3.93.96.96,2.16,1.36,3.61,1.44h2c.24,0,.48-.08.64-.32.16-.24.24-.64.24-1.12v-1.92h1.28l.08,9.3ZM379.57,270.89h.8l.08-8.9h-.8v1.68c0,.56-.08,1.04-.32,1.28-.16.24-.48.4-.8.4h-2c-1.52,0-2.81-.48-3.77-1.44-.96-.96-1.44-2.32-1.44-4.09,0-1.28.4-2.4,1.04-3.37.72-.96,1.76-1.68,3.21-2.24,1.44-.48,3.45-.8,5.93-.72,2.56,0,4.65.32,6.09.88,1.44.56,2.56,1.36,3.29,2.4s1.04,2.16,1.04,3.45c0,1.68-.72,3.21-2.24,4.41-1.12.96-2.97,1.84-5.37,2.56v.72l8.42-.48v-.8l-2.16-1.2v-.08h0c.8-1.04,1.36-2,1.68-2.81s.48-1.68.48-2.56c0-1.6-.48-3.21-1.44-4.73-.96-1.52-2.32-2.81-4.01-3.69s-3.61-1.36-5.77-1.36h-.16c-2.08,0-3.93.4-5.61,1.28s-3.05,2.08-3.93,3.61c-.96,1.52-1.44,3.21-1.44,5.05,0,1.28.24,2.4.88,3.37.56.96,1.44,1.84,2.65,2.65l.24.16-.24.08c-1.2.4-2.4.72-3.61,1.04v.72l8.18.08c.4,0,.72.16.88.4.24.24.32.64.32,1.28l-.08.96Z"/>
        </g>
        <g id="path10430">
          <path d="M391.75,276.18l-2,9.3-1.04-.24.24-1.04c.16-.88.24-1.44.16-1.68s-.24-.48-.48-.48c-.24-.08-.48,0-.72.08l-9.54,3.53,6.33,5.37c.24.24.64.4.96.48.48.08.96,0,1.28-.24s.64-.72.72-1.28l.24-.96,1.04.24-1.76,8.1-1.04-.24c.16-.96.16-1.68,0-2.32-.24-.64-.72-1.28-1.52-1.92l-7.94-6.81-6.73-1.36c-.32-.08-.64,0-.8.16-.24.24-.48.64-.56,1.2l-.4,1.84-1.04-.24,2.08-9.78,1.04.24-.4,1.92c-.08.48-.08.88,0,1.2.16.24.4.48.72.48l6.49,1.36,11.7-4.41c.48-.16.88-.48,1.12-.8s.48-.96.72-1.84l1.12.16h0Z" inkscape:connector-curvature="0"/>
          <path d="M387.34,297.5l-1.28-.24v-.08c.16-.88.16-1.68,0-2.24-.24-.56-.72-1.2-1.44-1.92l-7.94-6.81-6.73-1.44c-.32-.08-.56,0-.72.08-.24.24-.4.56-.56,1.12l-.4,1.92-1.28-.24v-.08l2.08-9.86,1.28.24-.4,2c-.08.48-.08.88,0,1.12.16.24.32.4.64.48l6.49,1.36,11.62-4.41c.48-.16.8-.48,1.04-.8s.48-.96.72-1.84v-.08l1.28.24-1.92,9.62-1.28-.24.24-1.12c.16-.8.24-1.36.16-1.68-.08-.24-.16-.4-.4-.4-.24-.08-.4,0-.64.08l-9.3,3.53,6.17,5.29c.24.24.56.4.96.48.48.08.88,0,1.2-.24s.56-.64.72-1.2l.24-1.12,1.28.24-1.84,8.26ZM386.3,297.02l.88.16,1.68-7.85-.8-.16-.16.88c-.16.64-.4,1.12-.8,1.36-.4.32-.88.4-1.36.24-.4-.08-.72-.24-1.04-.48l-6.57-5.53.16-.08,9.54-3.61c.24-.08.48-.08.8-.08.32.08.48.24.56.56.08.32,0,.88-.16,1.76l-.16.88.88.16,1.92-9.06-.88-.16c-.24.88-.48,1.44-.72,1.76s-.64.64-1.2.88l-11.7,4.49h0l-6.49-1.36c-.4-.08-.64-.24-.8-.56-.16-.32-.16-.72-.08-1.28l.4-1.84-.88-.16-2,9.54.8.16.4-1.68c.16-.56.32-.96.64-1.2.24-.16.56-.24.96-.16l6.73,1.44h0l7.94,6.81c.8.72,1.36,1.36,1.52,2,.16.56.16,1.28,0,2.16Z"/>
        </g>
      </g>
      <g id="text8862">
        <g id="path10373">
          <path d="M167.32,324.43l6.81,8.26c1.52,1.84,2.32,3.61,2.24,5.29,0,1.68-.72,3.05-2.08,4.25-1.36,1.12-2.81,1.52-4.25,1.2-2-.4-3.77-1.52-5.29-3.37l-2.48-2.97-5.69,4.73c-.32.24-.48.56-.48.8,0,.4.16.72.4,1.04l1.6,1.92-.88.72-6.65-8.02.88-.72,1.36,1.68c.24.32.56.48.8.56s.48,0,.72-.24l13.31-11.06c.32-.32.48-.56.48-.88s-.24-.72-.72-1.28l-1.04-1.2.96-.72ZM163.08,336.37l1.92,2.24c1.2,1.44,2.32,2.24,3.45,2.4,1.12.16,2.4-.4,3.77-1.52.96-.8,1.6-1.52,1.84-2.24.32-.72.32-1.44.08-2.24-.24-.72-.8-1.76-1.92-3.05-.72-.8-1.2-1.28-1.52-1.36-.32-.08-.72,0-1.12.32l-6.49,5.45h0Z" inkscape:connector-curvature="0"/>
          <path d="M157.22,346.47l-.08-.08-6.73-8.1,1.04-.88,1.44,1.76c.24.32.48.48.72.56.24,0,.48,0,.64-.16l13.31-11.06c.32-.24.48-.56.48-.8,0-.32-.24-.72-.64-1.2l-1.12-1.36,1.04-.88.08.08,6.81,8.26c1.52,1.84,2.32,3.69,2.32,5.37s-.72,3.13-2.16,4.33c-1.36,1.12-2.81,1.6-4.33,1.28-2-.4-3.85-1.6-5.37-3.45l-2.4-2.89-5.61,4.65c-.32.24-.48.48-.48.72,0,.32.16.64.4.96l1.68,2-1.04.88ZM150.73,338.3l6.49,7.85.64-.56-1.52-1.84c-.32-.4-.48-.8-.48-1.12s.24-.64.56-.88l5.77-4.81,2.56,3.05c1.52,1.76,3.29,2.89,5.21,3.37,1.44.32,2.81-.08,4.17-1.2s2-2.48,2.08-4.09c0-1.6-.72-3.37-2.24-5.21l-6.73-8.18-.64.56.96,1.12c.48.56.72,1.04.72,1.36s-.16.72-.56.96l-13.31,11.06c-.24.24-.56.32-.8.24-.32-.08-.56-.24-.88-.64l-1.28-1.6-.72.56ZM168.85,341.1h-.4c-1.12-.16-2.32-.96-3.53-2.4l-1.92-2.32,6.65-5.53c.4-.32.8-.48,1.2-.4s.88.56,1.6,1.44c1.04,1.28,1.68,2.32,1.92,3.05.24.8.16,1.52-.08,2.32-.24.72-.88,1.52-1.92,2.32-1.28,1.04-2.48,1.52-3.53,1.52ZM163.32,336.37l1.84,2.16c1.2,1.44,2.32,2.16,3.37,2.32,1.12.16,2.32-.4,3.69-1.44.96-.8,1.52-1.52,1.84-2.24.24-.72.32-1.44.08-2.16-.24-.72-.8-1.76-1.84-2.97-.64-.8-1.2-1.28-1.52-1.36-.32-.08-.64,0-.96.32l-6.49,5.37Z"/>
        </g>
        <g id="path10375">
          <path d="M180.63,340.38l7.21,5.77-.72.88-1.36-1.04c-.48-.4-.8-.56-1.12-.48-.24.08-.64.4-1.12,1.04l-4.17,5.21,7.77,6.17,4.17-5.21c.56-.64.8-1.12.8-1.36s-.24-.56-.72-.96l-1.2-.96.72-.88,7.21,5.77-.72.88-1.28-1.04c-.32-.24-.56-.4-.8-.4-.16,0-.4,0-.64.16-.16.08-.48.4-.88.96l-9.78,12.18c-.48.56-.72.96-.72,1.2,0,.4.24.8.8,1.28l1.2.96-.72.88-7.21-5.77.72-.88,1.2.96c.48.4.96.56,1.28.4.24-.08.56-.4,1.04-1.04l4.73-5.93-7.77-6.17-4.81,6.01c-.48.56-.72.96-.72,1.2,0,.4.24.8.72,1.2l1.36,1.04-.72.88-7.21-5.77.72-.88,1.36,1.12c.24.16.48.32.72.32s.48,0,.64-.16c.16-.08.4-.4.8-.96l9.78-12.26c.48-.64.72-1.12.72-1.36s-.24-.64-.72-.96l-1.2-.96.64-1.04h0Z" inkscape:connector-curvature="0"/>
          <path d="M184.48,371.32l-7.37-5.93.8-1.04,1.36,1.04c.48.4.88.48,1.2.4.16,0,.4-.24,1.04-.96l4.65-5.77-7.53-6.09-4.73,5.85c-.56.72-.72,1.04-.72,1.12,0,.4.24.72.64,1.04l1.44,1.12-.8,1.04-7.45-5.93.8-1.04,1.44,1.2c.24.16.4.24.64.32.24,0,.4,0,.56-.16.08-.08.32-.24.8-.88l9.78-12.26c.64-.72.72-1.12.72-1.28,0-.24-.24-.56-.64-.88l-1.28-1.04.8-1.04,7.45,5.93-.8,1.04-1.44-1.12c-.4-.32-.8-.48-1.04-.48-.16,0-.48.24-1.12.96l-4.09,5.13,7.53,6.09,4.09-5.13c.64-.8.72-1.12.72-1.28s-.16-.4-.72-.88l-1.36-1.04.8-1.04,7.37,5.93-.8,1.04-1.44-1.12c-.32-.24-.56-.4-.72-.4s-.4,0-.56.16c-.08.08-.32.24-.88.96l-9.62,12.1c-.56.72-.64,1.04-.64,1.12,0,.4.24.8.72,1.2l1.28,1.04-.88.96ZM177.42,365.39l6.97,5.61.56-.64-1.04-.88c-.56-.48-.8-.88-.8-1.36,0-.16.08-.4.72-1.28l9.78-12.18c.64-.72.8-.96.88-.96.24-.16.56-.24.72-.16.24,0,.48.16.88.48l1.2.96.56-.64-6.97-5.61-.56.64,1.12.88c.56.4.8.8.8,1.04,0,.32-.24.8-.8,1.44l-4.25,5.29-7.94-6.33,4.25-5.29c.56-.64.96-1.04,1.2-1.04.32-.08.72.08,1.2.48l1.2.96.56-.64-7.05-5.61-.56.64,1.12.88c.48.4.72.72.72,1.04s-.24.8-.8,1.44l-9.78,12.26c-.4.56-.72.88-.88.96-.24.16-.48.24-.72.16-.24,0-.48-.16-.8-.32l-1.28-1.04-.56.64,7.05,5.61.56-.64-1.2-.96c-.48-.4-.72-.8-.72-1.28,0-.16.08-.4.72-1.28l4.89-6.09,7.94,6.33-4.81,6.01c-.72.88-.96,1.04-1.12,1.04-.4.16-.88,0-1.44-.4l-1.12-.88-.4.72Z"/>
        </g>
        <g id="path10377">
          <path d="M201.31,355.77l8.82,4.81-.56.96-1.52-.8c-.64-.4-1.12-.48-1.44-.4-.24.08-.56.4-.8.88l-7.85,14.43c-.32.56-.4.96-.32,1.2.08.32.4.64.96.88l1.68.88-.56.96-8.82-4.81.56-.96,1.68.88c.56.32,1.04.4,1.28.4.24-.08.56-.4.88-.96l7.85-14.43c.32-.56.4-.96.32-1.12-.16-.32-.48-.64-1.2-1.04l-1.52-.8.56-.96h0Z" inkscape:connector-curvature="0"/>
          <path d="M199.71,379.82l-8.98-4.89.64-1.2,1.76.96c.72.4,1.04.4,1.2.32s.4-.24.8-.96l7.85-14.43c.4-.64.32-.96.32-1.04-.16-.32-.48-.64-1.12-.96l-1.6-.88.64-1.2,8.98,4.89-.64,1.2-1.6-.88c-.8-.4-1.2-.48-1.36-.4s-.4.24-.72.88l-7.85,14.43c-.4.64-.4.96-.32,1.12.08.24.4.56.88.8l1.76.96-.64,1.28ZM191.05,374.77l8.58,4.65.4-.72-1.6-.88c-.56-.32-.88-.64-1.04-.96-.08-.24,0-.72.4-1.28l7.85-14.43c.32-.56.64-.88.88-.96.32-.08.8.08,1.52.48l1.36.8.4-.72-8.58-4.65-.4.72,1.36.72c.64.4,1.04.72,1.2,1.04.08.24,0,.64-.32,1.28l-7.85,14.43c-.32.64-.64.96-.96,1.04-.32.08-.72,0-1.36-.4l-1.52-.88-.32.72Z"/>
        </g>
        <g id="path10379">
          <path d="M213.17,362.34l9.46,3.37-.4,1.04-2.24-.8c-.32-.16-.64-.16-.88,0s-.4.4-.56.8l-5.77,16.11c-.16.4-.16.72,0,.96.16.24.56.48,1.2.72l2.89,1.04c1.52.56,2.97.48,4.33-.16,1.36-.64,2.73-2.16,4.01-4.57l.96.32-3.29,7.69-16.99-6.09.4-1.04,1.68.56c.56.24,1.04.24,1.28.08.32-.16.56-.48.72-.96l5.69-15.95c.16-.32.08-.64,0-.88s-.4-.4-.8-.56l-2.08-.72.4-.96h0Z" inkscape:connector-curvature="0"/>
          <path d="M222.95,389.03l-17.23-6.17.48-1.28,1.76.64c.56.16.96.24,1.2.08.24-.16.48-.4.64-.88l5.69-15.95c.08-.32.08-.56,0-.8s-.32-.4-.72-.48l-2.16-.8.48-1.28h.08l9.54,3.45-.48,1.28-2.4-.88c-.32-.08-.56-.08-.8,0s-.4.32-.48.72l-5.77,16.11c-.16.32-.16.64,0,.8.16.24.56.4,1.2.64l2.89,1.04c1.52.56,2.89.48,4.17-.16s2.65-2.16,4.01-4.49l.08-.08,1.2.4-3.37,8.1ZM205.96,382.7l16.83,6.01,3.21-7.45-.72-.24c-1.36,2.32-2.73,3.85-4.01,4.49-1.36.64-2.81.72-4.41.16l-2.89-1.04c-.72-.24-1.12-.48-1.28-.72-.16-.24-.16-.64,0-1.04l5.77-16.11c.16-.4.4-.72.64-.88s.64-.16,1.04,0l2.16.8.32-.8-9.22-3.29-.32.8,1.92.72c.4.16.72.32.8.64.16.24.16.64,0,.96l-5.69,15.95c-.16.48-.48.88-.8.96-.32.16-.8.08-1.44-.08l-1.52-.56-.4.72Z"/>
        </g>
        <g id="path10381">
          <path d="M233.77,369.08l9.86,1.84-.24,1.04-1.68-.32c-.72-.16-1.28-.16-1.44,0-.24.16-.4.56-.48,1.12l-3.05,16.11c-.16.64-.08,1.04,0,1.28.16.24.56.48,1.2.56l1.92.32-.24,1.04-9.86-1.84.24-1.04,1.84.32c.64.16,1.12.08,1.36-.08.24-.16.4-.56.56-1.2l3.05-16.11c.08-.64.08-1.04-.08-1.2-.24-.24-.72-.48-1.44-.64l-1.68-.32.16-.88h0Z" inkscape:connector-curvature="0"/>
          <path d="M239.62,392.4l-10.1-1.92.24-1.28,2,.4c.8.16,1.12.08,1.2,0,.16-.08.32-.4.48-1.12l3.05-16.11c.16-.72.08-1.04,0-1.12-.24-.24-.64-.48-1.36-.56l-1.76-.32.24-1.28,10.1,1.92-.24,1.28-1.84-.32c-.88-.16-1.28-.08-1.36,0-.16.08-.32.32-.48,1.04l-3.05,16.11c-.16.72-.08,1.04,0,1.2.16.24.56.4,1.12.56l2,.4-.24,1.12ZM229.84,390.32l9.62,1.84.16-.88-1.76-.32c-.64-.16-1.04-.32-1.28-.64-.16-.24-.16-.64-.08-1.36l3.05-16.11c.16-.64.32-1.04.56-1.2.24-.16.8-.16,1.6,0l1.6.32.16-.88-9.62-1.84-.16.88,1.52.32c.72.16,1.28.32,1.52.64.16.24.16.64.08,1.28l-3.05,16.11c-.16.72-.32,1.12-.56,1.28s-.72.16-1.44.08l-1.76-.32-.16.8Z"/>
        </g>
        <g id="path10383">
          <path d="M247.32,371.64l10.66.32c2.4.08,4.25.72,5.45,1.84s1.84,2.56,1.76,4.33-.72,3.13-1.92,4.01c-1.68,1.2-3.69,1.84-6.01,1.76l-3.85-.16-.24,7.37c0,.4.08.72.24.96.24.24.64.4,1.12.4l2.48.08v1.12l-10.42-.32v-1.12l2.16.08c.4,0,.72-.08.96-.24.24-.16.32-.4.32-.72l.56-17.31c0-.4-.08-.8-.32-.96s-.72-.32-1.44-.32l-1.6-.08.08-1.04h0ZM253.49,382.7l2.97.08c1.84.08,3.21-.32,4.09-1.04s1.28-2,1.36-3.85c.08-1.28-.08-2.24-.48-2.89-.32-.72-.88-1.2-1.6-1.52s-1.84-.56-3.53-.56c-1.12,0-1.76.08-2.08.24-.32.16-.48.56-.48,1.04,0,0-.24,8.5-.24,8.5Z" inkscape:connector-curvature="0"/>
          <path d="M257.09,393.84l-10.66-.32.08-1.36,2.32.08c.4,0,.72-.08.88-.16.16-.16.24-.32.32-.64l.56-17.31c0-.4-.08-.72-.32-.88s-.72-.32-1.36-.32l-1.68-.08.08-1.36,10.82.32c2.4.08,4.33.72,5.53,1.84,1.28,1.12,1.84,2.65,1.84,4.49-.08,1.76-.72,3.21-1.92,4.09-1.68,1.2-3.69,1.84-6.09,1.76l-3.77-.16-.24,7.29c0,.4.08.64.24.88.24.24.56.32,1.04.32l2.56.08-.24,1.44ZM246.75,393.2l10.18.32v-.88l-2.32-.08c-.48,0-.88-.16-1.2-.4-.24-.24-.32-.56-.32-1.04l.24-7.53,4.01.16c2.32.08,4.33-.48,5.93-1.68,1.2-.88,1.76-2.16,1.84-3.93.08-1.76-.56-3.13-1.76-4.25s-3.05-1.68-5.37-1.76l-10.58-.32v.88l1.44.08c.72,0,1.2.16,1.52.4.24.24.4.56.4,1.04l-.56,17.31c0,.32-.16.56-.4.8-.24.16-.56.24-1.04.24l-2.08-.08.08.72ZM256.85,382.94h-.4l-3.05-.08.24-8.58c0-.56.16-.96.48-1.12.32-.24,1.04-.32,2.16-.24,1.68.08,2.89.24,3.61.64.72.32,1.28.88,1.68,1.6.32.72.48,1.68.48,2.97-.08,1.84-.56,3.13-1.44,3.93-.88.48-2.08.88-3.77.88ZM253.57,382.62l2.81.08c1.84.08,3.21-.24,4.01-.96.8-.72,1.28-2,1.36-3.77,0-1.2-.08-2.16-.48-2.81-.32-.64-.88-1.2-1.52-1.52-.72-.32-1.84-.56-3.45-.56-1.28,0-1.84.08-2,.24-.24.16-.4.48-.4.96l-.32,8.34Z"/>
        </g>
        <g id="path10385">
          <path d="M268.24,372.04l10.58-1.6c2.4-.4,4.33-.08,5.69.8,1.44.88,2.24,2.24,2.56,3.93.24,1.76-.08,3.21-1.12,4.25-1.36,1.52-3.29,2.48-5.61,2.81l-3.85.56,1.12,7.29c.08.4.24.72.48.88.32.16.72.24,1.12.16l2.4-.4.16,1.12-10.26,1.6-.16-1.12,2.16-.32c.4-.08.72-.16.88-.4s.24-.48.16-.72l-2.65-17.07c-.08-.4-.24-.72-.56-.88s-.8-.16-1.44-.08l-1.6.24-.08-1.04h0ZM276.33,381.74l2.89-.48c1.84-.32,3.13-.88,3.85-1.76s.88-2.24.64-4.01c-.16-1.2-.48-2.16-.96-2.73-.48-.64-1.12-1.04-1.84-1.2-.72-.24-1.92-.16-3.61.08-1.04.16-1.76.4-2,.64s-.32.64-.24,1.12l1.28,8.34h0Z" inkscape:connector-curvature="0"/>
          <path d="M271.36,393.6l-.24-1.36,2.24-.32c.4-.08.64-.16.8-.32s.24-.4.16-.64l-2.65-17.07c-.08-.4-.24-.64-.48-.8-.24-.16-.72-.16-1.36-.08l-1.68.24-.24-1.36h.08l10.58-1.6c2.4-.4,4.33-.08,5.77.8,1.44.88,2.32,2.24,2.56,4.01.24,1.76-.08,3.29-1.12,4.41-1.44,1.52-3.29,2.48-5.69,2.81l-3.69.56,1.12,7.21c.08.4.16.64.4.8s.64.24,1.04.16l2.56-.4.24,1.36h-.08l-10.34,1.6ZM271.44,392.48l.16.88,10.02-1.52-.16-.88-2.32.32c-.48.08-.88,0-1.2-.16-.24-.16-.4-.48-.48-.96l-1.12-7.45,3.93-.64c2.32-.32,4.17-1.28,5.53-2.81.96-1.04,1.36-2.48,1.12-4.17-.24-1.68-1.12-3.05-2.48-3.85-1.36-.88-3.29-1.12-5.61-.8l-10.42,1.6.16.88,1.44-.24c.72-.08,1.2-.08,1.52.08s.48.48.56.96l2.65,17.07c.08.32,0,.64-.24.8-.16.24-.48.32-.96.4l-2.08.48ZM276.17,381.9v-.08l-1.28-8.42c-.08-.56,0-.96.32-1.2.24-.24.96-.48,2.08-.64,1.68-.24,2.81-.24,3.61-.08.8.24,1.44.64,1.92,1.28.48.64.8,1.52,1.04,2.81.24,1.76.08,3.21-.64,4.09s-2,1.52-3.93,1.84l-3.13.4ZM279.54,371.56c-.64,0-1.36.08-2.24.24-1.28.16-1.76.4-1.92.56-.24.24-.32.56-.24,1.04l1.28,8.26,2.81-.4c1.84-.24,3.05-.88,3.77-1.68.64-.88.88-2.16.64-3.93-.16-1.2-.48-2.08-.96-2.73-.48-.56-1.04-.96-1.76-1.2-.4-.16-.88-.16-1.36-.16Z"/>
        </g>
        <g id="path10387">
          <path d="M289.32,368.19l9.54-3.05.32,1.04-1.6.56c-.72.24-1.12.48-1.28.72s-.08.64.08,1.2l4.97,15.63c.16.64.4.96.64,1.12.32.16.72.16,1.28-.08l1.84-.56.32,1.04-9.54,3.05-.32-1.04,1.84-.56c.64-.24,1.04-.4,1.12-.64.16-.24.08-.64-.08-1.28l-4.97-15.63c-.16-.56-.4-.96-.64-1.04-.32-.16-.88-.08-1.52.16l-1.6.48-.4-1.12h0Z" inkscape:connector-curvature="0"/>
          <path d="M295.81,389.03l-.4-1.28,1.92-.64c.72-.24.96-.48,1.04-.64.08-.16.08-.48-.08-1.2l-4.97-15.63c-.24-.72-.4-.88-.56-.96-.32-.08-.8-.08-1.44.16l-1.76.56-.4-1.28h.08l9.62-3.05.4,1.28-1.76.56c-.88.24-1.12.48-1.2.64-.08.16-.16.48.08,1.12l4.97,15.63c.24.72.4.96.56,1.04.24.16.64.08,1.2-.08l1.92-.64.4,1.28h-.08l-9.54,3.13ZM295.73,387.91l.24.8,9.3-2.97-.24-.8-1.68.56c-.64.16-1.12.24-1.44.08-.24-.16-.48-.48-.72-1.2l-4.97-15.63c-.16-.64-.24-1.04-.08-1.36.16-.24.56-.56,1.36-.8l1.52-.48-.24-.8-9.3,2.97.24.8,1.52-.48c.72-.24,1.28-.24,1.6-.16.24.08.48.48.64,1.12l4.97,15.63c.24.64.24,1.12.08,1.36-.16.24-.56.48-1.2.72l-1.6.64Z"/>
        </g>
        <g id="path10389">
          <path d="M302.22,364.35l4.57-2.4,19.48,9.06-5.69-10.98c-.56-1.12-1.28-1.76-2-2.08-.72-.24-1.52-.16-2.48.32l-.48-.96,6.73-3.53.48.96c-.72.32-1.12.72-1.36,1.12-.24.4-.32.88-.32,1.52s.16,1.28.48,1.84l7.94,15.31-1.2.64-20.2-9.46,6.09,11.62c.56,1.04,1.2,1.68,2,1.92s1.76.08,2.89-.48l.48.96-7.37,3.85-.48-.96c.88-.48,1.44-1.2,1.68-2,.24-.88.16-1.68-.32-2.48l-6.73-13.14-.32-.08c-.64-.24-1.12-.32-1.36-.32-.32,0-.64.08-1.04.32l-.88.48-.56-1.04h0Z" inkscape:connector-curvature="0"/>
          <path d="M312.24,383.74l-.64-1.2.08-.08c.88-.48,1.44-1.12,1.68-2,.24-.8.16-1.6-.24-2.4l-6.81-12.98-.32-.08c-.64-.24-1.12-.32-1.28-.32-.32,0-.64.08-1.04.32l-.96.48-.64-1.2,4.73-2.48h.08l19.16,8.9-5.53-10.66c-.56-1.04-1.2-1.76-1.92-2-.64-.24-1.44-.16-2.32.32l-.08.08-.64-1.2,6.97-3.61.64,1.2-.08.08c-.64.32-1.12.72-1.36,1.04-.24.32-.32.8-.32,1.44s.16,1.2.48,1.76l8.02,15.39-1.36.72h-.08l-19.88-9.3,5.85,11.3c.56,1.04,1.2,1.68,1.92,1.84.72.24,1.68.08,2.81-.48l.08-.08.64,1.2-7.61,4.01ZM311.92,382.62l.4.8,7.13-3.69-.4-.8c-1.12.56-2.08.64-2.89.48-.8-.24-1.52-.96-2.08-2l-6.25-11.94.32.16,20.2,9.46,1.04-.56-7.94-15.15c-.32-.64-.48-1.28-.48-1.92s.08-1.2.4-1.6c.24-.4.64-.72,1.36-1.04l-.4-.8-6.49,3.37.4.8c.88-.4,1.76-.48,2.4-.24.8.24,1.52.96,2.08,2.08l5.85,11.22-19.8-9.22-4.41,2.32.4.8.8-.4c.4-.24.8-.32,1.12-.32.24,0,.72.08,1.36.32l.4.16v.08l6.81,13.06c.48.88.56,1.76.32,2.56-.24.8-.8,1.52-1.68,2Z"/>
        </g>
        <g id="path10391">
          <path d="M324.66,352l13.23-10.98,4.97,5.37-.72.64c-1.76-1.52-3.29-2.4-4.49-2.56s-2.4.16-3.45,1.04l-3.29,2.73c-.24.24-.4.48-.4.72s.08.56.32.8l4.89,6.01,1.44-1.2c.8-.64,1.2-1.44,1.2-2.4s-.4-2-1.28-3.21l.8-.64,6.41,7.77-.8.64c-1.12-1.28-2.08-1.92-3.05-2.08-.96-.16-1.84.08-2.65.8l-1.28,1.04,5.45,6.65c.16.24.4.4.72.32.24,0,.56-.16.96-.48l2.56-2.16c2.81-2.32,2.97-5.45.48-9.38l.8-.64,4.89,6.49-13.79,11.38-.72-.88,1.12-.96c.48-.4.72-.72.72-.96.08-.32-.08-.64-.32-.88l-10.9-13.31c-.24-.32-.48-.48-.8-.48-.24,0-.56.08-.96.4l-1.36,1.12-.72-.72Z" inkscape:connector-curvature="0"/>
          <path d="M338.37,368.92l-.88-1.04,1.2-1.04c.4-.32.64-.64.72-.96.08-.24,0-.56-.24-.8l-10.9-13.31c-.24-.24-.48-.4-.72-.4s-.56.08-.88.4l-1.44,1.2-.88-1.04,13.47-11.06,5.13,5.61-.96.8-.08-.08c-1.76-1.52-3.21-2.32-4.49-2.56-1.2-.16-2.32.16-3.37,1.04l-3.29,2.73c-.24.16-.4.4-.4.64s.08.48.32.72l4.81,5.85,1.36-1.12c.72-.64,1.12-1.36,1.12-2.24s-.4-1.92-1.28-3.13l-.08-.08.96-.8,6.57,7.94-.96.8-.08-.08c-1.04-1.2-2.08-1.92-2.97-2.08s-1.76.08-2.56.8l-1.2,1.04,5.37,6.57c.16.24.4.32.56.32h0c.24,0,.56-.16.88-.48l2.56-2.16c2.73-2.24,2.89-5.37.4-9.22l-.08-.08.96-.8.08.08,4.89,6.57-.08.08-13.55,11.38ZM337.89,367.95l.56.64,13.63-11.22-4.73-6.25-.64.56c2.48,3.93,2.32,7.13-.56,9.46l-2.56,2.16c-.4.32-.72.48-1.04.48h0c-.32,0-.56-.16-.8-.4l-5.53-6.73,1.44-1.12c.88-.72,1.76-.96,2.81-.8.96.16,2,.8,3.05,2.08l.56-.48-6.25-7.61-.56.48c.88,1.12,1.28,2.24,1.28,3.21s-.4,1.76-1.2,2.48l-1.52,1.28-4.97-6.09c-.24-.32-.4-.64-.4-.88,0-.32.16-.56.48-.8l3.29-2.73c1.04-.88,2.24-1.2,3.53-1.04,1.2.16,2.73,1.04,4.49,2.48l.56-.48-4.81-5.21-13.14,10.74.56.64,1.28-1.04c.4-.32.72-.48,1.04-.4.32,0,.64.16.88.48l10.82,13.14c.24.32.4.64.32.96-.08.32-.32.72-.8,1.04l-1.04.96Z"/>
        </g>
        <g id="path10393">
          <path d="M350.55,329.16l-.64-2.24.72-.8,6.09,4.97-.64.72c-2.24-1.12-4.17-1.52-5.77-1.36s-2.89.88-3.93,2.08c-.8.96-1.2,2.08-1.12,3.21s.56,2.08,1.36,2.73c.56.48,1.12.72,1.68.8s1.2,0,1.84-.24,1.68-.96,3.05-2c1.92-1.52,3.45-2.48,4.49-2.89,1.04-.4,2-.56,2.97-.4s1.84.56,2.65,1.28c1.52,1.28,2.32,2.81,2.48,4.65s-.48,3.53-1.76,5.13c-1.44,1.68-3.21,2.73-5.45,3.13l.48,2.56-.64.8-6.49-5.37.64-.8c2,1.2,4.01,1.6,6.01,1.36,1.92-.24,3.53-1.04,4.65-2.4.96-1.12,1.36-2.32,1.28-3.53-.08-1.28-.56-2.24-1.52-3.05-.56-.48-1.12-.72-1.76-.8-.64-.08-1.28.08-2.08.4-.72.32-2,1.2-3.85,2.56-2,1.44-3.53,2.32-4.57,2.56-1.52.32-3.05-.16-4.41-1.28-1.44-1.2-2.24-2.73-2.4-4.41s.4-3.29,1.6-4.73c.56-.72,1.28-1.28,2-1.68.96-.48,1.92-.8,3.05-.96h0Z" inkscape:connector-curvature="0"/>
          <path d="M358.49,351.52l-.08-.08-6.57-5.45.8-.96.08.08c2,1.12,4.01,1.6,5.93,1.36s3.45-1.04,4.57-2.4c.88-1.04,1.36-2.24,1.28-3.45s-.56-2.24-1.44-2.97c-.48-.4-1.04-.64-1.68-.72-.56-.08-1.28.08-2,.4s-2,1.2-3.77,2.48c-2,1.44-3.53,2.32-4.65,2.56-1.6.32-3.13-.16-4.57-1.36-1.52-1.2-2.32-2.73-2.48-4.49-.16-1.76.4-3.37,1.6-4.89.56-.72,1.28-1.28,2.08-1.68.72-.4,1.68-.72,2.81-.88l-.56-2.16.8-.96,6.33,5.13-.72.88-.08-.08c-2.24-1.04-4.17-1.52-5.77-1.36s-2.89.88-3.85,2c-.8.96-1.2,2-1.12,3.13s.48,2,1.36,2.65c.48.4,1.04.72,1.68.8.56.08,1.2,0,1.84-.24s1.68-.96,3.05-2c1.92-1.52,3.45-2.48,4.49-2.89,1.04-.4,2.08-.56,3.05-.4.96.16,1.84.56,2.73,1.28,1.52,1.28,2.4,2.89,2.48,4.73.16,1.84-.48,3.61-1.84,5.21-1.44,1.68-3.21,2.73-5.37,3.13l.48,2.48-.88,1.12ZM352.23,345.99l6.25,5.21.56-.64-.48-2.65h.16c2.16-.32,3.93-1.36,5.37-3.05,1.28-1.6,1.92-3.29,1.76-5.05-.16-1.76-.96-3.37-2.4-4.57-.8-.72-1.68-1.12-2.56-1.28-.88-.16-1.92,0-2.89.4-1.04.4-2.48,1.36-4.49,2.89-1.36,1.12-2.4,1.76-3.05,2.08-.64.24-1.28.32-1.92.24s-1.2-.4-1.76-.88c-.88-.72-1.36-1.68-1.44-2.89-.08-1.12.32-2.24,1.2-3.29,1.04-1.2,2.32-1.92,4.01-2.08,1.6-.16,3.53.24,5.77,1.28l.48-.56-5.93-4.89-.56.72.64,2.32h-.16c-1.12.16-2.08.48-2.81.88s-1.44.96-2,1.68c-1.2,1.44-1.68,2.97-1.6,4.65.16,1.68.96,3.13,2.4,4.33,1.36,1.12,2.81,1.6,4.33,1.28,1.04-.24,2.65-1.04,4.57-2.48,1.76-1.36,3.05-2.16,3.85-2.56.8-.32,1.44-.48,2.08-.4.64.08,1.2.32,1.76.8.96.8,1.52,1.84,1.52,3.13.08,1.28-.4,2.48-1.28,3.61-1.2,1.36-2.73,2.24-4.73,2.48-1.92.24-3.93-.24-5.93-1.36l-.72.64Z"/>
        </g>
      </g>
    </g>
    <circle id="path8869" cx="148.67" cy="312.67" r="4.01" sodipodi:cx="142.73506" sodipodi:cy="31.554703" sodipodi:rx="5" sodipodi:ry="5"/>
    <circle id="path8869-6" cx="369.09" cy="312.67" r="4.01" sodipodi:cx="417.73154" sodipodi:cy="31.554703" sodipodi:rx="5" sodipodi:ry="5"/>
  </g>
</svg>