<?xml version="1.0" encoding="UTF-8" standalone="no"?>
<!DOCTYPE svg PUBLIC "-//W3C//DTD SVG 1.1//EN" "http://www.w3.org/Graphics/SVG/1.1/DTD/svg11.dtd">
<svg width="300px" height="300px" viewBox="0 0 3000 3000" version="1.1" xmlns="http://www.w3.org/2000/svg" xmlns:xlink="http://www.w3.org/1999/xlink" xml:space="preserve" xmlns:serif="http://www.serif.com/" style="fill-rule:evenodd;clip-rule:evenodd;stroke-linejoin:round;stroke-miterlimit:2;">
    <g transform="matrix(18.2659,0,0,20.2599,125.435,120.449)">
        <g transform="matrix(18.0051,0,0,18.0051,43.6709,66.3396)">
            <path d="M0.392,0L0.392,-0.7L0.279,-0.7C0.275,-0.673 0.267,-0.651 0.254,-0.633C0.241,-0.615 0.226,-0.6 0.208,-0.59C0.189,-0.579 0.168,-0.571 0.146,-0.567C0.123,-0.562 0.099,-0.56 0.074,-0.561L0.074,-0.454L0.25,-0.454L0.25,0L0.392,0Z" style="fill-rule:nonzero;"/>
        </g>
        <g transform="matrix(18.0051,0,0,18.0051,54.8645,66.3396)">
            <path d="M0.27,-0.337C0.252,-0.337 0.236,-0.341 0.223,-0.349C0.209,-0.356 0.198,-0.366 0.189,-0.379C0.18,-0.391 0.174,-0.405 0.17,-0.421C0.165,-0.436 0.163,-0.452 0.163,-0.469C0.163,-0.485 0.165,-0.501 0.17,-0.516C0.175,-0.531 0.182,-0.545 0.191,-0.557C0.2,-0.569 0.212,-0.579 0.225,-0.586C0.238,-0.593 0.253,-0.597 0.27,-0.597C0.288,-0.597 0.304,-0.593 0.318,-0.586C0.332,-0.579 0.344,-0.569 0.354,-0.557C0.363,-0.544 0.371,-0.53 0.376,-0.515C0.381,-0.499 0.383,-0.483 0.383,-0.467C0.383,-0.45 0.381,-0.433 0.376,-0.418C0.371,-0.402 0.364,-0.388 0.355,-0.376C0.346,-0.364 0.334,-0.355 0.32,-0.348C0.306,-0.341 0.289,-0.337 0.27,-0.337ZM0.168,-0.18L0.033,-0.18C0.037,-0.149 0.045,-0.122 0.058,-0.098C0.071,-0.074 0.087,-0.054 0.107,-0.037C0.127,-0.02 0.15,-0.008 0.176,0.001C0.202,0.009 0.23,0.013 0.26,0.013C0.31,0.013 0.352,0.002 0.387,-0.02C0.422,-0.041 0.45,-0.07 0.472,-0.105C0.494,-0.139 0.51,-0.179 0.52,-0.222C0.53,-0.265 0.535,-0.309 0.535,-0.352C0.535,-0.396 0.531,-0.44 0.523,-0.483C0.515,-0.526 0.501,-0.565 0.48,-0.6C0.459,-0.634 0.432,-0.662 0.398,-0.683C0.363,-0.704 0.319,-0.714 0.266,-0.714C0.229,-0.714 0.196,-0.707 0.166,-0.694C0.136,-0.681 0.11,-0.663 0.089,-0.64C0.067,-0.616 0.05,-0.59 0.039,-0.559C0.027,-0.528 0.021,-0.494 0.021,-0.458C0.021,-0.43 0.025,-0.402 0.034,-0.375C0.043,-0.348 0.056,-0.323 0.075,-0.302C0.095,-0.28 0.119,-0.263 0.148,-0.25C0.177,-0.237 0.206,-0.23 0.236,-0.23C0.27,-0.23 0.3,-0.236 0.326,-0.248C0.352,-0.26 0.375,-0.28 0.394,-0.308L0.396,-0.306C0.395,-0.287 0.392,-0.265 0.388,-0.24C0.383,-0.215 0.376,-0.192 0.366,-0.171C0.356,-0.149 0.343,-0.131 0.326,-0.116C0.309,-0.1 0.288,-0.093 0.262,-0.093C0.237,-0.093 0.217,-0.102 0.2,-0.119C0.183,-0.136 0.173,-0.157 0.168,-0.18Z" style="fill-rule:nonzero;"/>
        </g>
        <g transform="matrix(18.0051,0,0,18.0051,84.6225,66.3396)">
            <path d="M0.5,-0.583L0.5,-0.7L0.109,-0.7L0.04,-0.313L0.168,-0.313C0.182,-0.332 0.197,-0.347 0.213,-0.356C0.229,-0.365 0.25,-0.369 0.275,-0.369C0.294,-0.369 0.311,-0.366 0.326,-0.359C0.341,-0.352 0.353,-0.343 0.364,-0.331C0.375,-0.319 0.383,-0.305 0.388,-0.289C0.393,-0.273 0.396,-0.256 0.396,-0.238C0.396,-0.221 0.393,-0.204 0.388,-0.188C0.382,-0.171 0.374,-0.157 0.364,-0.145C0.353,-0.132 0.341,-0.122 0.326,-0.115C0.311,-0.107 0.294,-0.103 0.275,-0.103C0.243,-0.103 0.217,-0.113 0.196,-0.132C0.175,-0.151 0.163,-0.176 0.16,-0.208L0.018,-0.208C0.019,-0.171 0.026,-0.139 0.041,-0.112C0.055,-0.084 0.074,-0.061 0.098,-0.042C0.122,-0.023 0.15,-0.01 0.181,-0.001C0.212,0.009 0.244,0.013 0.278,0.013C0.313,0.014 0.347,0.008 0.378,-0.005C0.409,-0.017 0.437,-0.034 0.461,-0.057C0.484,-0.08 0.503,-0.107 0.517,-0.138C0.531,-0.169 0.538,-0.202 0.538,-0.238C0.538,-0.271 0.533,-0.302 0.524,-0.331C0.514,-0.36 0.5,-0.385 0.482,-0.406C0.463,-0.427 0.441,-0.444 0.414,-0.457C0.387,-0.47 0.357,-0.476 0.322,-0.476C0.294,-0.476 0.269,-0.472 0.247,-0.464C0.225,-0.455 0.204,-0.441 0.185,-0.422L0.183,-0.424L0.211,-0.583L0.5,-0.583Z" style="fill-rule:nonzero;"/>
        </g>
        <g transform="matrix(18.0051,0,0,18.0051,95.816,66.3396)">
            <path d="M0.228,-0.417L0.228,-0.317C0.245,-0.317 0.264,-0.317 0.283,-0.316C0.302,-0.315 0.319,-0.311 0.335,-0.305C0.351,-0.298 0.364,-0.288 0.375,-0.274C0.385,-0.26 0.39,-0.24 0.39,-0.213C0.39,-0.179 0.379,-0.152 0.357,-0.133C0.335,-0.113 0.308,-0.103 0.276,-0.103C0.255,-0.103 0.238,-0.107 0.223,-0.114C0.208,-0.121 0.195,-0.131 0.185,-0.144C0.175,-0.156 0.167,-0.171 0.162,-0.188C0.157,-0.204 0.154,-0.222 0.153,-0.241L0.018,-0.241C0.017,-0.2 0.023,-0.164 0.036,-0.133C0.048,-0.102 0.065,-0.075 0.088,-0.054C0.111,-0.032 0.138,-0.015 0.171,-0.004C0.203,0.007 0.239,0.013 0.278,0.013C0.312,0.013 0.345,0.008 0.376,-0.002C0.407,-0.012 0.435,-0.027 0.459,-0.046C0.483,-0.065 0.502,-0.089 0.517,-0.118C0.531,-0.147 0.538,-0.179 0.538,-0.216C0.538,-0.256 0.527,-0.29 0.505,-0.319C0.483,-0.348 0.453,-0.366 0.414,-0.375L0.414,-0.377C0.447,-0.386 0.471,-0.404 0.488,-0.43C0.504,-0.456 0.512,-0.486 0.512,-0.52C0.512,-0.551 0.505,-0.579 0.491,-0.603C0.477,-0.627 0.459,-0.647 0.437,-0.664C0.414,-0.681 0.389,-0.693 0.361,-0.702C0.333,-0.71 0.305,-0.714 0.277,-0.714C0.241,-0.714 0.208,-0.708 0.179,-0.697C0.15,-0.685 0.125,-0.668 0.104,-0.647C0.083,-0.626 0.066,-0.6 0.055,-0.571C0.043,-0.541 0.036,-0.508 0.035,-0.472L0.17,-0.472C0.169,-0.508 0.178,-0.538 0.197,-0.562C0.215,-0.585 0.242,-0.597 0.278,-0.597C0.304,-0.597 0.327,-0.589 0.347,-0.573C0.367,-0.557 0.377,-0.534 0.377,-0.504C0.377,-0.484 0.372,-0.468 0.363,-0.456C0.353,-0.444 0.341,-0.435 0.326,-0.429C0.311,-0.422 0.294,-0.418 0.277,-0.417C0.26,-0.416 0.243,-0.416 0.228,-0.417Z" style="fill-rule:nonzero;"/>
        </g>
    </g>
    <g transform="matrix(20,0,0,20,0,0)">
        <g transform="matrix(1,0,0,1.07038,0.1102,-7.66662)">
            <path d="M47.273,104.413L40.166,104.413L39.511,106.634L46.619,106.634L47.273,104.413Z" style="fill:rgb(160,116,0);"/>
        </g>
        <g transform="matrix(1,0,0,1.07038,10.4604,-7.66662)">
            <path d="M47.273,104.413L40.166,104.413L39.511,106.634L46.619,106.634L47.273,104.413Z" style="fill:rgb(160,116,0);"/>
        </g>
        <g transform="matrix(1,0,0,1.07038,20.7877,-7.66662)">
            <path d="M47.273,104.413L40.166,104.413L39.511,106.634L46.619,106.634L47.273,104.413Z" style="fill:rgb(160,116,0);"/>
        </g>
        <g transform="matrix(1,0,0,1.07038,31.6079,-7.66662)">
            <path d="M47.273,104.413L40.166,104.413L39.511,106.634L46.619,106.634L47.273,104.413Z" style="fill:rgb(160,116,0);"/>
        </g>
        <g transform="matrix(1,0,0,1.07038,41.9367,-7.66662)">
            <path d="M47.273,104.413L40.166,104.413L39.511,106.634L46.619,106.634L47.273,104.413Z" style="fill:rgb(160,116,0);"/>
        </g>
        <g transform="matrix(1,0,0,1.07038,52.2713,-7.66662)">
            <path d="M47.273,104.413L40.166,104.413L39.511,106.634L46.619,106.634L47.273,104.413Z" style="fill:rgb(160,116,0);"/>
        </g>
        <g transform="matrix(1,0,0,1.07038,62.361,-7.66662)">
            <path d="M47.273,104.413L40.166,104.413L39.511,106.634L46.619,106.634L47.273,104.413Z" style="fill:rgb(160,116,0);"/>
        </g>
    </g>
    <g transform="matrix(20,0,0,20,5.03144,0)">
        <g transform="matrix(1,0,0,1,-0.965737,-0.107466)">
            <path d="M68.189,78.075C68.189,78.075 66.3,77.757 63.917,78.203C61.454,78.665 59.626,80.637 57.259,80.747C54.671,80.868 51.188,77.51 46.892,77.549C42.276,77.592 40.547,80.747 40.547,80.747L40.547,82.821C40.547,82.821 42.965,79.52 46.972,79.623C50.98,79.726 53.808,82.618 57.336,82.821C59.794,82.963 62.252,80.73 64.023,80.236C65.392,79.853 68.189,80.149 68.189,80.149L68.189,78.075Z" style="fill:rgb(64,126,201);"/>
            <g transform="matrix(1,0,0,1,0,3.78175)">
                <path d="M68.189,78.075C68.189,78.075 66.3,77.757 63.917,78.203C61.454,78.665 59.626,80.637 57.259,80.747C54.671,80.868 51.188,77.51 46.892,77.549C42.276,77.592 40.547,80.747 40.547,80.747L40.547,82.821C40.547,82.821 42.965,79.52 46.972,79.623C50.98,79.726 53.808,82.618 57.336,82.821C59.794,82.963 62.252,80.73 64.023,80.236C65.392,79.853 68.189,80.149 68.189,80.149L68.189,78.075Z" style="fill:rgb(64,126,201);"/>
            </g>
            <g transform="matrix(1,0,0,1,0,7.61423)">
                <path d="M68.189,78.075C68.189,78.075 66.3,77.757 63.917,78.203C61.454,78.665 59.626,80.637 57.259,80.747C54.671,80.868 51.188,77.51 46.892,77.549C42.276,77.592 40.547,80.747 40.547,80.747L40.547,82.821C40.547,82.821 42.965,79.52 46.972,79.623C50.98,79.726 53.808,82.618 57.336,82.821C59.794,82.963 62.252,80.73 64.023,80.236C65.392,79.853 68.189,80.149 68.189,80.149L68.189,78.075Z" style="fill:rgb(64,126,201);"/>
            </g>
        </g>
        <g transform="matrix(-1,0,0,1,150.463,-0.132829)">
            <path d="M68.189,78.075C68.189,78.075 66.3,77.757 63.917,78.203C61.454,78.665 59.626,80.637 57.259,80.747C54.671,80.868 51.188,77.51 46.892,77.549C42.276,77.592 40.547,80.747 40.547,80.747L40.547,82.821C40.547,82.821 42.965,79.52 46.972,79.623C50.98,79.726 53.808,82.618 57.336,82.821C59.794,82.963 62.252,80.73 64.023,80.236C65.392,79.853 68.189,80.149 68.189,80.149L68.189,78.075Z" style="fill:rgb(64,126,201);"/>
            <g transform="matrix(1,0,0,1,0,3.78175)">
                <path d="M68.189,78.075C68.189,78.075 66.3,77.757 63.917,78.203C61.454,78.665 59.626,80.637 57.259,80.747C54.671,80.868 51.188,77.51 46.892,77.549C42.276,77.592 40.547,80.747 40.547,80.747L40.547,82.821C40.547,82.821 42.965,79.52 46.972,79.623C50.98,79.726 53.808,82.618 57.336,82.821C59.794,82.963 62.252,80.73 64.023,80.236C65.392,79.853 68.189,80.149 68.189,80.149L68.189,78.075Z" style="fill:rgb(64,126,201);"/>
            </g>
            <g transform="matrix(1,0,0,1,0,7.61423)">
                <path d="M68.189,78.075C68.189,78.075 66.3,77.757 63.917,78.203C61.454,78.665 59.626,80.637 57.259,80.747C54.671,80.868 51.188,77.51 46.892,77.549C42.276,77.592 40.547,80.747 40.547,80.747L40.547,82.821C40.547,82.821 42.965,79.52 46.972,79.623C50.98,79.726 53.808,82.618 57.336,82.821C59.794,82.963 62.252,80.73 64.023,80.236C65.392,79.853 68.189,80.149 68.189,80.149L68.189,78.075Z" style="fill:rgb(64,126,201);"/>
            </g>
        </g>
    </g>
    <g transform="matrix(20,0,0,20,0,0)">
        <path d="M96.536,141.861C98.142,141.068 98.866,139.795 99.17,137.712C100.035,131.796 105.303,131.38 107.512,133.731C109.969,136.345 106.921,143.544 96.536,141.861Z" style="fill:rgb(0,154,84);"/>
        <g transform="matrix(0.860648,-0.509201,0.509201,0.860648,-45.5431,47.1084)">
            <path d="M96.536,141.861C98.142,141.068 98.866,139.795 99.17,137.712C100.035,131.796 105.303,131.38 107.512,133.731C109.969,136.345 106.921,143.544 96.536,141.861Z" style="fill:rgb(0,154,84);"/>
        </g>
        <g transform="matrix(0.31173,-0.950171,0.950171,0.31173,-34.487,125.711)">
            <path d="M96.536,141.861C98.142,141.068 98.866,139.795 99.17,137.712C100.035,131.796 105.303,131.38 107.512,133.731C109.969,136.345 106.921,143.544 96.536,141.861Z" style="fill:rgb(0,154,84);"/>
        </g>
        <g transform="matrix(-0.995282,-0.0970197,-0.0970197,0.995282,213.496,-114.951)">
            <path d="M96.536,141.861C98.142,141.068 98.866,139.795 99.17,137.712C100.035,131.796 105.303,131.38 107.512,133.731C109.969,136.345 106.921,143.544 96.536,141.861Z" style="fill:rgb(0,154,84);"/>
        </g>
        <g transform="matrix(-0.811386,-0.584511,-0.584511,0.811386,300.329,-2.29756)">
            <path d="M96.536,141.861C98.142,141.068 98.866,139.795 99.17,137.712C100.035,131.796 105.303,131.38 107.512,133.731C109.969,136.345 106.921,143.544 96.536,141.861Z" style="fill:rgb(0,154,84);"/>
        </g>
        <g transform="matrix(0.197612,-0.98028,-0.98028,-0.197612,254.355,227.296)">
            <path d="M96.536,141.861C98.142,141.068 98.866,139.795 99.17,137.712C100.035,131.796 105.303,131.38 107.512,133.731C109.969,136.345 106.921,143.544 96.536,141.861Z" style="fill:rgb(0,154,84);"/>
        </g>
        <path d="M83.774,21.426C94.237,17.079 101.759,20.036 107.048,30.226C97.057,33.905 89.489,31.1 83.774,21.426Z" style="fill:rgb(0,154,84);"/>
        <g transform="matrix(0.897017,0.441995,-0.441995,0.897017,44.4293,-37.7373)">
            <path d="M83.774,21.426C94.237,17.079 101.759,20.036 107.048,30.226C97.057,33.905 89.489,31.1 83.774,21.426Z" style="fill:rgb(0,154,84);"/>
        </g>
        <g transform="matrix(0.793582,0.608463,-0.608463,0.793582,60.0484,-31.286)">
            <path d="M83.774,21.426C94.237,17.079 101.759,20.036 107.048,30.226C97.057,33.905 89.489,31.1 83.774,21.426Z" style="fill:rgb(0,154,84);"/>
        </g>
        <g transform="matrix(0.384058,0.923309,-0.923309,0.384058,128.172,-22.9892)">
            <path d="M83.774,21.426C94.237,17.079 101.759,20.036 107.048,30.226C97.057,33.905 89.489,31.1 83.774,21.426Z" style="fill:rgb(0,154,84);"/>
        </g>
        <g transform="matrix(-0.0858832,0.996305,-0.996305,-0.0858832,160.859,1.86087)">
            <path d="M83.774,21.426C94.237,17.079 101.759,20.036 107.048,30.226C97.057,33.905 89.489,31.1 83.774,21.426Z" style="fill:rgb(0,154,84);"/>
        </g>
        <g transform="matrix(-0.322501,0.946569,-0.946569,-0.322501,177.819,39.1251)">
            <path d="M83.774,21.426C94.237,17.079 101.759,20.036 107.048,30.226C97.057,33.905 89.489,31.1 83.774,21.426Z" style="fill:rgb(0,154,84);"/>
        </g>
        <g transform="matrix(-0.721695,0.692211,-0.692211,-0.721695,182.077,78.4128)">
            <path d="M83.774,21.426C94.237,17.079 101.759,20.036 107.048,30.226C97.057,33.905 89.489,31.1 83.774,21.426Z" style="fill:rgb(0,154,84);"/>
        </g>
    </g>
    <g transform="matrix(20,0,0,20,0,0)">
        <path d="M84.289,134.712L84.141,134.735L79.365,145.961C76.458,146.139 73.542,146.139 70.635,145.961L65.859,134.735C61.476,134.064 57.18,132.913 53.049,131.303L43.3,138.636C40.693,137.338 38.168,135.88 35.739,134.271L37.216,122.162C33.756,119.389 30.611,116.244 27.838,112.784L15.729,114.261C14.12,111.832 12.662,109.307 11.364,106.7L18.697,96.951C17.087,92.82 15.936,88.524 15.265,84.141L4.039,79.365C3.861,76.458 3.861,73.542 4.039,70.635L15.265,65.859C15.936,61.476 17.087,57.18 18.697,53.049L11.364,43.3C12.662,40.693 14.12,38.168 15.729,35.739L27.838,37.216C30.611,33.756 33.756,30.611 37.216,27.838L35.739,15.729C38.168,14.12 40.693,12.662 43.3,11.364L53.049,18.697C57.18,17.087 61.476,15.936 65.859,15.265L70.635,4.039C73.542,3.861 76.458,3.861 79.365,4.039L84.141,15.265L84.154,15.267L80.994,22.159L84.919,28.346C81.719,27.667 78.401,27.311 75,27.311C48.68,27.311 27.311,48.68 27.311,75C27.311,101.32 48.68,122.689 75,122.689C78.015,122.689 80.966,122.409 83.826,121.872L81.564,129.543L84.289,134.712Z" style="fill:rgb(40,45,133);"/>
    </g>
    <g transform="matrix(20,0,0,20,0,0)">
        <path d="M40.276,103.167C41.62,98.328 45.969,94.735 51.182,94.527C51.456,94.535 51.732,94.539 52.008,94.539C61.521,94.539 69.931,89.783 74.99,82.523L75.01,82.523C80.069,89.784 88.479,94.539 97.992,94.539C98.268,94.539 98.544,94.535 98.818,94.527C104.031,94.735 108.38,98.328 109.724,103.167L40.276,103.167Z" style="fill:rgb(160,116,0);"/>
    </g>
    <g transform="matrix(20,0,0,20,0,0)">
        <path d="M73.388,83.086C71.938,84.83 70.3,86.413 68.505,87.803L68.478,87.803L68.478,58.352L43.671,58.352L43.671,53.442L73.388,53.442L73.388,83.086ZM106.329,58.352L81.522,58.352L81.522,87.803L81.495,87.803C79.7,86.413 78.062,84.83 76.612,83.086L76.612,53.442L106.329,53.442L106.329,58.352ZM73.388,50.218L43.671,50.218L43.671,45.308L68.478,45.308L68.478,30.469L73.388,30.469L73.388,50.218ZM81.522,45.308L106.329,45.308L106.329,50.218L76.612,50.218L76.612,30.469L81.522,30.469L81.522,45.308Z" style="fill:rgb(150,56,33);"/>
    </g>
</svg>
