<svg id="Layer_1" data-name="Layer 1" xmlns="http://www.w3.org/2000/svg" viewBox="0 0 4147.96 1288.2"><defs><style>.cls-1{isolation:isolate;}.cls-2{fill:#fff;}</style></defs><g class="cls-1"><path class="cls-2" d="M1813.63,808.41v102H1388.29V361.09h415.14v102H1514.64V582.4h255v98.88h-255V808.41Z"/><path class="cls-2" d="M2301,328.13v582.3H2184V861.77q-45.53,54.94-131.84,54.93-59.64,0-107.9-26.68t-75.73-76.12q-27.48-49.44-27.47-114.58t27.47-114.57q27.46-49.44,75.73-76.12T2052.19,482q80.82,0,126.35,51V328.13ZM2150.29,784.47q30.6-31.79,30.6-85.15t-30.6-85.14q-30.61-31.78-76.91-31.78-47.09,0-77.69,31.78t-30.61,85.14q0,53.38,30.61,85.15t77.69,31.78Q2119.67,816.25,2150.29,784.47Z"/><path class="cls-2" d="M2373.15,409.75Q2352,390.15,2352,361.09t21.19-48.65q21.18-19.6,54.93-19.62T2483,311.65q21.19,18.84,21.19,47.09,0,30.6-21.19,50.62t-54.93,20Q2394.33,429.37,2373.15,409.75Zm-6.28,78.48h122.42v422.2H2366.87Z"/><path class="cls-2" d="M2620.34,903.75q-50.22-12.94-80-32.56l40.81-87.9q28.24,18.08,68.27,29.43a286,286,0,0,0,78.48,11.38q77.68,0,77.69-38.45,0-18-21.19-25.9t-65.14-13.34q-51.79-7.83-85.54-18a132.53,132.53,0,0,1-58.46-36.1q-24.72-25.89-24.72-73.77,0-40,23.15-71t67.49-48.26Q2685.47,482,2745.9,482a411.09,411.09,0,0,1,89.07,9.81q44.34,9.81,73.38,27.07l-40.81,87.11q-55.73-31.38-121.64-31.39-39.24,0-58.85,11t-19.62,28.26q0,19.62,21.19,27.46t67.49,14.91q51.79,8.65,84.75,18.44a127.5,127.5,0,0,1,57.29,35.71q24.32,25.91,24.33,72.2,0,39.25-23.55,69.84t-68.66,47.48q-45.14,16.86-107.12,16.87A409.77,409.77,0,0,1,2620.34,903.75Z"/><path class="cls-2" d="M3319.16,509q48.27,27.08,75.73,76.12t27.47,114.18q0,65.16-27.47,114.19t-75.73,76.12Q3270.91,916.71,3212,916.7q-80.84,0-127.13-51v197H2962.49V488.23h116.93v48.65Q3124.93,482,3212,482,3270.9,482,3319.16,509Zm-51,275.45q30.21-31.79,30.22-85.15t-30.22-85.14q-30.21-31.78-77.29-31.78t-77.3,31.78q-30.22,31.79-30.22,85.14t30.22,85.15q30.2,31.78,77.3,31.78T3268.15,784.47Z"/><path class="cls-2" d="M3569.49,888.84q-53-27.84-82.79-77.29t-29.82-112.23q0-62.76,29.82-112.22t82.79-77.29q53-27.85,119.68-27.86t119.28,27.86q52.58,27.85,82.4,77.29t29.82,112.22q0,62.8-29.82,112.23t-82.4,77.29q-52.57,27.87-119.28,27.86T3569.49,888.84Zm197-104.37q30.2-31.79,30.21-85.15t-30.21-85.14q-30.22-31.78-77.3-31.78t-77.69,31.78q-30.61,31.79-30.61,85.14t30.61,85.15q30.6,31.78,77.69,31.78T3766.47,784.47Z"/></g><path class="cls-2" d="M155.49,471.66S232.17,488,297.29,615.84C358.72,736.45,337.56,882.29,565,908.23,768.84,942,947.29,819.05,947.29,819.05s-196.81,76.88-348.14-46.71C439.08,641.46,450.44,432.26,155.49,471.66Z"/><path class="cls-2" d="M1212,461.28c-26.84,287.25-268.61,512.17-563,512.17A564.77,564.77,0,0,1,471.41,945c32.66,31.21,83.18,62.2,142.79,85.45A103.18,103.18,0,0,1,635.6,1010c15.25-10.8,32.5-16.51,49.87-16.51h0A74.58,74.58,0,0,1,726,1005.31c20.44,13.12,33.64,35.32,36.73,61.44a470.4,470.4,0,0,0,88.49,1,112.36,112.36,0,0,1,12.58-31l0-.06,0-.07c17.9-29.95,48.37-48.55,79.52-48.55h0a75,75,0,0,1,41.86,12.63l.07,0,.06.05a78.17,78.17,0,0,1,20.35,20.24c137.08-74.63,235.91-227.47,235.91-398.16A451.31,451.31,0,0,0,1212,461.28Z"/><path class="cls-2" d="M943.41,1024a47.71,47.71,0,0,1,26.83,8.07c11.08,7.5,18.56,19,22,32.47,4.53,18.19,1.62,39.83-9.7,58.75-13.5,22.58-35.39,35.4-56.33,35.4a47.81,47.81,0,0,1-26.83-8.07c-24-16-30.64-51.18-17-82a86.63,86.63,0,0,1,4.75-9.24c13.49-22.57,35.39-35.39,56.32-35.39"/><path class="cls-2" d="M685.64,1024a47.74,47.74,0,0,1,26.84,8.07c11.08,7.5,18.55,19,21.95,32.47,4.53,18.19,1.62,39.83-9.7,58.75-13.5,22.58-35.39,35.4-56.33,35.4a47.81,47.81,0,0,1-26.83-8.07c-24-16-30.63-51.18-17-82a84.74,84.74,0,0,1,4.74-9.24c13.49-22.57,35.39-35.39,56.32-35.39"/><path class="cls-2" d="M547.34,572.55l-16.71,7.75C548.8,623.63,563.76,690,619.31,682.71,781.07,877.53,1071.62,796.38,1141.75,533c0,0-45.54,59.55-101.86,65.34-8.33,21.25-38.67,60.22-63.27,81.79-89.73,81.7-236,75.29-321.16-15,34.46-37.91,3.38-97.61-11.66-137.32l-16.71,7.75-27.63-68.28c-2.82-7-10.3-10.24-16.7-7.28s-9.29,11-6.46,18l27.63,68.28-33.42,15.5-27.63-68.28c-2.83-7-10.31-10.25-16.71-7.29s-9.29,11-6.46,18Z"/><path class="cls-2" d="M1113,400l16.71-7.75c-18.17-43.33-33.13-109.71-88.68-102.41C879.31,95,588.75,176.15,518.63,439.52c0,0,38.68-42.6,95-48.39,7.93-33.11,45.53-77.17,70.13-98.74,89.73-81.7,236-75.29,321.15,15-34.45,37.91-3.37,97.61,11.66,137.32l16.71-7.75,27.63,68.28c2.83,7,10.31,10.25,16.71,7.28s9.29-11,6.46-18l-27.63-68.28,33.42-15.49L1117.5,479c2.83,7,10.31,10.25,16.7,7.29s9.29-11,6.47-18Z"/></svg>