<?xml version="1.0" encoding="UTF-8"?>
<svg id="Layer_1" xmlns="http://www.w3.org/2000/svg" version="1.1" viewBox="0 0 992 302">
  <!-- Generator: Adobe Illustrator 29.6.1, SVG Export Plug-In . SVG Version: 2.1.1 Build 9)  -->
  <defs>
    <style>
      .st0 {
        fill: #fff;
      }
    </style>
  </defs>
  <polygon class="st0" points="373.58 116.73 352.35 116.73 352.35 218.05 373.58 218.05 373.58 176.97 420.13 176.97 420.13 218.05 440.67 218.05 440.67 116.73 420.13 116.73 420.13 157.81 373.58 157.81 373.58 116.73"/>
  <path class="st0" d="M536.51,174.92c0,16.43-8.22,25.33-23.28,25.33s-23.28-8.9-23.28-26.01v-57.51h-20.54v58.19c0,28.75,15.75,45.18,43.81,45.18s43.81-16.43,43.81-45.87v-57.51h-20.54v58.19h.02Z"/>
  <polygon class="st0" points="735.04 116.73 711.77 186.56 689.18 116.73 667.27 116.73 702.87 218.05 719.98 218.05 743.26 151.64 765.85 218.05 783.65 218.05 818.56 116.73 797.34 116.73 774.75 186.56 751.47 116.73 735.04 116.73"/>
  <polygon class="st0" points="893.19 155.75 855.53 155.75 855.53 135.21 910.3 135.21 910.3 116.73 835 116.73 835 218.05 912.35 218.05 912.35 199.57 855.53 199.57 855.53 174.24 893.19 174.24 893.19 155.75"/>
  <rect class="st0" x="937" y="116.73" width="20.54" height="101.32"/>
  <path class="st0" d="M630.3,116.73l-.68-.68h-17.8l-44.5,102.01h21.22l8.9-19.85.68-1.37h45.87l8.9,21.22h21.91l-44.5-101.32h0ZM604.29,178.34l.68-2.05,15.75-34.23,14.38,34.23.68,2.05h-31.49Z"/>
  <path class="st0" d="M149.71,207.78s.68-.68,0-.68c-31.49-68.46-74.62-121.17-74.62-121.17,0,0-23.28,21.91-21.91,44.5.68,17.11,13.69,26.7,13.69,26.7,20.54,19.85,69.83,45.18,81.47,50.66h1.37"/>
  <path class="st0" d="M141.5,224.9c0-.68-1.37-.68-1.37-.68l-82.15,2.74c8.9,15.75,23.96,28.07,39.71,24.65,10.95-2.74,35.6-19.85,43.13-25.33,1.37-1.37.68-1.37.68-1.37"/>
  <path class="st0" d="M142.87,217.37c.68-.68,0-1.37,0-1.37-36.28-24.65-106.11-61.61-106.11-61.61-6.16,19.85,2.05,35.6,2.05,35.6,8.9,19.17,26.01,24.65,26.01,24.65,7.53,3.42,15.75,3.42,15.75,3.42h61.61c.68,0,.68-.68.68-.68"/>
  <path class="st0" d="M148.34,50.32c-3.42,0-13.01,2.74-13.01,2.74-21.91,5.48-26.7,25.33-26.7,25.33-4.11,12.32,0,26.01,0,26.01,7.53,32.18,43.13,85.57,50.66,96.53l.68.68c.68,0,.68-.68.68-.68,12.32-119.8-12.32-150.61-12.32-150.61"/>
  <path class="st0" d="M175.73,200.94c.68,0,1.37-.68,1.37-.68,8.22-11.64,43.13-64.35,50.66-96.53,0,0,4.11-15.75,0-26.01,0,0-5.48-19.85-27.38-25.33,0,0-6.16-1.37-13.01-2.74,0,0-24.65,31.49-12.32,149.93,0,1.37.68,1.37.68,1.37"/>
  <path class="st0" d="M194.9,224.21s-.68,0-.68.68v1.37c8.22,5.48,31.49,22.59,43.13,25.33,0,0,21.22,7.53,39.71-24.65l-82.15-2.74h-.01Z"/>
  <path class="st0" d="M299.64,153.7s-69.83,37.65-106.11,62.3c0,0-.68.68-.68,1.37,0,0,0,.68.68.68h62.98s6.16,0,14.38-3.42c0,0,17.11-5.48,26.7-25.33,0-.68,8.22-16.43,2.05-35.6"/>
  <path class="st0" d="M186.68,207.78s.68.68,1.37,0c11.64-6.16,60.93-30.81,81.47-50.66,0,0,13.01-10.27,13.69-26.7,1.37-23.28-21.91-44.5-21.91-44.5,0,0-43.13,51.34-74.62,120.49,0,0-.68.68,0,1.37"/>
</svg>