<?xml version="1.0" encoding="UTF-8" standalone="no"?>
<!-- Created with Inkscape (http://www.inkscape.org/) -->

<svg
   xmlns:dc="http://purl.org/dc/elements/1.1/"
   xmlns:cc="http://creativecommons.org/ns#"
   xmlns:rdf="http://www.w3.org/1999/02/22-rdf-syntax-ns#"
   xmlns:svg="http://www.w3.org/2000/svg"
   xmlns="http://www.w3.org/2000/svg"
   xmlns:sodipodi="http://sodipodi.sourceforge.net/DTD/sodipodi-0.dtd"
   xmlns:inkscape="http://www.inkscape.org/namespaces/inkscape"
   id="svg2996"
   version="1.1"
   inkscape:version="0.48.0 r9654"
   width="300"
   height="292"
   sodipodi:docname="Seal of University of Asia and the Pacific.svg">
  <title
     id="title6413">Seal of University of Asia and the Pacific</title>
  <metadata
     id="metadata3002">
    <rdf:RDF>
      <cc:Work
         rdf:about="">
        <dc:format>image/svg+xml</dc:format>
        <dc:type
           rdf:resource="http://purl.org/dc/dcmitype/StillImage" />
        <dc:title>Seal of University of Asia and the Pacific</dc:title>
        <dc:description>Seal of University of Asia and the Pacific</dc:description>
        <dc:date>21 May 2011</dc:date>
        <dc:creator>
          <cc:Agent>
            <dc:title>Philtro (en.wikipedia.org)</dc:title>
          </cc:Agent>
        </dc:creator>
        <cc:license
           rdf:resource="http://creativecommons.org/licenses/by-nc-sa/3.0/" />
      </cc:Work>
      <cc:License
         rdf:about="http://creativecommons.org/licenses/by-nc-sa/3.0/">
        <cc:permits
           rdf:resource="http://creativecommons.org/ns#Reproduction" />
        <cc:permits
           rdf:resource="http://creativecommons.org/ns#Distribution" />
        <cc:requires
           rdf:resource="http://creativecommons.org/ns#Notice" />
        <cc:requires
           rdf:resource="http://creativecommons.org/ns#Attribution" />
        <cc:prohibits
           rdf:resource="http://creativecommons.org/ns#CommercialUse" />
        <cc:permits
           rdf:resource="http://creativecommons.org/ns#DerivativeWorks" />
        <cc:requires
           rdf:resource="http://creativecommons.org/ns#ShareAlike" />
      </cc:License>
    </rdf:RDF>
  </metadata>
  <defs
     id="defs3000" />
  <sodipodi:namedview
     pagecolor="#ffffff"
     bordercolor="#666666"
     borderopacity="1"
     objecttolerance="10"
     gridtolerance="10"
     guidetolerance="10"
     inkscape:pageopacity="0"
     inkscape:pageshadow="2"
     inkscape:window-width="1280"
     inkscape:window-height="750"
     id="namedview2998"
     showgrid="false"
     showguides="true"
     inkscape:guide-bbox="true"
     inkscape:zoom="1.5603138"
     inkscape:cx="208.65097"
     inkscape:cy="163.61784"
     inkscape:window-x="-8"
     inkscape:window-y="-8"
     inkscape:window-maximized="1"
     inkscape:current-layer="svg2996" />
  <g
     id="g6227"
     transform="matrix(1.0110129,0,0,1.0109318,-10.92516,-18.554759)">
    <path
       sodipodi:nodetypes="ccccc"
       inkscape:connector-curvature="0"
       id="rect3006"
       d="m 62.166985,19.087774 190.346325,0 0,166.246596 c 0.73421,98.69443 -190.220836,89.31257 -190.346325,0 z"
       style="opacity:0.98999999;fill:#f0c324;fill-opacity:1;fill-rule:nonzero;stroke:#4a4841;stroke-width:1.48372018;stroke-linecap:round;stroke-linejoin:miter;stroke-miterlimit:4;stroke-opacity:1;stroke-dashoffset:0" />
    <g
       id="g3978">
      <path
         sodipodi:nodetypes="ccccc"
         inkscape:connector-curvature="0"
         id="path3009"
         d="m 88.88519,45.087776 138.43426,0 0,129.975804 c 0.53397,77.16181 -138.343,69.82684 -138.43426,0 z"
         style="opacity:0.98999999;fill:#d33829;fill-opacity:1;fill-rule:nonzero;stroke:#4a4841;stroke-width:1.48372018;stroke-linecap:round;stroke-linejoin:miter;stroke-miterlimit:4;stroke-opacity:1;stroke-dashoffset:0" />
      <g
         id="g3923"
         transform="translate(-220,0)">
        <path
           sodipodi:nodetypes="ccccc"
           inkscape:connector-curvature="0"
           id="rect3843"
           d="m 346.25665,82.613861 c 0.0801,-3.231166 3.07097,-3.151097 3.20449,0 l 0,74.266709 c 0.0339,3.50998 -3.17054,3.83047 -3.20449,0 z"
           style="opacity:0.98999999;fill:#f0c224;fill-opacity:1;fill-rule:nonzero;stroke:#4a4841;stroke-width:0.79131746;stroke-linecap:round;stroke-linejoin:round;stroke-miterlimit:4;stroke-opacity:1;stroke-dashoffset:0" />
        <path
           style="opacity:0.98999999;fill:#f0c224;fill-opacity:1;fill-rule:nonzero;stroke:#4a4841;stroke-width:0.7913174;stroke-linecap:round;stroke-linejoin:round;stroke-miterlimit:4;stroke-opacity:1;stroke-dashoffset:0"
           d="m 379.61575,70.613859 c 0.0801,-3.513478 3.07097,-3.426414 3.20449,0 l 0,80.755501 c 0.0339,3.81665 -3.17054,4.16515 -3.20449,0 z"
           id="path3846"
           inkscape:connector-curvature="0"
           sodipodi:nodetypes="ccccc" />
        <path
           sodipodi:nodetypes="ccccc"
           inkscape:connector-curvature="0"
           id="path3848"
           d="m 412.6544,82.613859 c 0.0801,-3.177392 3.07097,-3.098656 3.20449,0 l 0,73.030741 c 0.0339,3.45157 -3.17054,3.76673 -3.20449,0 z"
           style="opacity:0.98999999;fill:#f0c224;fill-opacity:1;fill-rule:nonzero;stroke:#4a4841;stroke-width:0.7913174;stroke-linecap:round;stroke-linejoin:round;stroke-miterlimit:4;stroke-opacity:1;stroke-dashoffset:0" />
        <path
           sodipodi:nodetypes="cccccccccccccc"
           inkscape:connector-curvature="0"
           id="path3797"
           d="m 341.925,174.01896 c -4.82676,-13.92844 -20.67179,-21.43068 -28.03363,-23.54736 11.33069,2.05729 22.17114,4.84995 34.68854,5.12718 l 0,-2.48348 c -0.13613,-0.93836 0.9816,-1.27508 2.32325,-1.3619 l 24.67452,-1.44202 6.88964,-5.60785 27.23811,0 5.76807,-5.12717 19.98797,0.16064 c 0.12825,-6.59582 6.59855,-5.62634 6.22274,0 l 0.0661,2.56317 c -1.79238,10.59435 -15.81874,22.65517 -22.58601,31.71879 -8.60906,3.74701 -59.9971,5.01983 -77.2393,0 z"
           style="fill:#f0c224;fill-opacity:1;stroke:#4a4841;stroke-width:0.98914677px;stroke-linecap:butt;stroke-linejoin:miter;stroke-opacity:1" />
        <path
           sodipodi:nodetypes="csc"
           inkscape:connector-curvature="0"
           id="path3850"
           d="m 332.79783,82.536551 c 5.47396,-0.959968 11.30734,-3.670807 15.16792,-4.302878 8.02703,-1.314219 4.89048,12.860828 -15.16792,4.302878 z"
           style="fill:#f0c224;fill-opacity:1;stroke:#4a4841;stroke-width:0.79131746;stroke-linecap:butt;stroke-linejoin:miter;stroke-miterlimit:4;stroke-opacity:1;stroke-dasharray:none" />
        <path
           sodipodi:nodetypes="cssc"
           inkscape:connector-curvature="0"
           id="path3850-3"
           d="m 364.98601,69.528944 c 10.94709,-0.07822 10.09717,-2.952443 13.80601,-4.661828 5.23407,-2.41235 7.07307,4.342435 2.33336,7.236468 -2.86217,1.74762 -9.06789,0.655834 -16.13937,-2.57464 z"
           style="fill:#f0c224;fill-opacity:1;stroke:#4a4841;stroke-width:0.79131746;stroke-linecap:butt;stroke-linejoin:miter;stroke-miterlimit:4;stroke-opacity:1;stroke-dasharray:none" />
        <path
           sodipodi:nodetypes="csc"
           inkscape:connector-curvature="0"
           id="path3850-2"
           d="m 403.84037,81.507254 c 3.56903,-0.388961 6.79982,-3.362928 9.41388,-4.463102 7.44932,-3.135178 7.79427,10.338169 -9.41388,4.463102 z"
           style="fill:#f0c224;fill-opacity:1;stroke:#4a4841;stroke-width:0.79131746;stroke-linecap:butt;stroke-linejoin:miter;stroke-miterlimit:4;stroke-opacity:1;stroke-dasharray:none" />
        <path
           sodipodi:nodetypes="ccccc"
           inkscape:connector-curvature="0"
           id="rect3799"
           d="m 332.62079,119.38811 19.88461,0 c -5.28686,9.23126 0.38511,25.12992 9.83978,28.26555 l -31.72439,-1.3591 c -13.79119,-4.11051 -12.13742,-27.21722 2,-26.90645 z"
           style="opacity:0.98999999;fill:#f0c224;fill-opacity:1;fill-rule:nonzero;stroke:#4a4841;stroke-width:0.79131746;stroke-linecap:round;stroke-linejoin:miter;stroke-miterlimit:4;stroke-opacity:1;stroke-dasharray:none;stroke-dashoffset:0" />
        <path
           sodipodi:nodetypes="ccccc"
           inkscape:connector-curvature="0"
           id="rect3799-1"
           d="m 338.11478,115.41585 13.88461,0 c -0.47293,-6.56537 2.70736,-15.912334 9.83978,-16.99485 l -25.72439,0 c -12.34917,-0.127572 -12.13742,17.19113 2,16.99485 z"
           style="opacity:0.98999999;fill:#f0c224;fill-opacity:1;fill-rule:nonzero;stroke:#4a4841;stroke-width:0.79131746;stroke-linecap:round;stroke-linejoin:miter;stroke-miterlimit:4;stroke-opacity:1;stroke-dasharray:none;stroke-dashoffset:0" />
        <path
           sodipodi:nodetypes="ccccc"
           inkscape:connector-curvature="0"
           id="rect3820"
           d="m 368.52222,105.60883 38.13896,0 c -17.96176,17.9354 -2.44121,30.42194 0,32.04484 l -38.13896,0 c -16.43271,0.35484 -22.69793,-30.04594 0,-32.04484 z"
           style="opacity:0.98999999;fill:#f0c224;fill-opacity:1;fill-rule:nonzero;stroke:#4a4841;stroke-width:0.79131746;stroke-linecap:round;stroke-linejoin:miter;stroke-miterlimit:4;stroke-opacity:1;stroke-dashoffset:0" />
        <path
           sodipodi:nodetypes="ccccc"
           inkscape:connector-curvature="0"
           id="rect3820-4"
           d="m 375.03001,79.330531 22.13896,0 c -9.79033,9.766888 -2.44121,22.817289 0,24.034509 l -22.13896,0 c -14.38203,1.01841 -17.13083,-23.256352 0,-24.034509 z"
           style="opacity:0.98999999;fill:#f0c224;fill-opacity:1;fill-rule:nonzero;stroke:#4a4841;stroke-width:0.79131752;stroke-linecap:round;stroke-linejoin:miter;stroke-miterlimit:4;stroke-opacity:1;stroke-dashoffset:0" />
        <path
           sodipodi:nodetypes="cccc"
           inkscape:connector-curvature="0"
           id="path3841"
           d="m 403.93736,130.76403 c 8.77751,-2.23237 18.70247,-3.82581 30.84035,1.92269 -8.87789,-10.58008 -5.12673,-26.1899 2.56359,-33.967526 -13.91766,10.066446 -28.79874,24.698306 -33.40394,32.044836 z"
           style="fill:#f0c224;fill-opacity:1;stroke:#4a4841;stroke-width:0.98914677px;stroke-linecap:butt;stroke-linejoin:miter;stroke-opacity:1" />
        <path
           sodipodi:nodetypes="ccccccccccccccccc"
           inkscape:connector-curvature="0"
           id="path3908"
           d="m 339.1791,76.810503 c -3.35462,-2.618328 -4.48521,-5.236118 -10.49253,-7.854472 l -1.17919,12.61192 c -0.51641,-4.31684 0.78679,-8.633679 -1.66629,-12.950518 -3.79744,2.117588 -5.81824,5.656483 -8.66576,8.534011 2.10867,-3.610542 5.30374,-6.31574 6.25223,-10.893093 -3.30362,-0.839443 -7.87304,-0.413093 -11.8108,-0.618402 4.31684,-0.502022 7.91717,-0.28753 12.95052,-1.506066 -1.95973,-4.010154 -6.61517,-4.174929 -8.53401,-9.627101 3.37496,4.601247 6.52219,4.978818 10.17208,7.213574 1.1503,-2.934606 0.94673,-7.900009 1.33942,-11.971023 l 1.18561,11.989172 c 2.13804,-0.196533 1.10806,-1.481467 10.10778,-8.053338 -6.66656,6.701995 -6.30029,6.519066 -7.69425,10.492533 l 12.4517,1.659859 c -4.38785,0.07036 -9.49463,-0.03902 -13.11075,0.224272 z"
           inkscape:transform-center-y="-0.94816724"
           inkscape:transform-center-x="0.41594859"
           style="opacity:0.98999999;fill:#f0c224;fill-opacity:1;fill-rule:nonzero;stroke:#4a4841;stroke-width:0.69240266;stroke-linecap:round;stroke-linejoin:miter;stroke-miterlimit:4;stroke-opacity:1;stroke-dasharray:none;stroke-dashoffset:0" />
      </g>
      <g
         id="g3902"
         transform="translate(-220,0)">
        <path
           style="font-size:medium;font-style:normal;font-variant:normal;font-weight:normal;font-stretch:normal;text-indent:0;text-align:start;text-decoration:none;line-height:normal;letter-spacing:normal;word-spacing:normal;text-transform:none;direction:ltr;block-progression:tb;writing-mode:lr-tb;text-anchor:start;baseline-shift:baseline;color:#000000;fill:#f0c324;fill-opacity:1;stroke:#4a4841;stroke-width:0.98914677px;stroke-opacity:1;marker:none;visibility:visible;display:inline;overflow:visible;enable-background:accumulate;font-family:Sans;-inkscape-font-specification:Sans"
           d="m 324.75,179.91365 c -8.19288,0.28493 -9.43103,2.22298 -14.40742,5.76933 0.37229,3.03007 2.57505,8.70221 3.67955,10.84375 9.80284,-6.54919 14.49934,-6.0802 24.19662,-0.63638 13.81387,7.75478 19.05059,13.04209 36.125,13.20457 12.10481,0.31556 23.87744,-8.15152 33.68745,-11.58763 9.21926,-3.18359 16.79061,-4.17169 34.0625,1.21886 1.084,-2.51748 2.72306,-6.28538 3.80063,-11.25795 -20.48079,-10.16854 -29.62324,-2.60614 -38.17558,-0.42386 -8.41955,2.14839 -19.82863,8.64904 -33.3125,8.97046 -13.03176,1.07137 -21.89924,-4.06835 -33.8437,-10.70263 -3.0281,-1.71272 -10.26332,-5.68345 -15.8125,-5.39852 z"
           id="path3019"
           inkscape:connector-curvature="0"
           sodipodi:nodetypes="cccsccccscccc" />
        <path
           sodipodi:nodetypes="cccsccccscccc"
           inkscape:connector-curvature="0"
           id="path3011"
           d="m 326.75,160.875 c -5.54918,0.28493 -10.87024,4.06275 -17.6091,8.25 l 0,10.84375 c 13.24766,-8.23154 23.63928,-6.18599 33.07785,-3.4375 1.03348,0.30095 25.78281,10.32389 34.125,10.40625 12.10481,0.31556 23.87744,-5.03275 33.68745,-8.46886 9.21926,-3.18359 19.74346,-4.17169 37.01535,1.21886 l -3e-5,-10.9375 c -17.43653,-5.44193 -28.69853,-4.19878 -37.32777,-2.34375 -9.62123,2.06828 -17.98605,9.6905 -33.3125,9.53125 -12.39086,-0.85133 -23.82193,-8.07396 -33.8437,-11.66398 -5.11101,-1.79283 -10.26332,-3.68345 -15.8125,-3.39852 z"
           style="font-size:medium;font-style:normal;font-variant:normal;font-weight:normal;font-stretch:normal;text-indent:0;text-align:start;text-decoration:none;line-height:normal;letter-spacing:normal;word-spacing:normal;text-transform:none;direction:ltr;block-progression:tb;writing-mode:lr-tb;text-anchor:start;baseline-shift:baseline;color:#000000;fill:#f0c324;fill-opacity:1;stroke:#4a4841;stroke-width:0.98914677px;stroke-opacity:1;marker:none;visibility:visible;display:inline;overflow:visible;enable-background:accumulate;font-family:Sans;-inkscape-font-specification:Sans" />
        <path
           sodipodi:nodetypes="sscscccsccs"
           inkscape:connector-curvature="0"
           d="m 430.6017,204.72615 c -11.56034,-1.62199 -18.00155,2.38563 -25.13295,5.13693 -9.50853,3.66841 -19.77616,9.44436 -32.5,8.84827 -16.09773,-0.9579 -22.15066,-6.70818 -26.8125,-9.83635 -5.83206,-3.91341 -15.99033,-6.96213 -26.84773,-4.25849 1.05187,1.68583 8.21153,8.84721 11.66474,10.84258 10.1856,-0.58495 17.09025,9.05693 41.93299,10.65002 12.97561,0.60789 23.41979,-3.48841 32.90625,-7.1483 9.48646,-3.65989 13.0011,-4.93614 21.42503,-2.80456 3.72707,-2.44062 7.68993,-6.29303 9.946,-9.5784 -2.39603,-0.88656 -5.00445,-1.63038 -6.58183,-1.8517 z"
           style="font-size:medium;font-style:normal;font-variant:normal;font-weight:normal;font-stretch:normal;text-indent:0;text-align:start;text-decoration:none;line-height:normal;letter-spacing:normal;word-spacing:normal;text-transform:none;direction:ltr;block-progression:tb;writing-mode:lr-tb;text-anchor:start;baseline-shift:baseline;color:#000000;fill:#f0c324;fill-opacity:1;stroke:#4a4841;stroke-width:0.98914677px;stroke-opacity:1;marker:none;visibility:visible;display:inline;overflow:visible;enable-background:accumulate;font-family:Sans;-inkscape-font-specification:Sans"
           id="path3906" />
      </g>
    </g>
    <path
       transform="matrix(0.59615385,0,0,0.59615385,74.918378,112.22442)"
       style="opacity:0.98999999;fill:#4a4841;fill-opacity:1;fill-rule:nonzero;stroke:none"
       d="m 23.565486,177.99661 c 0,3.25372 -2.637657,5.89137 -5.891372,5.89137 -3.253715,0 -5.891371,-2.63765 -5.891371,-5.89137 0,-3.25371 2.637656,-5.89137 5.891371,-5.89137 3.253715,0 5.891372,2.63766 5.891372,5.89137 z"
       id="path5636"
       inkscape:connector-curvature="0" />
    <g
       transform="matrix(0,-1,1,0,0,0)"
       style="font-size:24px;font-style:normal;font-variant:normal;font-weight:normal;font-stretch:normal;text-align:end;line-height:89.99999762%;letter-spacing:0px;word-spacing:0px;writing-mode:lr-tb;text-anchor:end;fill:#4a4841;fill-opacity:1;stroke:none;font-family:Times New Roman;-inkscape-font-specification:'Times New Roman,'"
       id="text4475">
      <path
         d="m -197.08914,69.182723 -0.11661,-0.417621 5.41779,-1.512675 0.1166,0.417622 -0.57564,0.160721 c -0.60198,0.168094 -0.99437,0.549379 -1.17716,1.143856 -0.0929,0.277404 -0.0206,0.841242 0.21677,1.691517 l 1.73328,6.207883 c 0.42858,1.535049 0.60867,2.768377 0.54029,3.699987 -0.0684,0.931623 -0.46388,1.824781 -1.18642,2.679476 -0.72256,0.854703 -1.85136,1.496348 -3.38639,1.924937 -1.67049,0.466409 -3.01929,0.530716 -4.0464,0.19292 -1.02711,-0.337793 -1.85782,-0.945373 -2.49213,-1.822743 -0.42777,-0.602465 -0.89903,-1.825475 -1.41375,-3.669033 l -1.67025,-5.982143 c -0.26262,-0.940574 -0.56469,-1.521358 -0.90623,-1.742354 -0.34154,-0.220966 -0.80201,-0.250571 -1.38142,-0.08881 l -0.57564,0.160722 -0.1166,-0.417622 6.61422,-1.846723 0.1166,0.417621 -0.58693,0.163873 c -0.63207,0.176495 -1.02788,0.501956 -1.18742,0.976383 -0.11248,0.323428 -0.049,0.914042 0.19054,1.771844 l 1.86248,6.670653 c 0.16597,0.594459 0.41066,1.260212 0.73406,1.997263 0.3234,0.737061 0.68795,1.280125 1.09365,1.629194 0.40568,0.349076 0.91641,0.587711 1.53216,0.715905 0.61575,0.1282 1.31491,0.08305 2.09748,-0.13545 1.00078,-0.279422 1.83529,-0.747649 2.50354,-1.404684 0.66823,-0.657027 1.05213,-1.366478 1.15171,-2.128356 0.0996,-0.761864 -0.0776,-1.955468 -0.53135,-3.580813 l -1.73012,-6.196596 c -0.26683,-0.955621 -0.5392,-1.524422 -0.81711,-1.706404 -0.38592,-0.249132 -0.86857,-0.292821 -1.44796,-0.131067 z"
         style="letter-spacing:-0.16px;fill:#4a4841"
         id="path6351"
         inkscape:connector-curvature="0" />
      <path
         d="m -187.09256,68.308655 4.3125,0 9.71485,11.917969 0,-9.164063 c -2e-5,-0.976548 -0.10939,-1.585923 -0.32813,-1.828125 -0.28907,-0.32811 -0.7461,-0.492172 -1.37109,-0.492187 l -0.55078,0 0,-0.433594 5.53125,0 0,0.433594 -0.5625,0 c -0.67189,1.5e-5 -1.14846,0.20314 -1.42969,0.609375 -0.17189,0.250014 -0.25783,0.820326 -0.25781,1.710937 l 0,13.394531 -0.42188,0 -10.47656,-12.796875 0,9.785157 c 0,0.976564 0.10547,1.585938 0.31641,1.828125 0.29687,0.328125 0.7539,0.492187 1.37109,0.492187 l 0.5625,0 0,0.433594 -5.53125,0 0,-0.433594 0.55078,0 c 0.67969,0 1.16016,-0.203124 1.44141,-0.609375 0.17187,-0.249999 0.25781,-0.820311 0.25781,-1.710937 l 0,-11.050782 c -0.46094,-0.539048 -0.81055,-0.894516 -1.04883,-1.066406 -0.23828,-0.17186 -0.58789,-0.332016 -1.04883,-0.480469 -0.22656,-0.0703 -0.57031,-0.105453 -1.03125,-0.105468 z"
         style="letter-spacing:0.99000001px;fill:#4a4841"
         id="path6353"
         inkscape:connector-curvature="0" />
      <path
         d="m -161.03615,83.765686 0,0.433594 -6.80859,0 0,-0.433594 0.5625,0 c 0.65625,0 1.13281,-0.191406 1.42969,-0.574219 0.18749,-0.249998 0.28124,-0.85156 0.28125,-1.804687 l 0,-10.265625 c -1e-5,-0.804674 -0.0508,-1.335923 -0.15235,-1.59375 -0.0781,-0.195298 -0.23828,-0.363266 -0.48047,-0.503906 -0.34375,-0.187485 -0.70312,-0.281235 -1.07812,-0.28125 l -0.5625,0 0,-0.433594 6.80859,0 0,0.433594 -0.57422,0 c -0.64844,1.5e-5 -1.1211,0.191421 -1.41797,0.574218 -0.19531,0.250015 -0.29297,0.851577 -0.29296,1.804688 l 0,10.265625 c -1e-5,0.804689 0.0508,1.335939 0.15234,1.59375 0.0781,0.195313 0.24218,0.363282 0.49219,0.503906 0.33593,0.187501 0.6914,0.28125 1.0664,0.28125 z"
         style="letter-spacing:0.79000002px;fill:#4a4841;fill-opacity:1"
         id="path6355"
         inkscape:connector-curvature="0" />
      <path
         d="m -142.59771,68.308655 0,0.433594 c -0.56252,0.101577 -0.9883,0.281265 -1.27735,0.539062 -0.41408,0.382827 -0.78126,0.968764 -1.10156,1.757813 l -5.54297,13.523437 -0.43359,0 -5.95313,-13.699219 c -0.30469,-0.703111 -0.51953,-1.132798 -0.64453,-1.289062 -0.19531,-0.242173 -0.43555,-0.431626 -0.7207,-0.56836 -0.28516,-0.136703 -0.66992,-0.224594 -1.1543,-0.263671 l 0,-0.433594 6.49219,0 0,0.433594 c -0.73438,0.07033 -1.21094,0.195327 -1.42969,0.375 -0.21875,0.179702 -0.32813,0.41017 -0.32812,0.691406 -1e-5,0.390639 0.17968,1.000013 0.53906,1.828125 l 4.04297,9.316406 3.75,-9.199219 c 0.36717,-0.906236 0.55077,-1.535142 0.55078,-1.886718 -1e-5,-0.226548 -0.1133,-0.443345 -0.33984,-0.650391 -0.22658,-0.207016 -0.60939,-0.3535 -1.14844,-0.439453 -0.0391,-0.0078 -0.10548,-0.01952 -0.19922,-0.03516 l 0,-0.433594 z"
         style="letter-spacing:0.57000005px;fill:#4a4841;fill-opacity:1"
         id="path6357"
         inkscape:connector-curvature="0" />
      <path
         d="m -136.7074,69.175842 0,6.28125 3.49219,0 c 0.90624,9e-6 1.5117,-0.13671 1.8164,-0.410156 0.40624,-0.359365 0.6328,-0.992177 0.67969,-1.898437 l 0.43359,0 0,5.53125 -0.43359,0 c -0.10939,-0.773432 -0.21876,-1.269525 -0.32813,-1.488282 -0.14063,-0.27343 -0.3711,-0.488273 -0.6914,-0.644531 -0.32032,-0.156242 -0.81251,-0.234367 -1.47656,-0.234375 l -3.49219,0 0,5.238281 c -1e-5,0.703127 0.0312,1.130861 0.0937,1.283203 0.0625,0.152345 0.17187,0.273439 0.32812,0.363282 0.15625,0.08984 0.45312,0.134766 0.89063,0.134765 l 2.69531,0 c 0.89843,10e-7 1.55077,-0.0625 1.95703,-0.1875 0.40624,-0.124999 0.79687,-0.371092 1.17188,-0.738281 0.48436,-0.484373 0.98045,-1.214841 1.48828,-2.191406 l 0.46875,0 -1.3711,3.984375 -12.24609,0 0,-0.433594 0.5625,0 c 0.375,0 0.73047,-0.08984 1.06641,-0.269531 0.25,-0.124999 0.41992,-0.312499 0.50976,-0.5625 0.0898,-0.249999 0.13477,-0.761717 0.13477,-1.535156 l 0,-10.324219 c 0,-1.007799 -0.10157,-1.628892 -0.30469,-1.863281 -0.28125,-0.312485 -0.75,-0.468735 -1.40625,-0.46875 l -0.5625,0 0,-0.433594 12.24609,0 0.17579,3.480469 -0.45704,0 c -0.16407,-0.835925 -0.34571,-1.410143 -0.54492,-1.722657 -0.19923,-0.312485 -0.49415,-0.550766 -0.88476,-0.714843 -0.31251,-0.117173 -0.86329,-0.175767 -1.65235,-0.175782 z"
         style="letter-spacing:1.13999999px;fill:#4a4841;fill-opacity:1"
         id="path6359"
         inkscape:connector-curvature="0" />
      <path
         d="m -109.6924,84.19928 -4.24219,0 -5.3789,-7.429688 c -0.39845,0.01563 -0.72266,0.02344 -0.97266,0.02344 -0.10157,7e-6 -0.21094,-0.0019 -0.32812,-0.0059 -0.1172,-0.0039 -0.23829,-0.0098 -0.36328,-0.01758 l 0,4.617188 c -1e-5,1.000002 0.10937,1.621095 0.32812,1.863281 0.29687,0.343751 0.74218,0.515625 1.33594,0.515625 l 0.62109,0 0,0.433594 -6.80859,0 0,-0.433594 0.59765,0 c 0.67188,0 1.15235,-0.218749 1.44141,-0.65625 0.16406,-0.242186 0.24609,-0.816404 0.24609,-1.722656 l 0,-10.265625 c 0,-0.999986 -0.10937,-1.621079 -0.32812,-1.863281 -0.30469,-0.343735 -0.75781,-0.51561 -1.35938,-0.515625 l -0.59765,0 0,-0.433594 5.78906,0 c 1.68749,1.6e-5 2.93163,0.123062 3.73242,0.36914 0.80077,0.246109 1.48046,0.699234 2.03907,1.359375 0.55858,0.66017 0.83787,1.447279 0.83789,2.361329 -2e-5,0.976573 -0.31838,1.824228 -0.95508,2.542968 -0.63673,0.718759 -1.62306,1.226571 -2.95899,1.523438 l 3.28125,4.558594 c 0.74999,1.046877 1.39452,1.742188 1.9336,2.085937 0.53904,0.343751 1.24217,0.562501 2.10937,0.65625 z m -11.28515,-8.167969 c 0.14843,8e-6 0.27733,0.002 0.38671,0.0059 0.10937,0.0039 0.19922,0.0059 0.26954,0.0059 1.51561,8e-6 2.65819,-0.328117 3.42773,-0.984375 0.76952,-0.65624 1.15429,-1.492177 1.1543,-2.507813 -10e-6,-0.992175 -0.31056,-1.798814 -0.93164,-2.419922 -0.62111,-0.621079 -1.44337,-0.931625 -2.4668,-0.93164 -0.45313,1.5e-5 -1.06641,0.07423 -1.83984,0.222656 z"
         id="path6361"
         inkscape:connector-curvature="0" />
      <path
         d="m -98.875992,67.945374 0,5.496093 -0.433594,0 c -0.140635,-1.054675 -0.392588,-1.894518 -0.755854,-2.519531 -0.3633,-0.624986 -0.88087,-1.121079 -1.55274,-1.488281 -0.67188,-0.367173 -1.36719,-0.550766 -2.08594,-0.550781 -0.8125,1.5e-5 -1.48438,0.248061 -2.01562,0.74414 -0.53126,0.496108 -0.79688,1.060561 -0.79688,1.69336 0,0.484387 0.16797,0.925793 0.50391,1.324218 0.48437,0.585949 1.63671,1.367198 3.45703,2.34375 1.48437,0.796884 2.49804,1.408211 3.041016,1.833985 0.542958,0.425788 0.960926,0.92774 1.253907,1.505859 0.292956,0.57813 0.439441,1.183598 0.439453,1.816406 -1.2e-5,1.203128 -0.466809,2.240236 -1.400391,3.111328 -0.933605,0.871094 -2.134775,1.306641 -3.603515,1.306641 -0.46094,0 -0.89454,-0.03516 -1.30078,-0.105469 -0.24219,-0.03906 -0.74415,-0.18164 -1.50586,-0.427734 -0.76172,-0.246093 -1.24414,-0.36914 -1.44727,-0.369141 -0.19531,10e-7 -0.34961,0.05859 -0.46289,0.175782 -0.11328,0.117187 -0.19727,0.359375 -0.25195,0.726562 l -0.43359,0 0,-5.449219 0.43359,0 c 0.20312,1.140629 0.47656,1.994144 0.82031,2.560547 0.34375,0.566408 0.86914,1.037111 1.57617,1.41211 0.70703,0.375 1.48242,0.5625 2.32618,0.5625 0.97655,0 1.74803,-0.257812 2.31445,-0.773438 0.5664,-0.515623 0.849598,-1.124998 0.849608,-1.828125 -1e-5,-0.390621 -0.107428,-0.785152 -0.322268,-1.183594 -0.21485,-0.398432 -0.54883,-0.769526 -1.00195,-1.113281 -0.3047,-0.234369 -1.13673,-0.732416 -2.49609,-1.494141 -1.35938,-0.761711 -2.32618,-1.369132 -2.90039,-1.822265 -0.57423,-0.453116 -1.00977,-0.953115 -1.30665,-1.5 -0.29687,-0.546864 -0.44531,-1.148426 -0.44531,-1.804688 0,-1.140612 0.4375,-2.123032 1.3125,-2.947265 0.875,-0.824203 1.98828,-1.236312 3.33985,-1.236328 0.84374,1.6e-5 1.73827,0.207047 2.68359,0.621093 0.43749,0.195328 0.74608,0.292984 0.92578,0.292969 0.203116,1.5e-5 0.369131,-0.06053 0.498048,-0.181641 0.128895,-0.121078 0.232411,-0.365218 0.310546,-0.732421 z"
         style="letter-spacing:0.97000003px;fill:#4a4841;fill-opacity:1"
         id="path6363"
         inkscape:connector-curvature="0" />
      <path
         d="m -88.144272,83.765686 0,0.433594 -6.808594,0 0,-0.433594 0.5625,0 c 0.656249,0 1.132811,-0.191406 1.429688,-0.574219 0.187497,-0.249998 0.281247,-0.85156 0.28125,-1.804687 l 0,-10.265625 c -3e-6,-0.804674 -0.05078,-1.335923 -0.152344,-1.59375 -0.07813,-0.195298 -0.238284,-0.363266 -0.480469,-0.503906 -0.343751,-0.187485 -0.703126,-0.281235 -1.078125,-0.28125 l -0.5625,0 0,-0.433594 6.808594,0 0,0.433594 -0.574219,0 c -0.648443,1.5e-5 -1.121099,0.191421 -1.417968,0.574218 -0.195318,0.250015 -0.292974,0.851577 -0.292969,1.804688 l 0,10.265625 c -5e-6,0.804689 0.05078,1.335939 0.152344,1.59375 0.07812,0.195313 0.242182,0.363282 0.492187,0.503906 0.335932,0.187501 0.6914,0.28125 1.066406,0.28125 z"
         style="letter-spacing:0.75px;fill:#4a4841;fill-opacity:1"
         id="path6365"
         inkscape:connector-curvature="0" />
      <path
         d="m -72.898178,68.308655 0.175781,3.726562 -0.445312,0 c -0.08595,-0.656237 -0.203139,-1.124986 -0.351563,-1.40625 -0.2422,-0.453111 -0.564466,-0.787095 -0.966797,-1.001953 -0.402355,-0.214829 -0.931652,-0.322251 -1.58789,-0.322265 l -2.238282,0 0,12.140625 c -8e-6,0.976564 0.105461,1.585938 0.316407,1.828125 0.296866,0.328125 0.753896,0.492187 1.371093,0.492187 l 0.550782,0 0,0.433594 -6.738282,0 0,-0.433594 0.5625,0 c 0.67187,0 1.148432,-0.203124 1.429688,-0.609375 0.171869,-0.249999 0.257806,-0.820311 0.257812,-1.710937 l 0,-12.140625 -1.910156,0 c -0.742191,1.4e-5 -1.269534,0.0547 -1.582031,0.164062 -0.406252,0.148452 -0.753908,0.433608 -1.042969,0.855469 -0.289064,0.421888 -0.460939,0.9922 -0.515625,1.710937 l -0.445312,0 0.1875,-3.726562 z"
         style="letter-spacing:-0.04px;fill:#4a4841;fill-opacity:1"
         id="path6367"
         inkscape:connector-curvature="0" />
      <path
         d="m -61.172562,78.878967 -6.152343,0 -1.078125,2.507813 c -0.265629,0.617189 -0.398441,1.078127 -0.398438,1.382812 -3e-6,0.242189 0.115231,0.455079 0.345703,0.638672 0.230465,0.183595 0.728511,0.302735 1.494141,0.357422 l 0,0.433594 -5.003906,0 0,-0.433594 c 0.664061,-0.117187 1.093748,-0.269531 1.289062,-0.457031 0.398436,-0.374999 0.839842,-1.136717 1.324219,-2.285156 l 5.589844,-13.078125 0.410156,0 5.53125,13.21875 c 0.445298,1.062502 0.849594,1.751954 1.21289,2.068359 0.363266,0.316407 0.869125,0.494141 1.517579,0.533203 l 0,0.433594 -6.269532,0 0,-0.433594 c 0.632801,-0.03125 1.060535,-0.136718 1.283203,-0.316406 0.222644,-0.179687 0.333972,-0.398437 0.333985,-0.65625 -1.3e-5,-0.343748 -0.156262,-0.886717 -0.46875,-1.628906 z m -0.328125,-0.867187 -2.695312,-6.421875 -2.765625,6.421875 z"
         style="letter-spacing:-0.06px;fill:#4a4841"
         id="path6369"
         inkscape:connector-curvature="0" />
      <path
         d="m -43.865372,67.945374 0,5.496093 -0.433593,0 c -0.140636,-1.054675 -0.392589,-1.894518 -0.75586,-2.519531 -0.363291,-0.624986 -0.880868,-1.121079 -1.552734,-1.488281 -0.671883,-0.367173 -1.367195,-0.550766 -2.085938,-0.550781 -0.812505,1.5e-5 -1.484379,0.248061 -2.015625,0.74414 -0.531253,0.496108 -0.796878,1.060561 -0.796875,1.69336 -3e-6,0.484387 0.167966,0.925793 0.503907,1.324218 0.48437,0.585949 1.636713,1.367198 3.457031,2.34375 1.484366,0.796884 2.498037,1.408211 3.041015,1.833985 0.542958,0.425788 0.960927,0.92774 1.253907,1.505859 0.292957,0.57813 0.439441,1.183598 0.439453,1.816406 -1.2e-5,1.203128 -0.466809,2.240236 -1.400391,3.111328 -0.933603,0.871094 -2.134774,1.306641 -3.603515,1.306641 -0.460945,0 -0.894538,-0.03516 -1.300782,-0.105469 -0.242193,-0.03906 -0.744145,-0.18164 -1.505859,-0.427734 -0.761722,-0.246093 -1.244144,-0.36914 -1.447266,-0.369141 -0.195315,10e-7 -0.349612,0.05859 -0.46289,0.175782 -0.113284,0.117187 -0.197268,0.359375 -0.251953,0.726562 l -0.433594,0 0,-5.449219 0.433594,0 c 0.203122,1.140629 0.476559,1.994144 0.820312,2.560547 0.343747,0.566408 0.869137,1.037111 1.576172,1.41211 0.707026,0.375 1.482416,0.5625 2.326172,0.5625 0.976555,0 1.748038,-0.257812 2.314453,-0.773438 0.566396,-0.515623 0.849599,-1.124998 0.849609,-1.828125 -10e-6,-0.390621 -0.107431,-0.785152 -0.322265,-1.183594 -0.214854,-0.398432 -0.548838,-0.769526 -1.001953,-1.113281 -0.304696,-0.234369 -1.136727,-0.732416 -2.496094,-1.494141 -1.35938,-0.761711 -2.326176,-1.369132 -2.900391,-1.822265 -0.574221,-0.453116 -1.009768,-0.953115 -1.30664,-1.5 -0.296877,-0.546864 -0.445314,-1.148426 -0.445313,-1.804688 -10e-7,-1.140612 0.437498,-2.123032 1.3125,-2.947265 0.874996,-0.824203 1.988276,-1.236312 3.339844,-1.236328 0.843743,1.6e-5 1.738273,0.207047 2.683594,0.621093 0.43749,0.195328 0.746084,0.292984 0.925781,0.292969 0.203115,1.5e-5 0.36913,-0.06053 0.498047,-0.181641 0.128896,-0.121078 0.232411,-0.365218 0.310547,-0.732421 z"
         id="path6371"
         inkscape:connector-curvature="0" />
    </g>
    <path
       transform="matrix(0.59615385,0,0,0.59615385,65.144974,-72.455352)"
       style="opacity:0.98999999;fill:#4a4841;fill-opacity:1;fill-rule:nonzero;stroke:none"
       d="m 23.565486,177.99661 c 0,3.25372 -2.637657,5.89137 -5.891372,5.89137 -3.253715,0 -5.891371,-2.63765 -5.891371,-5.89137 0,-3.25371 2.637656,-5.89137 5.891371,-5.89137 3.253715,0 5.891372,2.63766 5.891372,5.89137 z"
       id="path5601"
       inkscape:connector-curvature="0" />
    <g
       style="font-size:24px;font-style:normal;font-variant:normal;font-weight:normal;font-stretch:normal;text-align:end;line-height:139.99999762%;letter-spacing:1.61000001px;word-spacing:0px;writing-mode:lr-tb;text-anchor:end;fill:#4a4841;fill-opacity:1;stroke:none;font-family:Times New Roman;-inkscape-font-specification:'Times New Roman,'"
       id="text4006">
      <path
         d="m 104.84814,34.682255 -6.152339,0 -1.078125,2.507812 c -0.265629,0.61719 -0.398441,1.078127 -0.398438,1.382813 -3e-6,0.242188 0.115231,0.455079 0.345703,0.638672 0.230465,0.183594 0.728512,0.302735 1.494141,0.357422 l 0,0.433593 -5.003906,0 0,-0.433593 c 0.664061,-0.117187 1.093749,-0.269531 1.289062,-0.457032 0.398436,-0.374998 0.839842,-1.136716 1.324219,-2.285156 l 5.589843,-13.078125 0.41016,0 5.53125,13.21875 c 0.44529,1.062502 0.84959,1.751954 1.21289,2.068359 0.36326,0.316407 0.86912,0.494142 1.51758,0.533204 l 0,0.433593 -6.26954,0 0,-0.433593 c 0.63281,-0.03125 1.06054,-0.136719 1.28321,-0.316407 0.22264,-0.179686 0.33397,-0.398436 0.33398,-0.65625 -10e-6,-0.343748 -0.15626,-0.886716 -0.46875,-1.628906 z m -0.32812,-0.867188 -2.69531,-6.421875 -2.765628,6.421875 z"
         style="text-align:start;line-height:139.99999762%;text-anchor:start;fill:#4a4841;font-family:Times New Roman;-inkscape-font-specification:'Times New Roman,'"
         id="path6312"
         inkscape:connector-curvature="0" />
      <path
         d="m 123.82533,23.748661 0,5.496094 -0.43359,0 c -0.14064,-1.054676 -0.39259,-1.894519 -0.75586,-2.519531 -0.36329,-0.624987 -0.88087,-1.12108 -1.55273,-1.488282 -0.67189,-0.367172 -1.3672,-0.550766 -2.08594,-0.550781 -0.81251,1.5e-5 -1.48438,0.248062 -2.01563,0.744141 -0.53125,0.496107 -0.79688,1.06056 -0.79687,1.693359 -10e-6,0.484387 0.16796,0.925793 0.5039,1.324219 0.48437,0.585948 1.63672,1.367197 3.45704,2.34375 1.48436,0.796883 2.49803,1.408211 3.04101,1.833984 0.54296,0.425788 0.96093,0.927741 1.25391,1.50586 0.29295,0.57813 0.43944,1.183598 0.43945,1.816406 -1e-5,1.203128 -0.46681,2.240236 -1.40039,3.111328 -0.9336,0.871094 -2.13477,1.30664 -3.60352,1.306641 -0.46094,-10e-7 -0.89453,-0.03516 -1.30078,-0.105469 -0.24219,-0.03906 -0.74414,-0.181641 -1.50586,-0.427735 -0.76172,-0.246093 -1.24414,-0.36914 -1.44726,-0.36914 -0.19532,0 -0.34961,0.05859 -0.46289,0.175781 -0.11329,0.117188 -0.19727,0.359375 -0.25196,0.726563 l -0.43359,0 0,-5.449219 0.43359,0 c 0.20313,1.140629 0.47656,1.994144 0.82032,2.560547 0.34374,0.566408 0.86913,1.037111 1.57617,1.412109 0.70702,0.375001 1.48241,0.562501 2.32617,0.5625 0.97655,1e-6 1.74804,-0.257812 2.31445,-0.773437 0.5664,-0.515624 0.8496,-1.124998 0.84961,-1.828125 -10e-6,-0.390622 -0.10743,-0.785153 -0.32226,-1.183594 -0.21486,-0.398433 -0.54884,-0.769526 -1.00196,-1.113281 -0.30469,-0.23437 -1.13672,-0.732416 -2.49609,-1.494141 -1.35938,-0.761711 -2.32618,-1.369132 -2.90039,-1.822266 -0.57422,-0.453115 -1.00977,-0.953115 -1.30664,-1.5 -0.29688,-0.546864 -0.44532,-1.148426 -0.44531,-1.804687 -1e-5,-1.140612 0.43749,-2.123033 1.3125,-2.947266 0.87499,-0.824203 1.98827,-1.236312 3.33984,-1.236328 0.84374,1.6e-5 1.73827,0.207047 2.68359,0.621094 0.43749,0.195328 0.74609,0.292984 0.92579,0.292969 0.20311,1.5e-5 0.36913,-0.06053 0.49804,-0.181641 0.1289,-0.121078 0.23241,-0.365219 0.31055,-0.732422 z"
         style="letter-spacing:2.57999992px;fill:#4a4841"
         id="path6314"
         inkscape:connector-curvature="0" />
      <path
         d="m 136.16705,39.568974 0,0.433593 -6.80859,0 0,-0.433593 0.5625,0 c 0.65624,0 1.13281,-0.191406 1.42968,-0.574219 0.1875,-0.249999 0.28125,-0.851561 0.28125,-1.804688 l 0,-10.265625 c 0,-0.804673 -0.0508,-1.335923 -0.15234,-1.59375 -0.0781,-0.195297 -0.23828,-0.363266 -0.48047,-0.503906 -0.34375,-0.187485 -0.70313,-0.281235 -1.07812,-0.28125 l -0.5625,0 0,-0.433594 6.80859,0 0,0.433594 -0.57422,0 c -0.64844,1.5e-5 -1.1211,0.191422 -1.41797,0.574219 -0.19532,0.250014 -0.29297,0.851576 -0.29297,1.804687 l 0,10.265625 c 0,0.80469 0.0508,1.335939 0.15235,1.59375 0.0781,0.195314 0.24218,0.363282 0.49218,0.503907 0.33594,0.1875 0.6914,0.28125 1.06641,0.28125 z"
         style="letter-spacing:3.19000006px;fill:#4a4841"
         id="path6316"
         inkscape:connector-curvature="0" />
      <path
         d="m 150.9469,34.682255 -6.15235,0 -1.07812,2.507812 c -0.26563,0.61719 -0.39844,1.078127 -0.39844,1.382813 0,0.242188 0.11523,0.455079 0.3457,0.638672 0.23047,0.183594 0.72851,0.302735 1.49414,0.357422 l 0,0.433593 -5.0039,0 0,-0.433593 c 0.66406,-0.117187 1.09375,-0.269531 1.28906,-0.457032 0.39843,-0.374998 0.83984,-1.136716 1.32422,-2.285156 l 5.58984,-13.078125 0.41016,0 5.53125,13.21875 c 0.4453,1.062502 0.84959,1.751954 1.21289,2.068359 0.36326,0.316407 0.86912,0.494142 1.51758,0.533204 l 0,0.433593 -6.26953,0 0,-0.433593 c 0.6328,-0.03125 1.06053,-0.136719 1.2832,-0.316407 0.22264,-0.179686 0.33397,-0.398436 0.33398,-0.65625 -1e-5,-0.343748 -0.15626,-0.886716 -0.46875,-1.628906 z m -0.32813,-0.867188 -2.69531,-6.421875 -2.76563,6.421875 z"
         style="letter-spacing:2.45000005px;fill:#4a4841"
         id="path6318"
         inkscape:connector-curvature="0" />
      <path
         d="m 164.7758,24.97913 0,6.28125 3.49219,0 c 0.90624,9e-6 1.51171,-0.13671 1.81641,-0.410156 0.40624,-0.359366 0.6328,-0.992178 0.67968,-1.898438 l 0.4336,0 0,5.53125 -0.4336,0 c -0.10938,-0.773431 -0.21876,-1.269524 -0.32812,-1.488281 -0.14064,-0.27343 -0.37111,-0.488274 -0.69141,-0.644531 -0.32032,-0.156243 -0.81251,-0.234368 -1.47656,-0.234375 l -3.49219,0 0,5.238281 c 0,0.703127 0.0312,1.130861 0.0937,1.283203 0.0625,0.152345 0.17187,0.273439 0.32813,0.363281 0.15624,0.08985 0.45312,0.134767 0.89062,0.134766 l 2.69532,0 c 0.89842,1e-6 1.55077,-0.0625 1.95703,-0.1875 0.40623,-0.124999 0.79686,-0.371093 1.17187,-0.738281 0.48436,-0.484373 0.98046,-1.214841 1.48828,-2.191407 l 0.46875,0 -1.37109,3.984375 -12.24609,0 0,-0.433593 0.5625,0 c 0.37499,0 0.73046,-0.08984 1.0664,-0.269532 0.25,-0.124999 0.41992,-0.312499 0.50977,-0.5625 0.0898,-0.249998 0.13476,-0.761716 0.13476,-1.535156 l 0,-10.324219 c 0,-1.007798 -0.10156,-1.628891 -0.30468,-1.863281 -0.28126,-0.312485 -0.75001,-0.468735 -1.40625,-0.46875 l -0.5625,0 0,-0.433594 12.24609,0 0.17578,3.480469 -0.45703,0 c -0.16408,-0.835924 -0.34572,-1.410142 -0.54492,-1.722656 -0.19923,-0.312486 -0.49416,-0.550767 -0.88477,-0.714844 -0.31251,-0.117172 -0.86329,-0.175766 -1.65234,-0.175781 z"
         style="letter-spacing:12.57999992px;fill:#4a4841"
         id="path6320"
         inkscape:connector-curvature="0" />
      <path
         d="m 192.02768,24.97913 0,6.28125 3.49219,0 c 0.90624,9e-6 1.51171,-0.13671 1.8164,-0.410156 0.40624,-0.359366 0.6328,-0.992178 0.67969,-1.898438 l 0.43359,0 0,5.53125 -0.43359,0 c -0.10939,-0.773431 -0.21876,-1.269524 -0.32812,-1.488281 -0.14064,-0.27343 -0.37111,-0.488274 -0.69141,-0.644531 -0.32032,-0.156243 -0.81251,-0.234368 -1.47656,-0.234375 l -3.49219,0 0,5.238281 c -1e-5,0.703127 0.0312,1.130861 0.0937,1.283203 0.0625,0.152345 0.17187,0.273439 0.32812,0.363281 0.15625,0.08985 0.45312,0.134767 0.89063,0.134766 l 2.69531,0 c 0.89843,1e-6 1.55077,-0.0625 1.95703,-0.1875 0.40624,-0.124999 0.79687,-0.371093 1.17188,-0.738281 0.48436,-0.484373 0.98045,-1.214841 1.48828,-2.191407 l 0.46875,0 -1.37109,3.984375 -12.2461,0 0,-0.433593 0.5625,0 c 0.375,0 0.73047,-0.08984 1.06641,-0.269532 0.25,-0.124999 0.41992,-0.312499 0.50976,-0.5625 0.0898,-0.249998 0.13477,-0.761716 0.13477,-1.535156 l 0,-10.324219 c 0,-1.007798 -0.10157,-1.628891 -0.30469,-1.863281 -0.28125,-0.312485 -0.75,-0.468735 -1.40625,-0.46875 l -0.5625,0 0,-0.433594 12.2461,0 0.17578,3.480469 -0.45703,0 c -0.16408,-0.835924 -0.34572,-1.410142 -0.54493,-1.722656 -0.19923,-0.312486 -0.49415,-0.550767 -0.88476,-0.714844 -0.31251,-0.117172 -0.86329,-0.175766 -1.65235,-0.175781 z"
         style="letter-spacing:4.05000019px;fill:#4a4841"
         id="path6322"
         inkscape:connector-curvature="0" />
      <path
         d="m 219.62064,24.111942 0.17578,3.726563 -0.44531,0 c -0.0859,-0.656237 -0.20314,-1.124987 -0.35156,-1.40625 -0.2422,-0.453111 -0.56447,-0.787095 -0.9668,-1.001953 -0.40235,-0.214829 -0.93165,-0.322251 -1.58789,-0.322266 l -2.23828,0 0,12.140625 c -1e-5,0.976564 0.10546,1.585939 0.31641,1.828125 0.29686,0.328126 0.75389,0.492188 1.37109,0.492188 l 0.55078,0 0,0.433593 -6.73828,0 0,-0.433593 0.5625,0 c 0.67187,0 1.14843,-0.203125 1.42969,-0.609375 0.17187,-0.249999 0.2578,-0.820311 0.25781,-1.710938 l 0,-12.140625 -1.91016,0 c -0.74219,1.5e-5 -1.26953,0.0547 -1.58203,0.164063 -0.40625,0.148452 -0.7539,0.433608 -1.04297,0.855468 -0.28906,0.421889 -0.46093,0.992201 -0.51562,1.710938 l -0.44531,0 0.1875,-3.726563 z"
         style="letter-spacing:2.8499999px;fill:#4a4841"
         id="path6324"
         inkscape:connector-curvature="0" />
    </g>
    <path
       transform="matrix(0.59615385,0,0,0.59615385,230.4652,-72.455352)"
       style="opacity:0.98999999;fill:#4a4841;fill-opacity:1;fill-rule:nonzero;stroke:none"
       d="m 23.565486,177.99661 c 0,3.25372 -2.637657,5.89137 -5.891372,5.89137 -3.253715,0 -5.891371,-2.63765 -5.891371,-5.89137 0,-3.25371 2.637656,-5.89137 5.891371,-5.89137 3.253715,0 5.891372,2.63766 5.891372,5.89137 z"
       id="path5632"
       inkscape:connector-curvature="0" />
    <g
       transform="matrix(0,1,-1,0,0,0)"
       style="font-size:24px;font-style:normal;font-variant:normal;font-weight:normal;font-stretch:normal;text-align:end;line-height:89.99999762%;letter-spacing:0px;word-spacing:0px;writing-mode:lr-tb;text-anchor:end;fill:#4a4841;fill-opacity:1;stroke:none;font-family:Times New Roman;-inkscape-font-specification:'Times New Roman,'"
       id="text5287">
      <path
         d="m 48.664768,-238.86954 0,4.62891 c -5e-6,1 0.10937,1.62109 0.328125,1.86328 0.29687,0.34375 0.746088,0.51563 1.347656,0.51563 l 0.609375,0 0,0.43359 -6.808593,0 0,-0.43359 0.597656,0 c 0.671873,0 1.152342,-0.21875 1.441406,-0.65625 0.156248,-0.24219 0.234373,-0.81641 0.234375,-1.72266 l 0,-10.26563 c -2e-6,-0.99998 -0.105471,-1.62108 -0.316406,-1.86328 -0.30469,-0.34373 -0.757814,-0.51561 -1.359375,-0.51562 l -0.597656,0 0,-0.4336 5.824218,0 c 1.421868,2e-5 2.54296,0.1465 3.363282,0.43946 0.820302,0.29298 1.511707,0.78712 2.074218,1.48242 0.562488,0.69532 0.843738,1.51954 0.84375,2.47266 -1.2e-5,1.29688 -0.427746,2.35157 -1.283203,3.16406 -0.855479,0.81251 -2.064462,1.21875 -3.626953,1.21875 -0.382819,0 -0.796882,-0.0273 -1.242187,-0.082 -0.445319,-0.0547 -0.921881,-0.13672 -1.429688,-0.2461 z m 0,-0.66797 c 0.414057,0.0781 0.781245,0.13673 1.101563,0.17579 0.320306,0.0391 0.593743,0.0586 0.820312,0.0586 0.812493,1e-5 1.513664,-0.31445 2.103516,-0.94336 0.589834,-0.6289 0.884756,-1.44335 0.884765,-2.44336 -9e-6,-0.68749 -0.140634,-1.32616 -0.421875,-1.91602 -0.281259,-0.58983 -0.679696,-1.03123 -1.195312,-1.32421 -0.515633,-0.29296 -1.10157,-0.43944 -1.757813,-0.43946 -0.398443,2e-5 -0.910161,0.0742 -1.535156,0.22266 z"
         style="text-align:start;letter-spacing:-1.41999996px;text-anchor:start;fill:#4a4841;fill-opacity:1"
         id="path6374"
         inkscape:connector-curvature="0" />
      <path
         d="m 66.662737,-236.74844 -6.152344,0 -1.078125,2.50781 c -0.265628,0.61719 -0.398441,1.07813 -0.398437,1.38281 -4e-6,0.24219 0.115231,0.45508 0.345703,0.63867 0.230465,0.1836 0.728511,0.30274 1.49414,0.35743 l 0,0.43359 -5.003906,0 0,-0.43359 c 0.664062,-0.11719 1.093749,-0.26954 1.289063,-0.45704 0.398435,-0.37499 0.839841,-1.13671 1.324218,-2.28515 l 5.589844,-13.07813 0.410156,0 5.53125,13.21875 c 0.445298,1.0625 0.849595,1.75196 1.212891,2.06836 0.363265,0.31641 0.869124,0.49414 1.517578,0.53321 l 0,0.43359 -6.269531,0 0,-0.43359 c 0.632801,-0.0312 1.060535,-0.13672 1.283203,-0.31641 0.222644,-0.17969 0.333972,-0.39844 0.333984,-0.65625 -1.2e-5,-0.34375 -0.156262,-0.88672 -0.46875,-1.62891 z m -0.328125,-0.86719 -2.695313,-6.42188 -2.765625,6.42188 z"
         id="path6376"
         inkscape:connector-curvature="0" />
      <path
         d="m 87.475237,-247.68204 0.363281,5.40235 -0.363281,0 c -0.484389,-1.61718 -1.175795,-2.78124 -2.074219,-3.49219 -0.898449,-0.71092 -1.976573,-1.06639 -3.234375,-1.06641 -1.054695,2e-5 -2.007819,0.2676 -2.859375,0.80274 -0.851568,0.53517 -1.521489,1.38868 -2.009765,2.56054 -0.488286,1.17189 -0.732426,2.62892 -0.732422,4.3711 -4e-6,1.4375 0.230465,2.6836 0.691406,3.73828 0.460933,1.05469 1.154291,1.86328 2.080078,2.42578 0.925774,0.5625 1.982414,0.84375 3.169922,0.84375 1.031239,0 1.941395,-0.2207 2.730469,-0.66211 0.789049,-0.4414 1.656236,-1.31836 2.601562,-2.63086 l 0.363281,0.23438 c -0.796889,1.41406 -1.726576,2.44922 -2.789062,3.10547 -1.062511,0.65625 -2.324229,0.98437 -3.785156,0.98437 -2.632819,0 -4.671879,-0.97656 -6.117188,-2.92969 -1.078126,-1.45312 -1.617188,-3.16405 -1.617187,-5.13281 -1e-6,-1.58593 0.355467,-3.04296 1.066406,-4.37109 0.710935,-1.32812 1.689449,-2.35741 2.935547,-3.08789 1.246087,-0.73046 2.607414,-1.09569 4.083984,-1.09571 1.148428,2e-5 2.281239,0.28127 3.398438,0.84375 0.328112,0.17189 0.562487,0.25783 0.703125,0.25782 0.210924,1e-5 0.394517,-0.0742 0.550781,-0.22266 0.203111,-0.21092 0.347642,-0.50389 0.433594,-0.87891 z"
         style="letter-spacing:0.23999999px;fill:#4a4841;fill-opacity:1"
         id="path6378"
         inkscape:connector-curvature="0" />
      <path
         d="m 96.703518,-231.86172 0,0.43359 -6.808594,0 0,-0.43359 0.5625,0 c 0.656248,0 1.13281,-0.19141 1.429688,-0.57422 0.187497,-0.25 0.281247,-0.85156 0.28125,-1.80469 l 0,-10.26563 c -3e-6,-0.80467 -0.05078,-1.33592 -0.152344,-1.59375 -0.07813,-0.19529 -0.238284,-0.36326 -0.480469,-0.5039 -0.343752,-0.18749 -0.703126,-0.28124 -1.078125,-0.28125 l -0.5625,0 0,-0.4336 6.808594,0 0,0.4336 -0.574219,0 c -0.648444,1e-5 -1.121099,0.19142 -1.417969,0.57422 -0.195317,0.25001 -0.292973,0.85157 -0.292968,1.80468 l 0,10.26563 c -5e-6,0.80469 0.05078,1.33594 0.152343,1.59375 0.07812,0.19531 0.242182,0.36328 0.492188,0.50391 0.335931,0.1875 0.6914,0.28125 1.066406,0.28125 z"
         style="letter-spacing:1.19000006px;fill:#4a4841;fill-opacity:1"
         id="path6380"
         inkscape:connector-curvature="0" />
      <path
         d="m 103.41305,-246.45157 0,6.2461 2.89453,0 c 0.66405,0 1.15038,-0.14648 1.45898,-0.43946 0.30859,-0.29296 0.51367,-0.87303 0.61524,-1.74023 l 0.43359,0 0,5.3789 -0.43359,0 c -0.008,-0.61718 -0.0879,-1.0703 -0.24024,-1.35937 -0.15235,-0.28906 -0.36329,-0.50585 -0.63281,-0.65039 -0.26954,-0.14453 -0.66993,-0.21679 -1.20117,-0.2168 l -2.89453,0 0,4.99219 c -1e-5,0.80469 0.0508,1.33594 0.15234,1.59375 0.0781,0.19531 0.24218,0.36328 0.49219,0.50391 0.34374,0.1875 0.70312,0.28125 1.07812,0.28125 l 0.57422,0 0,0.43359 -6.82031,0 0,-0.43359 0.5625,0 c 0.65625,0 1.13281,-0.19141 1.42969,-0.57422 0.1875,-0.25 0.28125,-0.85156 0.28125,-1.80469 l 0,-10.26563 c 0,-0.80467 -0.0508,-1.33592 -0.15235,-1.59375 -0.0781,-0.19529 -0.23828,-0.36326 -0.48046,-0.5039 -0.33594,-0.18749 -0.695319,-0.28124 -1.07813,-0.28125 l -0.5625,0 0,-0.4336 11.82422,0 0.15234,3.49219 -0.41015,0 c -0.20314,-0.74217 -0.43947,-1.28709 -0.70899,-1.63476 -0.26954,-0.34765 -0.60157,-0.5996 -0.99609,-0.75586 -0.39454,-0.15624 -1.00587,-0.23436 -1.83399,-0.23438 z"
         id="path6382"
         inkscape:connector-curvature="0" />
      <path
         d="m 119.26852,-231.86172 0,0.43359 -6.80859,0 0,-0.43359 0.5625,0 c 0.65624,0 1.13281,-0.19141 1.42968,-0.57422 0.1875,-0.25 0.28125,-0.85156 0.28125,-1.80469 l 0,-10.26563 c 0,-0.80467 -0.0508,-1.33592 -0.15234,-1.59375 -0.0781,-0.19529 -0.23828,-0.36326 -0.48047,-0.5039 -0.34375,-0.18749 -0.70312,-0.28124 -1.07812,-0.28125 l -0.5625,0 0,-0.4336 6.80859,0 0,0.4336 -0.57422,0 c -0.64844,1e-5 -1.1211,0.19142 -1.41797,0.57422 -0.19531,0.25001 -0.29297,0.85157 -0.29297,1.80468 l 0,10.26563 c 0,0.80469 0.0508,1.33594 0.15235,1.59375 0.0781,0.19531 0.24218,0.36328 0.49219,0.50391 0.33593,0.1875 0.6914,0.28125 1.0664,0.28125 z"
         style="letter-spacing:1.95000005px;fill:#4a4841;fill-opacity:1"
         id="path6384"
         inkscape:connector-curvature="0" />
      <path
         d="m 136.27711,-247.68204 0.36328,5.40235 -0.36328,0 c -0.48439,-1.61718 -1.17579,-2.78124 -2.07422,-3.49219 -0.89845,-0.71092 -1.97657,-1.06639 -3.23437,-1.06641 -1.0547,2e-5 -2.00782,0.2676 -2.85938,0.80274 -0.85157,0.53517 -1.52149,1.38868 -2.00976,2.56054 -0.48829,1.17189 -0.73243,2.62892 -0.73243,4.3711 0,1.4375 0.23047,2.6836 0.69141,3.73828 0.46093,1.05469 1.15429,1.86328 2.08008,2.42578 0.92577,0.5625 1.98241,0.84375 3.16992,0.84375 1.03124,0 1.9414,-0.2207 2.73047,-0.66211 0.78905,-0.4414 1.65624,-1.31836 2.60156,-2.63086 l 0.36328,0.23438 c -0.79689,1.41406 -1.72657,2.44922 -2.78906,3.10547 -1.06251,0.65625 -2.32423,0.98437 -3.78516,0.98437 -2.63281,0 -4.67187,-0.97656 -6.11718,-2.92969 -1.07813,-1.45312 -1.61719,-3.16405 -1.61719,-5.13281 0,-1.58593 0.35547,-3.04296 1.06641,-4.37109 0.71093,-1.32812 1.68945,-2.35741 2.93554,-3.08789 1.24609,-0.73046 2.60742,-1.09569 4.08399,-1.09571 1.14842,2e-5 2.28124,0.28127 3.39843,0.84375 0.32812,0.17189 0.56249,0.25783 0.70313,0.25782 0.21092,1e-5 0.39452,-0.0742 0.55078,-0.22266 0.20311,-0.21092 0.34764,-0.50389 0.43359,-0.87891 z"
         id="path6386"
         inkscape:connector-curvature="0" />
      <path
         d="m 148.83961,-236.74844 -6.15234,0 -1.07813,2.50781 c -0.26563,0.61719 -0.39844,1.07813 -0.39844,1.38281 0,0.24219 0.11524,0.45508 0.34571,0.63867 0.23046,0.1836 0.72851,0.30274 1.49414,0.35743 l 0,0.43359 -5.00391,0 0,-0.43359 c 0.66406,-0.11719 1.09375,-0.26954 1.28906,-0.45704 0.39844,-0.37499 0.83985,-1.13671 1.32422,-2.28515 l 5.58985,-13.07813 0.41015,0 5.53125,13.21875 c 0.4453,1.0625 0.8496,1.75196 1.21289,2.06836 0.36327,0.31641 0.86913,0.49414 1.51758,0.53321 l 0,0.43359 -6.26953,0 0,-0.43359 c 0.6328,-0.0312 1.06054,-0.13672 1.2832,-0.31641 0.22265,-0.17969 0.33398,-0.39844 0.33399,-0.65625 -10e-6,-0.34375 -0.15626,-0.88672 -0.46875,-1.62891 z m -0.32812,-0.86719 -2.69532,-6.42188 -2.76562,6.42188 z"
         style="letter-spacing:0px;fill:#4a4841;fill-opacity:1"
         id="path6388"
         inkscape:connector-curvature="0" />
      <path
         d="m 171.42164,-231.42813 -4.24219,0 -5.3789,-7.42969 c -0.39845,0.0156 -0.72266,0.0234 -0.97266,0.0234 -0.10157,1e-5 -0.21094,-0.002 -0.32812,-0.006 -0.1172,-0.004 -0.23829,-0.01 -0.36328,-0.0176 l 0,4.61719 c -1e-5,1 0.10937,1.62109 0.32812,1.86328 0.29687,0.34375 0.74218,0.51563 1.33594,0.51563 l 0.62109,0 0,0.43359 -6.80859,0 0,-0.43359 0.59765,0 c 0.67188,0 1.15235,-0.21875 1.44141,-0.65625 0.16406,-0.24219 0.24609,-0.81641 0.24609,-1.72266 l 0,-10.26563 c 0,-0.99998 -0.10937,-1.62108 -0.32812,-1.86328 -0.30469,-0.34373 -0.75781,-0.51561 -1.35938,-0.51562 l -0.59765,0 0,-0.4336 5.78906,0 c 1.68749,2e-5 2.93163,0.12307 3.73242,0.36914 0.80077,0.24611 1.48046,0.69924 2.03907,1.35938 0.55858,0.66017 0.83787,1.44728 0.83789,2.36133 -2e-5,0.97657 -0.31838,1.82423 -0.95508,2.54297 -0.63673,0.71875 -1.62306,1.22657 -2.95899,1.52343 l 3.28125,4.5586 c 0.74999,1.04687 1.39452,1.74219 1.9336,2.08594 0.53905,0.34375 1.24217,0.5625 2.10937,0.65625 z m -11.28515,-8.16797 c 0.14843,1e-5 0.27733,0.002 0.38671,0.006 0.10937,0.004 0.19922,0.006 0.26954,0.006 1.51561,1e-5 2.65819,-0.32812 3.42773,-0.98438 0.76952,-0.65624 1.15429,-1.49217 1.1543,-2.50781 -1e-5,-0.99217 -0.31056,-1.79881 -0.93164,-2.41992 -0.62111,-0.62108 -1.44337,-0.93163 -2.4668,-0.93164 -0.45313,1e-5 -1.06641,0.0742 -1.83984,0.22266 z"
         id="path6390"
         inkscape:connector-curvature="0" />
      <path
         d="m 182.68336,-246.88516 0,-0.4336 5.625,0 0,0.4336 -0.59766,0 c -0.62501,1e-5 -1.10548,0.26173 -1.4414,0.78515 -0.16408,0.24221 -0.24611,0.80471 -0.2461,1.6875 l 0,6.44532 c -1e-5,1.59375 -0.15821,2.83008 -0.4746,3.70898 -0.31642,0.87891 -0.93752,1.63281 -1.86329,2.26172 -0.92579,0.62891 -2.18555,0.94336 -3.77929,0.94336 -1.73438,0 -3.05079,-0.30078 -3.94922,-0.90234 -0.89844,-0.60157 -1.53516,-1.41016 -1.91016,-2.42579 -0.25,-0.6953 -0.375,-1.99999 -0.375,-3.91406 l 0,-6.21094 c 0,-0.97654 -0.13477,-1.61717 -0.40429,-1.92187 -0.26954,-0.30467 -0.70508,-0.45702 -1.30665,-0.45703 l -0.59765,0 0,-0.4336 6.86719,0 0,0.4336 -0.60938,0 c -0.65625,1e-5 -1.125,0.20704 -1.40625,0.62109 -0.19532,0.28127 -0.29297,0.8672 -0.29297,1.75781 l 0,6.92579 c 0,0.61719 0.0566,1.32422 0.16992,2.12109 0.11328,0.79688 0.31836,1.41797 0.61524,1.86328 0.29687,0.44531 0.7246,0.8125 1.2832,1.10156 0.55859,0.28907 1.24413,0.4336 2.05664,0.4336 1.03905,0 1.96874,-0.22657 2.78906,-0.67969 0.8203,-0.45312 1.38085,-1.0332 1.68165,-1.74024 0.30076,-0.70702 0.45115,-1.90429 0.45117,-3.59179 l 0,-6.4336 c -2e-5,-0.99217 -0.10939,-1.61326 -0.32813,-1.86328 -0.3047,-0.34373 -0.75782,-0.51561 -1.35937,-0.51562 z"
         id="path6392"
         inkscape:connector-curvature="0" />
      <path
         d="m 198.23688,-229.65538 -3.62601,-14.25992 -1.9166,10.44276 c -0.17629,0.96052 -0.18256,1.57892 -0.0188,1.85521 0.22508,0.37491 0.64499,0.61878 1.25972,0.73161 l 0.55326,0.10154 -0.0783,0.42647 -5.44038,-0.9985 0.0783,-0.42647 0.55326,0.10155 c 0.66084,0.12128 1.16624,0.008 1.51621,-0.34128 0.21417,-0.21487 0.40165,-0.7603 0.56243,-1.63629 l 1.8743,-10.21224 c 0.12692,-0.69156 0.14175,-1.20513 0.0445,-1.54072 -0.0667,-0.24257 -0.23035,-0.46522 -0.491,-0.66797 -0.26066,-0.20271 -0.70988,-0.3626 -1.34766,-0.47967 l 0.0783,-0.42647 4.42608,0.81234 3.4264,13.27013 7.82319,-11.20545 4.42608,0.81234 -0.0783,0.42647 -0.54173,-0.0994 c -0.66854,-0.12268 -1.17779,-0.01 -1.52773,0.33917 -0.2142,0.21487 -0.40168,0.7603 -0.56243,1.63628 l -1.8743,10.21224 c -0.17631,0.96052 -0.17873,1.57963 -0.007,1.85733 0.22507,0.37491 0.64497,0.61878 1.25972,0.73161 l 0.54174,0.0994 -0.0783,0.42647 -6.6391,-1.2185 0.0783,-0.42647 0.55326,0.10154 c 0.6685,0.1227 1.1739,0.009 1.5162,-0.34128 0.21417,-0.21486 0.40164,-0.76029 0.56243,-1.63629 l 1.91661,-10.44276 -8.44196,12.04504 z"
         id="path6394"
         inkscape:connector-curvature="0" />
    </g>
    <path
       transform="matrix(0.59615385,0,0,0.59615385,219.37156,112.22442)"
       style="opacity:0.98999999;fill:#4a4841;fill-opacity:1;fill-rule:nonzero;stroke:none"
       d="m 23.565486,177.99661 c 0,3.25372 -2.637657,5.89137 -5.891372,5.89137 -3.253715,0 -5.891371,-2.63765 -5.891371,-5.89137 0,-3.25371 2.637656,-5.89137 5.891371,-5.89137 3.253715,0 5.891372,2.63766 5.891372,5.89137 z"
       id="path5634"
       inkscape:connector-curvature="0" />
    <g
       transform="matrix(0.88070321,0.47366851,-0.47366851,0.88070321,0,0)"
       style="font-size:24px;font-style:normal;font-variant:normal;font-weight:normal;font-stretch:normal;text-align:end;line-height:89.99999762%;letter-spacing:0px;word-spacing:0px;writing-mode:lr-tb;text-anchor:end;fill:#4a4841;fill-opacity:1;stroke:none;font-family:Times New Roman;-inkscape-font-specification:'Times New Roman,'"
       id="text4443">
      <path
         d="m 201.90125,161.1846 -6.14063,-13.37109 0,10.61718 c 0,0.97657 0.10547,1.58594 0.31641,1.82813 0.28905,0.32813 0.74609,0.49219 1.37109,0.49219 l 0.5625,0 0,0.43359 -5.53125,0 0,-0.43359 0.5625,0 c 0.67187,0 1.14844,-0.20313 1.42969,-0.60938 0.17187,-0.25 0.25781,-0.82031 0.25781,-1.71094 l 0,-10.38281 c 0,-0.70311 -0.0781,-1.21092 -0.23437,-1.52344 -0.10938,-0.22654 -0.31055,-0.416 -0.60352,-0.56835 -0.29297,-0.15233 -0.76367,-0.2285 -1.41211,-0.22852 l 0,-0.43359 4.5,0 5.76563,12.43359 5.67187,-12.43359 4.5,0 0,0.43359 -0.55078,0 c -0.67971,2e-5 -1.16018,0.20314 -1.44141,0.60937 -0.17189,0.25002 -0.25783,0.82033 -0.25781,1.71094 l 0,10.38281 c -2e-5,0.97657 0.10936,1.58594 0.32813,1.82813 0.28904,0.32813 0.74607,0.49219 1.37109,0.49219 l 0.55078,0 0,0.43359 -6.75,0 0,-0.43359 0.5625,0 c 0.67967,0 1.15623,-0.20313 1.42969,-0.60938 0.17186,-0.25 0.25779,-0.82031 0.25781,-1.71094 l 0,-10.61718 -6.12891,13.37109 z"
         id="path6327"
         inkscape:connector-curvature="0" />
    </g>
    <g
       transform="matrix(0.98242544,0.18665545,-0.18665545,0.98242544,0,0)"
       style="font-size:24px;font-style:normal;font-variant:normal;font-weight:normal;font-stretch:normal;text-align:end;line-height:89.99999762%;letter-spacing:0px;word-spacing:0px;writing-mode:lr-tb;text-anchor:end;fill:#4a4841;fill-opacity:1;stroke:none;font-family:Times New Roman;-inkscape-font-specification:'Times New Roman,'"
       id="text4447">
      <path
         d="m 172.81052,203.00978 0.36328,5.40234 -0.36328,0 c -0.48439,-1.61717 -1.1758,-2.78123 -2.07422,-3.49218 -0.89845,-0.71093 -1.97658,-1.06639 -3.23438,-1.06641 -1.05469,2e-5 -2.00782,0.26759 -2.85937,0.80274 -0.85157,0.53517 -1.52149,1.38868 -2.00977,2.56054 -0.48828,1.17189 -0.73242,2.62892 -0.73242,4.3711 0,1.4375 0.23047,2.68359 0.69141,3.73828 0.46093,1.05469 1.15429,1.86328 2.08007,2.42578 0.92578,0.5625 1.98242,0.84375 3.16993,0.84375 1.03124,0 1.94139,-0.2207 2.73047,-0.66211 0.78904,-0.44141 1.65623,-1.31836 2.60156,-2.63086 l 0.36328,0.23437 c -0.79689,1.41407 -1.72658,2.44922 -2.78906,3.10547 -1.06251,0.65625 -2.32423,0.98438 -3.78516,0.98438 -2.63282,0 -4.67188,-0.97656 -6.11719,-2.92969 -1.07812,-1.45312 -1.61719,-3.16406 -1.61718,-5.13281 -1e-5,-1.58593 0.35546,-3.04296 1.0664,-4.3711 0.71094,-1.32811 1.68945,-2.3574 2.93555,-3.08789 1.24609,-0.73045 2.60741,-1.09568 4.08398,-1.0957 1.14843,2e-5 2.28124,0.28127 3.39844,0.84375 0.32811,0.17189 0.56249,0.25783 0.70313,0.25781 0.21092,2e-5 0.39451,-0.0742 0.55078,-0.22265 0.20311,-0.21092 0.34764,-0.50389 0.43359,-0.87891 z"
         id="path6330"
         inkscape:connector-curvature="0" />
    </g>
    <g
       transform="matrix(0.99423889,0.10718688,-0.10718688,0.99423889,0,0)"
       style="font-size:24px;font-style:normal;font-variant:normal;font-weight:normal;font-stretch:normal;text-align:end;line-height:89.99999762%;letter-spacing:0px;word-spacing:0px;writing-mode:lr-tb;text-anchor:end;fill:#4a4841;fill-opacity:1;stroke:none;font-family:Times New Roman;-inkscape-font-specification:'Times New Roman,'"
       id="text4451">
      <path
         d="m 167.72635,233.04393 -6.14063,-13.37109 0,10.61718 c 0,0.97657 0.10547,1.58594 0.31641,1.82813 0.28906,0.32812 0.74609,0.49219 1.37109,0.49219 l 0.5625,0 0,0.43359 -5.53125,0 0,-0.43359 0.5625,0 c 0.67188,0 1.14844,-0.20313 1.42969,-0.60938 0.17187,-0.25 0.25781,-0.82031 0.25781,-1.71094 l 0,-10.38281 c 0,-0.70311 -0.0781,-1.21092 -0.23437,-1.52344 -0.10938,-0.22654 -0.31055,-0.416 -0.60352,-0.56836 -0.29297,-0.15232 -0.76367,-0.2285 -1.41211,-0.22851 l 0,-0.43359 4.5,0 5.76563,12.43359 5.67187,-12.43359 4.5,0 0,0.43359 -0.55078,0 c -0.6797,10e-6 -1.16017,0.20314 -1.4414,0.60937 -0.1719,0.25002 -0.25783,0.82033 -0.25782,1.71094 l 0,10.38281 c -1e-5,0.97657 0.10936,1.58594 0.32813,1.82813 0.28904,0.32812 0.74607,0.49219 1.37109,0.49219 l 0.55078,0 0,0.43359 -6.75,0 0,-0.43359 0.5625,0 c 0.67968,0 1.15624,-0.20313 1.42969,-0.60938 0.17186,-0.25 0.2578,-0.82031 0.25781,-1.71094 l 0,-10.61718 -6.1289,13.37109 z"
         id="path6333"
         inkscape:connector-curvature="0" />
    </g>
    <g
       style="font-size:24px;font-style:normal;font-variant:normal;font-weight:normal;font-stretch:normal;text-align:end;line-height:89.99999762%;letter-spacing:0px;word-spacing:0px;writing-mode:lr-tb;text-anchor:end;fill:#4a4841;fill-opacity:1;stroke:none;font-family:Times New Roman;-inkscape-font-specification:'Times New Roman,'"
       id="text4455">
      <path
         d="m 169.24402,247.01831 0.38672,0.082 -1.35938,4.3125 -12.30469,0 0,-0.43359 0.59766,0 c 0.67187,0 1.15234,-0.21875 1.44141,-0.65625 0.16406,-0.25 0.24609,-0.82813 0.24609,-1.73438 l 0,-10.2539 c 0,-0.99218 -0.10938,-1.61327 -0.32812,-1.86328 -0.30469,-0.34374 -0.75782,-0.51561 -1.35938,-0.51563 l -0.59766,0 0,-0.43359 7.19532,0 0,0.43359 c -0.84376,-0.008 -1.43556,0.0703 -1.77539,0.23438 -0.33985,0.16407 -0.57227,0.3711 -0.69727,0.62109 -0.125,0.25001 -0.1875,0.84767 -0.1875,1.79297 l 0,9.98437 c 0,0.64844 0.0625,1.09375 0.1875,1.33594 0.0937,0.16406 0.23828,0.28516 0.43359,0.36328 0.19531,0.0781 0.80469,0.11719 1.82813,0.11719 l 1.16016,0 c 1.21874,0 2.0742,-0.0898 2.5664,-0.26953 0.49218,-0.17969 0.9414,-0.49805 1.34766,-0.95508 0.40624,-0.45703 0.81249,-1.17773 1.21875,-2.16211 z"
         id="path6336"
         inkscape:connector-curvature="0" />
    </g>
    <g
       transform="matrix(0.93377074,-0.14706441,0.14879565,1.0474921,0,0)"
       style="font-size:22.67396164px;font-style:normal;font-variant:normal;font-weight:normal;font-stretch:normal;text-align:end;line-height:89.99999762%;letter-spacing:0px;word-spacing:0px;writing-mode:lr-tb;text-anchor:end;fill:#4a4841;fill-opacity:1;stroke:none;font-family:Times New Roman;-inkscape-font-specification:'Times New Roman,'"
       id="text4459">
      <path
         d="m 150.62386,251.38723 3.22174,4.80493 c 0.89306,1.32855 1.55549,2.16812 1.98729,2.51871 0.43176,0.35059 0.97979,0.54434 1.64408,0.58124 l 0,0.40964 -6.44348,0 0,-0.40964 c 0.42808,-0.007 0.74546,-0.0517 0.95213,-0.13285 0.15499,-0.0664 0.28231,-0.16791 0.38196,-0.30446 0.0996,-0.13655 0.14945,-0.27494 0.14946,-0.41517 -1e-5,-0.16976 -0.0332,-0.33952 -0.0996,-0.50928 -0.0517,-0.12547 -0.25465,-0.45023 -0.60892,-0.97427 l -2.54639,-3.85281 -3.14424,4.02995 c -0.33214,0.42809 -0.53143,0.7141 -0.59785,0.85802 -0.0664,0.14393 -0.0996,0.29339 -0.0996,0.44839 -1e-5,0.23619 0.0996,0.43178 0.29892,0.58677 0.19928,0.155 0.57939,0.24357 1.14034,0.26571 l 0,0.40964 -5.32528,0 0,-0.40964 c 0.37643,-0.0369 0.70118,-0.1144 0.97427,-0.23249 0.45762,-0.1919 0.89308,-0.45023 1.30641,-0.77499 0.41333,-0.32476 0.8857,-0.82296 1.41713,-1.49462 l 3.5428,-4.4728 -2.95603,-4.32886 c -0.80451,-1.17354 -1.48724,-1.943 -2.04818,-2.30836 -0.56095,-0.36534 -1.20677,-0.55909 -1.93747,-0.58124 l 0,-0.40964 6.94168,0 0,0.40964 c -0.59047,0.0222 -0.99457,0.1181 -1.2123,0.28785 -0.21774,0.16977 -0.32661,0.35798 -0.3266,0.56463 -1e-5,0.27311 0.17713,0.67167 0.53142,1.1957 l 2.30282,3.44317 2.66818,-3.37674 c 0.30998,-0.39855 0.50004,-0.67165 0.57017,-0.81928 0.0701,-0.1476 0.10516,-0.29891 0.10518,-0.45392 -2e-5,-0.15498 -0.0443,-0.29153 -0.13286,-0.40963 -0.11072,-0.15499 -0.25096,-0.26386 -0.42071,-0.32661 -0.16977,-0.0627 -0.52036,-0.0978 -1.05177,-0.10517 l 0,-0.40964 5.32528,0 0,0.40964 c -0.42072,0.0222 -0.76393,0.0886 -1.02963,0.19928 -0.39858,0.16977 -0.76393,0.39858 -1.09605,0.68642 -0.33215,0.28786 -0.80084,0.81928 -1.40605,1.59426 z"
         id="path6339"
         inkscape:connector-curvature="0" />
    </g>
    <g
       transform="matrix(0.97132505,-0.23775544,0.23775544,0.97132505,0,0)"
       style="font-size:24px;font-style:normal;font-variant:normal;font-weight:normal;font-stretch:normal;text-align:end;line-height:89.99999762%;letter-spacing:0px;word-spacing:0px;writing-mode:lr-tb;text-anchor:end;fill:#4a4841;fill-opacity:1;stroke:none;font-family:Times New Roman;-inkscape-font-specification:'Times New Roman,'"
       id="text4463">
      <path
         d="m 139.32892,269.48114 0,0.43359 c -0.56252,0.10158 -0.9883,0.28127 -1.27735,0.53907 -0.41407,0.38282 -0.78126,0.96876 -1.10156,1.75781 l -5.54297,13.52344 -0.43359,0 -5.95313,-13.69922 c -0.30469,-0.70311 -0.51953,-1.1328 -0.64453,-1.28906 -0.19531,-0.24218 -0.43555,-0.43163 -0.7207,-0.56836 -0.28516,-0.13671 -0.66992,-0.2246 -1.1543,-0.26368 l 0,-0.43359 6.49219,0 0,0.43359 c -0.73438,0.0703 -1.21094,0.19533 -1.42969,0.375 -0.21875,0.17971 -0.32813,0.41017 -0.32812,0.69141 -1e-5,0.39064 0.17968,1.00001 0.53906,1.82813 l 4.04297,9.3164 3.75,-9.19922 c 0.36717,-0.90623 0.55077,-1.53514 0.55078,-1.88672 -10e-6,-0.22654 -0.11329,-0.44334 -0.33984,-0.65039 -0.22658,-0.20701 -0.60939,-0.3535 -1.14844,-0.43945 -0.0391,-0.008 -0.10548,-0.0195 -0.19922,-0.0352 l 0,-0.43359 z"
         id="path6342"
         inkscape:connector-curvature="0" />
    </g>
    <g
       transform="matrix(0.93715456,-0.3489145,0.3489145,0.93715456,0,0)"
       style="font-size:24px;font-style:normal;font-variant:normal;font-weight:normal;font-stretch:normal;text-align:end;line-height:89.99999762%;letter-spacing:0px;word-spacing:0px;writing-mode:lr-tb;text-anchor:end;fill:#4a4841;fill-opacity:1;stroke:none;font-family:Times New Roman;-inkscape-font-specification:'Times New Roman,'"
       id="text4467">
      <path
         d="m 114.9391,298.9158 0,0.4336 -6.80859,0 0,-0.4336 0.5625,0 c 0.65625,0 1.13281,-0.1914 1.42969,-0.57422 0.18749,-0.25 0.28124,-0.85156 0.28125,-1.80468 l 0,-10.26563 c -10e-6,-0.80467 -0.0508,-1.33592 -0.15235,-1.59375 -0.0781,-0.1953 -0.23828,-0.36327 -0.48047,-0.50391 -0.34375,-0.18748 -0.70312,-0.28123 -1.07812,-0.28125 l -0.5625,0 0,-0.43359 6.80859,0 0,0.43359 -0.57422,0 c -0.64844,2e-5 -1.1211,0.19143 -1.41797,0.57422 -0.19531,0.25002 -0.29297,0.85158 -0.29296,1.80469 l 0,10.26563 c -10e-6,0.80469 0.0508,1.33593 0.15234,1.59375 0.0781,0.19531 0.24218,0.36328 0.49219,0.5039 0.33593,0.1875 0.6914,0.28125 1.0664,0.28125 z"
         id="path6345"
         inkscape:connector-curvature="0" />
    </g>
    <g
       transform="matrix(0.87741108,-0.47973931,0.47973931,0.87741108,0,0)"
       style="font-size:24px;font-style:normal;font-variant:normal;font-weight:normal;font-stretch:normal;text-align:end;line-height:89.99999762%;letter-spacing:0px;word-spacing:0px;writing-mode:lr-tb;text-anchor:end;fill:#4a4841;fill-opacity:1;stroke:none;font-family:Times New Roman;-inkscape-font-specification:'Times New Roman,'"
       id="text4471">
      <path
         d="m 81.701546,312.832 0,0.43359 -6.808594,0 0,-0.43359 0.5625,0 c 0.656248,0 1.13281,-0.1914 1.429687,-0.57422 0.187498,-0.25 0.281248,-0.85156 0.28125,-1.80469 l 0,-10.26562 c -2e-6,-0.80467 -0.05078,-1.33592 -0.152343,-1.59375 -0.07813,-0.1953 -0.238284,-0.36327 -0.480469,-0.50391 -0.343752,-0.18748 -0.703127,-0.28123 -1.078125,-0.28125 l -0.5625,0 0,-0.43359 6.808594,0 0,0.43359 -0.574219,0 c -0.648444,2e-5 -1.121099,0.19142 -1.417969,0.57422 -0.195318,0.25002 -0.292974,0.85158 -0.292969,1.80469 l 0,10.26562 c -5e-6,0.80469 0.05078,1.33594 0.152344,1.59375 0.07812,0.19532 0.242182,0.36329 0.492188,0.50391 0.335931,0.1875 0.6914,0.28125 1.066406,0.28125 z"
         id="path6348"
         inkscape:connector-curvature="0" />
    </g>
    <path
       style="fill:#f0c224;fill-opacity:1;stroke:none"
       d="m 11.556152,247.78671 c 9.891315,1.0701 19.874574,1.77241 30.363222,0.45318 -8.188907,-10.0212 -14.618534,-20.79638 -18.580479,-32.62913 l 0,0 c 10.547227,13.96662 57.126028,33.05856 70.017105,35.80141 -5.53301,2.17109 -12.006531,3.51497 -18.580479,4.64512 5.246169,2.80704 10.395233,5.50079 18.580479,8.30783 40.18195,15.16531 100.9837,12.59929 132.102,0.85359 7.96257,-2.70881 14.43466,-5.86007 18.807,-9.27471 l -18.807,-4.98501 c 47.54797,-15.15976 54.43157,-23.9023 71.37649,-37.61414 -3.5667,12.60799 -11.19423,23.86236 -20.16662,34.66845 14.16495,0 24.42992,0 30.13663,0 -17.20966,9.93481 -27.95022,19.1997 -62.5395,30.81641 l 0,9.97001 C 207.79197,312.51853 107.17819,312.13826 74.549,288.8 l 0,-9.97 C 59.256185,274.59452 43.414336,269.7708 11.556152,247.78671 z"
       id="path6209"
       inkscape:connector-curvature="0"
       sodipodi:nodetypes="cccccccccccccccccc" />
    <path
       sodipodi:nodetypes="cccc"
       inkscape:connector-curvature="0"
       id="rect6222"
       d="m 225.29131,250.85912 19.02229,5.01966 c -4.93995,3.41176 -10.21871,6.7714 -19.02229,9.58876 z"
       style="opacity:0.98999999;fill:#4a4841;fill-opacity:1;fill-rule:nonzero;stroke:none" />
    <path
       style="opacity:0.98999999;fill:#4a4841;fill-opacity:1;fill-rule:nonzero;stroke:none"
       d="m 93.512479,251.4171 c -5.393973,1.70285 -11.082017,3.59736 -18.781953,4.46168 4.859837,3.09131 10.939718,5.64983 18.781953,8.62741 z"
       id="path6225"
       inkscape:connector-curvature="0"
       sodipodi:nodetypes="cccc" />
    <path
       sodipodi:nodetypes="ccccccccccccccccccccccccc"
       inkscape:connector-curvature="0"
       id="path6194"
       d="m 244.265,278.82971 c 34.58928,-11.61671 45.32984,-20.8816 62.5395,-30.81641 -5.70671,0 -15.97168,0 -30.13663,0 8.97239,-10.80609 16.59992,-22.06046 20.16662,-34.66845 -16.94492,13.71184 -23.82852,22.45438 -71.37649,37.61414 l 0,14.25972 c 7.96257,-2.70881 14.43466,-5.86007 18.807,-9.27471 m -18.807,-4.98501 18.80733,4.98501 -3.3e-4,22.88571 0,9.97001 C 207.79197,312.51853 107.17819,312.13826 74.549,288.8 l 0,-9.97 m 18.807,-27.41783 c -4.110814,2.37389 -11.839819,3.30049 -18.807,4.53183 l 0,22.886 c -17.660807,-3.48771 -44.570251,-17.441 -62.992848,-31.04329 9.891315,1.0701 19.874574,1.77241 30.363222,0.45318 -8.188907,-10.0212 -14.618534,-20.79638 -18.580479,-32.62913 l 0,0 c 21.799362,18.8617 45.847361,27.60643 70.017105,35.80141 l 0,12.95295 c 43.05876,15.55343 99.78516,11.84755 132.102,0.85359 M 74.549,255.944 c 5.736582,3.2753 12.293984,6.06853 18.807,8.42112"
       style="fill:none;stroke:#4a4841;stroke-width:1.48372018;stroke-linecap:butt;stroke-linejoin:miter;stroke-miterlimit:4;stroke-opacity:1;stroke-dasharray:none" />
    <g
       style="font-size:28px;font-style:normal;font-variant:normal;font-weight:normal;font-stretch:normal;text-align:end;line-height:100%;letter-spacing:0px;word-spacing:0px;writing-mode:lr-tb;text-anchor:end;fill:#4a4841;fill-opacity:1;stroke:none;font-family:Times New Roman;-inkscape-font-specification:'Times New Roman,'"
       id="text5638">
      <path
         d="m 110.6526,277.81609 0.15632,-0.4811 6.24131,2.02793 -0.15632,0.4811 -0.66314,-0.21547 c -0.6935,-0.22531 -1.32097,-0.10814 -1.8824,0.35153 -0.26937,0.20959 -0.56318,0.80414 -0.88143,1.78367 l -2.32367,7.1515 c -0.57459,1.76837 -1.19585,3.08312 -1.86377,3.94426 -0.66795,0.86113 -1.62889,1.47372 -2.88283,1.83777 -1.25396,0.36405 -2.76512,0.25878 -4.53347,-0.31579 -1.924416,-0.62528 -3.276616,-1.43361 -4.05661,-2.42498 -0.780005,-0.99138 -1.194972,-2.11812 -1.244902,-3.38022 -0.02672,-0.86162 0.304948,-2.35432 0.99501,-4.4781 l 2.239166,-6.89145 c 0.352066,-1.08354 0.433486,-1.84294 0.244276,-2.2782 -0.189221,-0.43523 -0.617565,-0.76128 -1.285031,-0.97818 l -0.663139,-0.21546 0.156319,-0.4811 7.619601,2.47575 -0.15632,0.48111 -0.67614,-0.2197 c -0.72817,-0.23657 -1.32292,-0.17585 -1.78425,0.18217 -0.31812,0.24166 -0.63772,0.85659 -0.95879,1.84478 l -2.496884,7.68462 c -0.222516,0.68481 -0.414568,1.48973 -0.576157,2.41475 -0.161603,0.92503 -0.157972,1.6881 0.01089,2.28924 0.168851,0.60113 0.511072,1.16275 1.026671,1.68487 0.51557,0.52212 1.22412,0.92964 2.12565,1.22256 1.1529,0.3746 2.26613,0.45839 3.33969,0.25136 1.07354,-0.20704 1.90463,-0.64858 2.49328,-1.32464 0.58862,-0.67606 1.18713,-1.95029 1.79552,-3.82268 l 2.31944,-7.1385 c 0.35768,-1.10088 0.46024,-1.82946 0.30767,-2.18573 -0.21416,-0.49124 -0.65496,-0.84531 -1.32242,-1.0622 z"
         style="letter-spacing:7.75000048px;fill:#4a4841"
         id="path6401"
         inkscape:connector-curvature="0" />
      <path
         d="m 121.96373,279.7257 5.00277,0.53464 9.79228,15.02997 1.13611,-10.63087 c 0.12105,-1.13286 0.0697,-1.85333 -0.154,-2.16142 -0.29467,-0.41647 -0.80451,-0.66345 -1.52953,-0.74095 l -0.63894,-0.0683 0.0538,-0.503 6.41659,0.68574 -0.0538,0.50299 -0.65253,-0.0697 c -0.77944,-0.0833 -1.35746,0.0933 -1.73407,0.52967 -0.2304,0.26872 -0.4008,0.91966 -0.51119,1.95282 l -1.66059,15.53848 -0.4894,-0.0523 -10.56696,-16.14399 -1.21311,11.35138 c -0.12108,1.13287 -0.0743,1.85286 0.14041,2.15996 0.30371,0.41745 0.81355,0.66443 1.52953,0.74095 l 0.65253,0.0697 -0.0538,0.50299 -6.41659,-0.68573 0.0538,-0.503 0.63894,0.0683 c 0.78847,0.0843 1.37103,-0.0918 1.74766,-0.52821 0.23038,-0.26871 0.40078,-0.91965 0.51119,-1.95283 l 1.37002,-12.81958 c -0.46789,-0.68247 -0.82939,-1.13818 -1.08449,-1.36712 -0.25512,-0.22891 -0.64083,-0.45805 -1.15714,-0.68741 -0.25411,-0.10963 -0.64853,-0.19303 -1.18324,-0.25019 z"
         style="letter-spacing:7.14000034px;fill:#4a4841"
         id="path6403"
         inkscape:connector-curvature="0" />
      <path
         d="m 156.37575,300.45316 0,0.50586 -7.94336,0 0,-0.50586 0.65625,0 c 0.76562,0 1.32161,-0.22331 1.66797,-0.66992 0.21874,-0.29167 0.32812,-0.99349 0.32812,-2.10547 l 0,-11.97656 c 0,-0.93879 -0.0593,-1.55858 -0.17773,-1.85938 -0.0911,-0.22785 -0.278,-0.42381 -0.56055,-0.58789 -0.40104,-0.21873 -0.82031,-0.32811 -1.25781,-0.32812 l -0.65625,0 0,-0.50586 7.94336,0 0,0.50586 -0.66992,0 c -0.75652,1e-5 -1.30795,0.22332 -1.6543,0.66992 -0.22787,0.29168 -0.3418,0.9935 -0.3418,2.10547 l 0,11.97656 c 0,0.9388 0.0592,1.55859 0.17774,1.85937 0.0911,0.22787 0.28254,0.42383 0.57422,0.58789 0.39192,0.21875 0.80663,0.32813 1.24414,0.32813 z"
         style="letter-spacing:6.61999989px;fill:#4a4841"
         id="path6405"
         inkscape:connector-curvature="0" />
      <path
         d="m 179.90786,282.41996 0.20508,4.34765 -0.51953,0 c -0.10028,-0.76561 -0.237,-1.31248 -0.41016,-1.64062 -0.28257,-0.52863 -0.65854,-0.91828 -1.12793,-1.16895 -0.46941,-0.25063 -1.08693,-0.37596 -1.85254,-0.37597 l -2.61133,0 0,14.16406 c -1e-5,1.13932 0.12304,1.85026 0.36914,2.13281 0.34635,0.38281 0.87955,0.57422 1.59961,0.57422 l 0.64258,0 0,0.50586 -7.86133,0 0,-0.50586 0.65625,0 c 0.78385,0 1.33984,-0.23698 1.66797,-0.71094 0.20052,-0.29166 0.30078,-0.95703 0.30078,-1.99609 l 0,-14.16406 -2.22851,0 c -0.86589,1e-5 -1.48113,0.0638 -1.84571,0.1914 -0.47396,0.1732 -0.87955,0.50588 -1.21679,0.99805 -0.33724,0.4922 -0.53776,1.15757 -0.60156,1.99609 l -0.51954,0 0.21875,-4.34765 z"
         style="letter-spacing:4.92000008px;fill:#4a4841"
         id="path6407"
         inkscape:connector-curvature="0" />
      <path
         d="m 197.80914,292.08477 -7.13575,0.77519 -0.93448,3.04451 c -0.23032,0.74931 -0.32628,1.30066 -0.28789,1.65404 0.0305,0.28091 0.19099,0.51331 0.48143,0.6972 0.29044,0.18391 0.88311,0.25934 1.77801,0.2263 l 0.0546,0.5029 -5.80375,0.63048 -0.0546,-0.5029 c 0.75544,-0.21959 1.23462,-0.45042 1.43753,-0.6925 0.41487,-0.48514 0.83086,-1.42423 1.24796,-2.81727 l 4.83551,-15.87289 0.47572,-0.0517 8.08092,14.63474 c 0.65035,1.17623 1.20614,1.92494 1.66738,2.24615 0.46119,0.32121 1.0703,0.46361 1.82733,0.42722 l 0.0546,0.5029 -7.27167,0.78995 -0.0546,-0.5029 c 0.73001,-0.11598 1.21283,-0.2922 1.44845,-0.52866 0.23559,-0.23647 0.33715,-0.50421 0.30468,-0.80323 -0.0433,-0.3987 -0.29297,-1.00877 -0.74892,-1.83022 z m -0.48984,-0.96446 -3.93529,-7.10876 -2.39854,7.79683 z"
         style="letter-spacing:3.05999994px;fill:#4a4841"
         id="path6409"
         inkscape:connector-curvature="0" />
      <path
         d="m 219.14794,274.29159 0.88131,6.35126 -0.50105,0.0695 c -0.33164,-1.19622 -0.75747,-2.12634 -1.27748,-2.79035 -0.52004,-0.66397 -1.1977,-1.15426 -2.03299,-1.47086 -0.8353,-0.31657 -1.66823,-0.41723 -2.49881,-0.302 -0.93893,0.13031 -1.67557,0.52469 -2.20992,1.18314 -0.53436,0.65849 -0.75081,1.35336 -0.64933,2.08462 0.0777,0.55975 0.34255,1.04291 0.79465,1.44945 0.6537,0.59945 2.11061,1.31748 4.37075,2.15408 1.84311,0.68286 3.11253,1.22676 3.80827,1.63171 0.69571,0.40498 1.2592,0.91801 1.69047,1.5391 0.43125,0.6211 0.69761,1.29729 0.7991,2.02856 0.19291,1.39033 -0.18022,2.66366 -1.11938,3.81999 -0.93918,1.15633 -2.25741,1.85226 -3.95467,2.08778 -0.53267,0.0739 -1.03936,0.10281 -1.52009,0.0867 -0.28614,-0.006 -0.88906,-0.0906 -1.80875,-0.25282 -0.91971,-0.16224 -1.49692,-0.22707 -1.73165,-0.1945 -0.2257,0.0313 -0.39461,0.12377 -0.50672,0.27736 -0.11212,0.15358 -0.17034,0.44692 -0.17465,0.88001 l -0.50106,0.0695 -0.8738,-6.29709 0.50106,-0.0695 c 0.41763,1.28554 0.87048,2.22801 1.35854,2.82742 0.48806,0.59941 1.17067,1.05911 2.04785,1.37908 0.87717,0.31997 1.80327,0.41231 2.77831,0.27701 1.1285,-0.15659 1.97868,-0.57823 2.55055,-1.26491 0.57184,-0.68667 0.80139,-1.43627 0.68865,-2.2488 -0.0626,-0.4514 -0.25004,-0.89009 -0.5622,-1.31608 -0.31217,-0.42598 -0.75763,-0.80125 -1.33637,-1.12584 -0.38968,-0.22197 -1.43103,-0.6641 -3.12406,-1.32636 -1.69303,-0.66225 -2.90766,-1.20916 -3.64388,-1.64072 -0.73622,-0.43154 -1.31971,-0.93949 -1.75047,-1.52386 -0.43076,-0.58435 -0.69876,-1.25571 -0.80399,-2.01408 -0.1829,-1.31809 0.16514,-2.52352 1.04412,-3.61631 0.87897,-1.09275 2.09939,-1.7475 3.66125,-1.96425 0.97503,-0.13527 2.04194,-0.0395 3.20074,0.28741 0.53689,0.15557 0.90915,0.21894 1.11681,0.19011 0.23472,-0.0326 0.41686,-0.12915 0.54641,-0.28977 0.12954,-0.16059 0.21001,-0.45931 0.24142,-0.89618 z"
         style="letter-spacing:2.00999999px;fill:#4a4841"
         id="path6411"
         inkscape:connector-curvature="0" />
    </g>
  </g>
</svg>
