<svg width="921" height="293" viewBox="0 0 921 293" fill="none" xmlns="http://www.w3.org/2000/svg">
<g clip-path="url(#clip0_29_190)">
<path d="M62.3722 121V1.66093H87.6036V100.197H138.766V121H62.3722ZM198.887 122.632C190.185 122.632 182.435 121.136 175.637 118.145C168.877 115.115 163.536 110.958 159.612 105.675C155.727 100.353 153.727 94.2148 153.61 87.2611H179.016C179.172 90.1746 180.123 92.7386 181.872 94.9528C183.659 97.1283 186.028 98.8182 188.981 100.022C191.933 101.227 195.254 101.829 198.945 101.829C202.791 101.829 206.19 101.149 209.142 99.7893C212.095 98.4297 214.406 96.5456 216.077 94.1371C217.747 91.7285 218.582 88.9509 218.582 85.8043C218.582 82.6188 217.689 79.8024 215.902 77.355C214.154 74.8688 211.629 72.9264 208.327 71.5279C205.063 70.1294 201.179 69.4301 196.672 69.4301H185.543V50.9H196.672C200.479 50.9 203.84 50.2395 206.753 48.9187C209.706 47.5979 211.998 45.7721 213.629 43.4413C215.261 41.0716 216.077 38.3134 216.077 35.1668C216.077 32.1755 215.358 29.5533 213.921 27.3002C212.522 25.0082 210.541 23.2212 207.977 21.9393C205.452 20.6573 202.5 20.0163 199.12 20.0163C195.701 20.0163 192.574 20.6379 189.738 21.881C186.902 23.0852 184.63 24.814 182.92 27.0671C181.211 29.3202 180.298 31.9619 180.182 34.992H155.999C156.116 28.116 158.078 22.0558 161.885 16.8114C165.692 11.567 170.819 7.46861 177.268 4.51621C183.756 1.52496 191.078 0.0293398 199.236 0.0293398C207.472 0.0293398 214.678 1.52496 220.855 4.51621C227.032 7.50746 231.829 11.5476 235.248 16.6366C238.705 21.6867 240.415 27.3585 240.376 33.6517C240.415 40.3335 238.336 45.9081 234.141 50.3755C229.984 54.843 224.565 57.6788 217.883 58.8831V59.8154C226.663 60.942 233.344 63.9915 237.928 68.964C242.551 73.8976 244.843 80.0743 244.804 87.4942C244.843 94.2924 242.881 100.333 238.919 105.616C234.995 110.9 229.576 115.056 222.661 118.086C215.746 121.117 207.822 122.632 198.887 122.632Z" fill="white" fill-opacity="0.4"/>
<path d="M2.80478 272.259L77.1317 212.863H158.844L84.5107 272.259H2.80478Z" fill="#D77283"/>
<path d="M156.033 213.84L84.1699 271.275H5.61613L77.479 213.84H156.033ZM161.649 211.872H76.791L0 273.243H84.858L161.649 211.872Z" fill="#353535"/>
<path d="M87.6628 272.259L161.99 212.863H243.696L169.369 272.259H87.6628Z" fill="#D77283"/>
<path d="M240.891 213.84L169.028 271.275H90.4742L162.337 213.84H240.891ZM246.507 211.872H161.649L84.858 273.243H169.729L246.507 211.872Z" fill="#353535"/>
<path d="M172.521 272.259L246.848 212.863H328.554L254.227 272.259H172.521Z" fill="#BBCE86"/>
<path d="M325.749 213.84L253.886 271.275H175.326L247.195 213.84H325.749ZM331.365 211.872H246.507L169.729 273.243H254.574L331.365 211.872Z" fill="#353535"/>
<path d="M327.289 272.259L401.616 212.863H483.322L408.995 272.259H327.289Z" fill="#D77283"/>
<path d="M480.517 213.84L408.647 271.275H330.094L401.957 213.84H480.517ZM486.126 211.872H401.268L324.478 273.243H409.336L486.126 211.872Z" fill="#353535"/>
<path d="M496.998 272.259L571.332 212.863H653.038L578.704 272.259H496.998Z" fill="#BBCE86"/>
<path d="M650.226 213.84L578.363 271.275H499.81L571.673 213.84H650.226ZM655.842 211.872H570.984L494.193 273.243H579.051L655.842 211.872Z" fill="#353535"/>
<path d="M352.82 60.3802L427.154 0.983917H508.86L434.526 60.3802H352.82Z" fill="#BBCE86"/>
<path d="M506.048 1.96785L434.185 59.3963H355.632L427.495 1.96785H506.048ZM511.664 0H426.806L350.016 61.3642H434.873L511.664 0Z" fill="#353535"/>
<path d="M437.678 60.3802L512.012 0.983917H593.718L519.384 60.3802H437.678Z" fill="#BBCE86"/>
<path d="M590.906 1.96785L519.017 59.3963H440.49L512.353 1.96785H590.906ZM596.523 0H511.665L434.874 61.3642H519.732L596.523 0Z" fill="#353535"/>
<path d="M592.446 60.3802L666.773 0.983917H748.479L674.152 60.3802H592.446Z" fill="#D77283"/>
<path d="M745.674 1.96785L673.805 59.3963H595.251L667.121 1.96785H745.674ZM751.284 0H666.465L589.635 61.3642H674.493L751.284 0Z" fill="#353535"/>
<path d="M677.304 60.3802L751.631 0.983917H833.337L759.01 60.3802H677.304Z" fill="#BBCE86"/>
<path d="M830.532 1.96785L758.663 59.3963H680.109L751.972 1.96785H830.532ZM836.142 0H751.284L674.493 61.3642H759.351L836.142 0Z" fill="#353535"/>
<path d="M762.162 60.3802L836.489 0.983917H918.195L843.868 60.3802H762.162Z" fill="#BBCE86"/>
<path d="M915.39 1.96785L843.521 59.3963H764.967L836.85 1.96785H915.41M921.02 0H836.142L759.351 61.3642H844.209L921 0H921.02Z" fill="#353535"/>
<path d="M267.962 60.3802L342.296 0.983917H424.002L349.675 60.3802H267.962Z" fill="#BBCE86"/>
<path d="M421.19 1.96785L349.327 59.3963H270.774L342.637 1.96785H421.19ZM426.806 0H341.948L265.157 61.3642H350.015L426.806 0Z" fill="#353535"/>
<path d="M173.786 135.637L265.505 62.3481H347.211L255.485 135.637H173.786Z" fill="#D77283"/>
<path d="M344.399 63.332L255.144 134.654H176.59L265.846 63.332H344.399ZM350.016 61.3642H265.158L170.974 136.621H255.832L350.016 61.3642Z" fill="#353535"/>
<path d="M79.5958 210.895L171.322 137.605H253.027L161.302 210.895H79.5958Z" fill="#D77283"/>
<path d="M250.216 138.589L160.961 209.904H82.4071L171.695 138.589H250.216ZM255.832 136.621H170.974L76.791 211.872H161.649L255.832 136.621Z" fill="#353535"/>
<path d="M667.973 135.637L759.698 62.3481H841.404L749.678 135.637H667.973Z" fill="#D77283"/>
<path d="M838.593 63.332L749.338 134.654H670.784L760.039 63.332H838.593ZM844.209 61.3642H759.351L665.155 136.621H750.013L844.209 61.3642Z" fill="#353535"/>
<path d="M573.789 210.895L665.515 137.605H747.221L655.495 210.895H573.789Z" fill="#D77283"/>
<path d="M744.409 138.589L655.154 209.904H576.601L665.856 138.583H744.409M750.026 136.615H665.155L570.984 211.872H655.842L750.026 136.615Z" fill="#353535"/>
<path d="M303.953 167.235L380.58 106.008H617.047L540.42 167.235H303.953Z" fill="#808183"/>
<path d="M614.242 106.992L540.079 166.251H306.784L380.947 106.992H614.242ZM619.859 105.024H380.233L301.148 168.219H540.767L619.859 105.024Z" fill="#353535"/>
<path d="M921 19.7572L579.052 293V273.243L921 0V19.7572Z" fill="#353535"/>
<path d="M579.052 273.243H0V293H579.052V273.243Z" fill="#353535"/>
<path d="M902.29 6.55951L576.758 266.683H18.7161L344.242 6.55951H902.29ZM921 0H341.948L0 273.243H579.052L921 0Z" fill="#353535"/>
<path d="M387 282L473.224 213H568L481.783 282H387Z" fill="#D3DCBA"/>
<path d="M564.503 214.277L481.37 280.723H390.497L473.63 214.277H564.503ZM571 212H472.834L384 283H482.166L571 212Z" fill="#353535"/>
<path d="M24.0512 45.8687C24.451 46.2732 24.9267 46.5947 25.451 46.8149C25.9753 47.0351 26.5379 47.1497 27.1066 47.152C27.677 47.1543 28.2422 47.0437 28.7696 46.8265C29.2971 46.6093 29.7763 46.2898 30.1796 45.8865C30.583 45.4831 30.9024 45.0039 31.1196 44.4765C31.3369 43.949 31.4475 43.3838 31.4451 42.8134L31.4146 15.5293L36.2726 20.3873C37.0829 21.1976 38.1819 21.6529 39.3279 21.6529C40.4739 21.6529 41.5729 21.1976 42.3832 20.3873C43.1935 19.577 43.6488 18.4779 43.6488 17.332C43.6488 16.186 43.1935 15.087 42.3832 14.2766L30.1619 2.05533C29.7578 1.66089 29.2803 1.34949 28.7564 1.13873C27.6998 0.702201 26.5133 0.702201 25.4567 1.13873C24.9328 1.34949 24.4553 1.66089 24.0512 2.05533L11.8299 14.2766C11.0196 15.087 10.5644 16.186 10.5644 17.332C10.5644 18.4779 11.0196 19.577 11.8299 20.3873C12.6402 21.1976 13.7393 21.6529 14.8853 21.6529C16.0312 21.6529 17.1303 21.1976 17.9406 20.3873L22.7986 15.5293L22.768 42.8134C22.7703 43.3821 22.8849 43.9447 23.1051 44.469C23.3253 44.9933 23.6468 45.469 24.0512 45.8687ZM48.7383 60.1066C48.7406 59.5362 48.63 58.971 48.4128 58.4435C48.1956 57.9161 47.8761 57.4369 47.4728 57.0335C47.0694 56.6302 46.5902 56.3107 46.0628 56.0935C45.5354 55.8763 44.9701 55.7657 44.3997 55.768H9.81341C9.243 55.7657 8.67778 55.8763 8.15035 56.0935C7.62291 56.3107 7.1437 56.6302 6.74036 57.0335C6.33702 57.4369 6.01753 57.9161 5.80033 58.4435C5.58313 58.971 5.4725 59.5362 5.47484 60.1066C5.47716 60.6752 5.5917 61.2379 5.81191 61.7622C6.03212 62.2865 6.35365 62.7621 6.75808 63.1619C7.15785 63.5663 7.63353 63.8879 8.15783 64.1081C8.68213 64.3283 9.24474 64.4428 9.81341 64.4451H44.3997C44.9701 64.4475 45.5354 64.3369 46.0628 64.1197C46.5902 63.9025 47.0694 63.583 47.4728 63.1796C47.8761 62.7763 48.1956 62.2971 48.4128 61.7696C48.63 61.2422 48.7406 60.677 48.7383 60.1066ZM42.3832 99.8258C41.5729 99.0155 40.4739 98.5603 39.3279 98.5603C38.1819 98.5603 37.0829 99.0155 36.2726 99.8259L31.4146 104.684L31.4451 77.3997C31.4451 76.2491 30.988 75.1455 30.1744 74.3319C29.3608 73.5183 28.2572 73.0612 27.1066 73.0612C25.9559 73.0612 24.8524 73.5183 24.0387 74.3319C23.2251 75.1455 22.768 76.2491 22.768 77.3997L22.7986 104.684L17.9406 99.8259C17.1303 99.0155 16.0312 98.5603 14.8852 98.5603C13.7393 98.5603 12.6402 99.0155 11.8299 99.8258C11.0196 100.636 10.5644 101.735 10.5644 102.881C10.5644 104.027 11.0196 105.126 11.8299 105.937L24.0512 118.158C24.4553 118.552 24.9328 118.864 25.4567 119.074C26.5133 119.511 27.6998 119.511 28.7564 119.074C29.2803 118.864 29.7578 118.552 30.1619 118.158L42.3832 105.937C43.1935 105.126 43.6488 104.027 43.6488 102.881C43.6488 101.735 43.1935 100.636 42.3832 99.8258Z" fill="#AA9CAF"/>
<path d="M24.0512 45.8687C24.451 46.2732 24.9267 46.5947 25.451 46.8149C25.9753 47.0351 26.5379 47.1497 27.1066 47.152C27.677 47.1543 28.2422 47.0437 28.7696 46.8265C29.2971 46.6093 29.7763 46.2898 30.1796 45.8865C30.583 45.4831 30.9024 45.0039 31.1196 44.4765C31.3369 43.949 31.4475 43.3838 31.4451 42.8134L31.4146 15.5293L36.2726 20.3873C37.0829 21.1976 38.1819 21.6529 39.3279 21.6529C40.4739 21.6529 41.5729 21.1976 42.3832 20.3873C43.1935 19.577 43.6488 18.4779 43.6488 17.332C43.6488 16.186 43.1935 15.087 42.3832 14.2766L30.1619 2.05533C29.7578 1.66089 29.2803 1.34949 28.7564 1.13873C27.6998 0.702201 26.5133 0.702201 25.4567 1.13873C24.9328 1.34949 24.4553 1.66089 24.0512 2.05533L11.8299 14.2766C11.0196 15.087 10.5644 16.186 10.5644 17.332C10.5644 18.4779 11.0196 19.577 11.8299 20.3873C12.6402 21.1976 13.7393 21.6529 14.8853 21.6529C16.0312 21.6529 17.1303 21.1976 17.9406 20.3873L22.7986 15.5293L22.768 42.8134C22.7703 43.3821 22.8849 43.9447 23.1051 44.469C23.3253 44.9933 23.6468 45.469 24.0512 45.8687Z" fill="white"/>
<path d="M849.4 166.7H853.35C854.398 166.7 855.402 166.284 856.143 165.543C856.884 164.802 857.3 163.798 857.3 162.75C857.3 161.702 856.884 160.698 856.143 159.957C855.402 159.216 854.398 158.8 853.35 158.8H849.4C848.352 158.8 847.348 159.216 846.607 159.957C845.866 160.698 845.45 161.702 845.45 162.75C845.45 163.798 845.866 164.802 846.607 165.543C847.348 166.284 848.352 166.7 849.4 166.7ZM849.4 182.5H853.35C854.398 182.5 855.402 182.084 856.143 181.343C856.884 180.602 857.3 179.598 857.3 178.55C857.3 177.502 856.884 176.498 856.143 175.757C855.402 175.016 854.398 174.6 853.35 174.6H849.4C848.352 174.6 847.348 175.016 846.607 175.757C845.866 176.498 845.45 177.502 845.45 178.55C845.45 179.598 845.866 180.602 846.607 181.343C847.348 182.084 848.352 182.5 849.4 182.5ZM829.65 166.7H833.6C834.648 166.7 835.652 166.284 836.393 165.543C837.134 164.802 837.55 163.798 837.55 162.75C837.55 161.702 837.134 160.698 836.393 159.957C835.652 159.216 834.648 158.8 833.6 158.8H829.65C828.602 158.8 827.598 159.216 826.857 159.957C826.116 160.698 825.7 161.702 825.7 162.75C825.7 163.798 826.116 164.802 826.857 165.543C827.598 166.284 828.602 166.7 829.65 166.7ZM829.65 182.5H833.6C834.648 182.5 835.652 182.084 836.393 181.343C837.134 180.602 837.55 179.598 837.55 178.55C837.55 177.502 837.134 176.498 836.393 175.757C835.652 175.016 834.648 174.6 833.6 174.6H829.65C828.602 174.6 827.598 175.016 826.857 175.757C826.116 176.498 825.7 177.502 825.7 178.55C825.7 179.598 826.116 180.602 826.857 181.343C827.598 182.084 828.602 182.5 829.65 182.5ZM877.05 214.1H873.1V146.95C873.1 145.902 872.684 144.898 871.943 144.157C871.202 143.416 870.198 143 869.15 143H813.85C812.802 143 811.798 143.416 811.057 144.157C810.316 144.898 809.9 145.902 809.9 146.95V214.1H805.95C804.902 214.1 803.898 214.516 803.157 215.257C802.416 215.998 802 217.002 802 218.05C802 219.098 802.416 220.102 803.157 220.843C803.898 221.584 804.902 222 805.95 222H877.05C878.098 222 879.102 221.584 879.843 220.843C880.584 220.102 881 219.098 881 218.05C881 217.002 880.584 215.998 879.843 215.257C879.102 214.516 878.098 214.1 877.05 214.1ZM845.45 214.1H837.55V198.3H845.45V214.1ZM865.2 214.1H853.35V194.35C853.35 193.302 852.934 192.298 852.193 191.557C851.452 190.816 850.448 190.4 849.4 190.4H833.6C832.552 190.4 831.548 190.816 830.807 191.557C830.066 192.298 829.65 193.302 829.65 194.35V214.1H817.8V150.9H865.2V214.1Z" fill="#AA9CAF"/>
<path d="M766.519 228.853H771.053L775.419 237.099H775.606L779.972 228.853H784.507L777.523 241.231V248H773.503V241.231L766.519 228.853ZM790.123 248.28C788.671 248.28 787.415 247.972 786.356 247.355C785.302 246.732 784.489 245.865 783.915 244.756C783.342 243.64 783.055 242.347 783.055 240.876C783.055 239.393 783.342 238.096 783.915 236.987C784.489 235.871 785.302 235.005 786.356 234.388C787.415 233.764 788.671 233.453 790.123 233.453C791.575 233.453 792.828 233.764 793.882 234.388C794.941 235.005 795.758 235.871 796.331 236.987C796.904 238.096 797.191 239.393 797.191 240.876C797.191 242.347 796.904 243.64 796.331 244.756C795.758 245.865 794.941 246.732 793.882 247.355C792.828 247.972 791.575 248.28 790.123 248.28ZM790.142 245.195C790.803 245.195 791.354 245.008 791.797 244.634C792.239 244.254 792.573 243.737 792.797 243.082C793.028 242.428 793.143 241.683 793.143 240.848C793.143 240.013 793.028 239.268 792.797 238.614C792.573 237.959 792.239 237.442 791.797 237.062C791.354 236.681 790.803 236.491 790.142 236.491C789.475 236.491 788.914 236.681 788.459 237.062C788.01 237.442 787.671 237.959 787.44 238.614C787.216 239.268 787.103 240.013 787.103 240.848C787.103 241.683 787.216 242.428 787.44 243.082C787.671 243.737 788.01 244.254 788.459 244.634C788.914 245.008 789.475 245.195 790.142 245.195ZM808.99 241.886V233.64H812.972V248H809.149V245.392H808.999C808.675 246.233 808.136 246.909 807.382 247.42C806.634 247.931 805.721 248.187 804.642 248.187C803.682 248.187 802.838 247.969 802.109 247.533C801.38 247.096 800.809 246.476 800.398 245.672C799.993 244.868 799.787 243.905 799.781 242.783V233.64H803.764V242.073C803.77 242.92 803.997 243.59 804.446 244.083C804.895 244.575 805.496 244.821 806.25 244.821C806.73 244.821 807.179 244.712 807.597 244.494C808.014 244.27 808.351 243.939 808.606 243.503C808.868 243.067 808.996 242.528 808.99 241.886ZM827.125 248V251.02H814.55V248H827.125ZM828.779 248V228.853H832.827V236.753H841.045V228.853H845.084V248H841.045V240.091H832.827V248H828.779ZM854.891 248.28C853.414 248.28 852.143 247.981 851.077 247.383C850.017 246.778 849.201 245.925 848.627 244.821C848.054 243.712 847.767 242.4 847.767 240.885C847.767 239.408 848.054 238.112 848.627 236.996C849.201 235.88 850.008 235.011 851.049 234.388C852.096 233.764 853.324 233.453 854.732 233.453C855.68 233.453 856.562 233.606 857.378 233.911C858.201 234.21 858.918 234.662 859.528 235.267C860.146 235.871 860.625 236.632 860.968 237.548C861.311 238.458 861.482 239.523 861.482 240.745V241.839H849.357V239.371H857.733C857.733 238.797 857.609 238.289 857.359 237.847C857.11 237.404 856.764 237.058 856.322 236.809C855.885 236.554 855.377 236.426 854.798 236.426C854.193 236.426 853.657 236.566 853.19 236.847C852.729 237.121 852.367 237.492 852.105 237.959C851.844 238.42 851.71 238.935 851.703 239.502V241.848C851.703 242.559 851.834 243.173 852.096 243.69C852.364 244.207 852.741 244.606 853.227 244.887C853.713 245.167 854.29 245.307 854.957 245.307C855.399 245.307 855.804 245.245 856.172 245.12C856.54 244.996 856.855 244.809 857.116 244.56C857.378 244.31 857.578 244.005 857.715 243.643L861.398 243.886C861.211 244.771 860.828 245.544 860.248 246.205C859.675 246.859 858.933 247.37 858.023 247.738C857.12 248.1 856.076 248.28 854.891 248.28ZM868.176 248.271C867.26 248.271 866.444 248.112 865.727 247.794C865.01 247.47 864.443 246.993 864.025 246.364C863.614 245.728 863.408 244.937 863.408 243.989C863.408 243.191 863.555 242.521 863.848 241.979C864.141 241.437 864.54 241.001 865.044 240.67C865.549 240.34 866.123 240.091 866.765 239.922C867.413 239.754 868.092 239.636 868.803 239.567C869.638 239.48 870.311 239.399 870.822 239.324C871.333 239.243 871.704 239.125 871.935 238.969C872.165 238.813 872.281 238.582 872.281 238.277V238.221C872.281 237.629 872.094 237.171 871.72 236.847C871.352 236.522 870.828 236.36 870.149 236.36C869.432 236.36 868.862 236.519 868.438 236.837C868.014 237.149 867.734 237.541 867.597 238.015L863.913 237.716C864.1 236.843 864.468 236.089 865.016 235.454C865.565 234.812 866.272 234.319 867.139 233.976C868.011 233.627 869.021 233.453 870.168 233.453C870.966 233.453 871.729 233.546 872.458 233.733C873.194 233.92 873.845 234.21 874.412 234.603C874.986 234.995 875.437 235.5 875.768 236.117C876.098 236.728 876.263 237.46 876.263 238.314V248H872.486V246.009H872.374C872.143 246.457 871.835 246.853 871.449 247.196C871.062 247.533 870.598 247.797 870.056 247.991C869.513 248.178 868.887 248.271 868.176 248.271ZM869.317 245.522C869.903 245.522 870.42 245.407 870.869 245.177C871.318 244.94 871.67 244.622 871.925 244.223C872.181 243.824 872.309 243.372 872.309 242.867V241.343C872.184 241.424 872.013 241.499 871.794 241.568C871.583 241.63 871.343 241.689 871.075 241.745C870.807 241.795 870.539 241.842 870.271 241.886C870.003 241.923 869.759 241.957 869.541 241.989C869.074 242.057 868.666 242.166 868.317 242.316C867.968 242.465 867.696 242.668 867.503 242.923C867.31 243.173 867.213 243.484 867.213 243.858C867.213 244.401 867.41 244.815 867.802 245.102C868.201 245.382 868.706 245.522 869.317 245.522ZM883.336 228.853V248H879.353V228.853H883.336ZM894.164 233.64V236.632H885.517V233.64H894.164ZM887.48 230.199H891.463V243.587C891.463 243.955 891.519 244.242 891.631 244.447C891.743 244.647 891.899 244.787 892.098 244.868C892.304 244.949 892.541 244.99 892.809 244.99C892.996 244.99 893.183 244.974 893.37 244.943C893.557 244.905 893.7 244.877 893.8 244.859L894.426 247.822C894.227 247.885 893.946 247.956 893.585 248.037C893.223 248.125 892.784 248.178 892.267 248.196C891.307 248.234 890.465 248.106 889.742 247.813C889.026 247.52 888.468 247.065 888.069 246.448C887.67 245.831 887.474 245.052 887.48 244.111V230.199ZM901.05 239.698V248H897.067V228.853H900.938V236.173H901.106C901.43 235.326 901.954 234.662 902.677 234.182C903.4 233.696 904.307 233.453 905.397 233.453C906.395 233.453 907.264 233.671 908.006 234.107C908.754 234.537 909.333 235.157 909.745 235.968C910.162 236.772 910.368 237.735 910.362 238.857V248H906.379V239.567C906.385 238.682 906.161 237.993 905.706 237.501C905.257 237.009 904.628 236.762 903.817 236.762C903.275 236.762 902.795 236.878 902.378 237.108C901.966 237.339 901.642 237.675 901.405 238.118C901.175 238.554 901.056 239.081 901.05 239.698ZM644.747 260.853H649.74L655.013 273.717H655.237L660.51 260.853H665.502V280H661.576V267.538H661.417L656.462 279.907H653.788L648.833 267.491H648.674V280H644.747V260.853ZM675.307 280.28C673.83 280.28 672.558 279.981 671.493 279.383C670.433 278.778 669.617 277.925 669.043 276.821C668.47 275.712 668.183 274.4 668.183 272.885C668.183 271.408 668.47 270.112 669.043 268.996C669.617 267.88 670.424 267.011 671.465 266.388C672.512 265.764 673.74 265.453 675.148 265.453C676.096 265.453 676.977 265.606 677.794 265.911C678.617 266.21 679.333 266.662 679.944 267.267C680.561 267.871 681.041 268.632 681.384 269.548C681.727 270.458 681.898 271.523 681.898 272.745V273.839H669.772V271.371H678.149C678.149 270.797 678.025 270.289 677.775 269.847C677.526 269.404 677.18 269.058 676.737 268.809C676.301 268.554 675.793 268.426 675.214 268.426C674.609 268.426 674.073 268.566 673.606 268.847C673.144 269.121 672.783 269.492 672.521 269.959C672.259 270.42 672.125 270.935 672.119 271.502V273.848C672.119 274.559 672.25 275.173 672.512 275.69C672.78 276.207 673.157 276.606 673.643 276.887C674.129 277.167 674.706 277.307 675.373 277.307C675.815 277.307 676.22 277.245 676.588 277.12C676.956 276.996 677.27 276.809 677.532 276.56C677.794 276.31 677.993 276.005 678.131 275.643L681.814 275.886C681.627 276.771 681.244 277.544 680.664 278.205C680.091 278.859 679.349 279.37 678.439 279.738C677.535 280.1 676.491 280.28 675.307 280.28ZM689.789 280.234C688.698 280.234 687.71 279.953 686.825 279.392C685.946 278.825 685.248 277.993 684.731 276.896C684.22 275.793 683.964 274.44 683.964 272.839C683.964 271.193 684.229 269.825 684.759 268.734C685.289 267.637 685.993 266.818 686.872 266.276C687.757 265.727 688.726 265.453 689.779 265.453C690.583 265.453 691.254 265.59 691.79 265.864C692.332 266.132 692.768 266.469 693.098 266.874C693.435 267.273 693.691 267.665 693.865 268.052H693.987V260.853H697.96V280H694.033V277.7H693.865C693.678 278.099 693.413 278.495 693.07 278.887C692.734 279.274 692.294 279.595 691.752 279.85C691.216 280.106 690.562 280.234 689.789 280.234ZM691.051 277.064C691.693 277.064 692.235 276.89 692.678 276.541C693.126 276.186 693.469 275.69 693.706 275.054C693.949 274.419 694.071 273.674 694.071 272.82C694.071 271.966 693.952 271.224 693.715 270.595C693.479 269.965 693.136 269.479 692.687 269.136C692.238 268.794 691.693 268.622 691.051 268.622C690.397 268.622 689.845 268.8 689.396 269.155C688.947 269.51 688.608 270.003 688.377 270.632C688.147 271.262 688.031 271.991 688.031 272.82C688.031 273.655 688.147 274.394 688.377 275.036C688.614 275.671 688.954 276.17 689.396 276.531C689.845 276.887 690.397 277.064 691.051 277.064ZM701.234 280V265.64H705.217V280H701.234ZM703.235 263.789C702.643 263.789 702.135 263.592 701.711 263.2C701.294 262.801 701.085 262.324 701.085 261.769C701.085 261.221 701.294 260.75 701.711 260.358C702.135 259.959 702.643 259.759 703.235 259.759C703.827 259.759 704.332 259.959 704.75 260.358C705.174 260.75 705.385 261.221 705.385 261.769C705.385 262.324 705.174 262.801 704.75 263.2C704.332 263.592 703.827 263.789 703.235 263.789ZM714.896 280.28C713.425 280.28 712.16 279.969 711.1 279.346C710.047 278.716 709.236 277.843 708.669 276.728C708.108 275.612 707.828 274.328 707.828 272.876C707.828 271.405 708.111 270.115 708.679 269.005C709.252 267.89 710.065 267.02 711.119 266.397C712.172 265.768 713.425 265.453 714.877 265.453C716.13 265.453 717.227 265.68 718.168 266.135C719.109 266.59 719.854 267.229 720.402 268.052C720.951 268.875 721.253 269.841 721.309 270.95H717.551C717.445 270.233 717.165 269.657 716.71 269.221C716.261 268.778 715.672 268.557 714.943 268.557C714.325 268.557 713.786 268.725 713.325 269.062C712.87 269.392 712.515 269.875 712.259 270.511C712.004 271.146 711.876 271.916 711.876 272.82C711.876 273.736 712.001 274.515 712.25 275.157C712.506 275.799 712.864 276.288 713.325 276.625C713.786 276.962 714.325 277.13 714.943 277.13C715.398 277.13 715.806 277.036 716.167 276.849C716.535 276.662 716.837 276.391 717.074 276.036C717.317 275.674 717.476 275.241 717.551 274.736H721.309C721.247 275.833 720.948 276.799 720.412 277.635C719.882 278.464 719.15 279.112 718.215 279.579C717.28 280.047 716.173 280.28 714.896 280.28ZM727.954 280.271C727.038 280.271 726.221 280.112 725.505 279.794C724.788 279.47 724.221 278.993 723.803 278.364C723.392 277.728 723.186 276.937 723.186 275.989C723.186 275.191 723.333 274.521 723.625 273.979C723.918 273.437 724.317 273.001 724.822 272.67C725.327 272.34 725.9 272.091 726.542 271.922C727.191 271.754 727.87 271.636 728.581 271.567C729.416 271.48 730.089 271.399 730.6 271.324C731.111 271.243 731.482 271.125 731.712 270.969C731.943 270.813 732.058 270.582 732.058 270.277V270.221C732.058 269.629 731.871 269.171 731.497 268.847C731.13 268.522 730.606 268.36 729.927 268.36C729.21 268.36 728.64 268.519 728.216 268.837C727.792 269.149 727.512 269.541 727.374 270.015L723.691 269.716C723.878 268.843 724.246 268.089 724.794 267.454C725.343 266.812 726.05 266.319 726.916 265.976C727.789 265.627 728.799 265.453 729.945 265.453C730.743 265.453 731.507 265.546 732.236 265.733C732.971 265.92 733.623 266.21 734.19 266.603C734.763 266.995 735.215 267.5 735.546 268.117C735.876 268.728 736.041 269.46 736.041 270.314V280H732.264V278.009H732.152C731.921 278.457 731.613 278.853 731.226 279.196C730.84 279.533 730.376 279.797 729.833 279.991C729.291 280.178 728.665 280.271 727.954 280.271ZM729.095 277.522C729.681 277.522 730.198 277.407 730.647 277.177C731.095 276.94 731.448 276.622 731.703 276.223C731.959 275.824 732.086 275.372 732.086 274.867V273.343C731.962 273.424 731.79 273.499 731.572 273.568C731.36 273.63 731.12 273.689 730.852 273.745C730.584 273.795 730.316 273.842 730.048 273.886C729.78 273.923 729.537 273.957 729.319 273.989C728.852 274.057 728.443 274.166 728.094 274.316C727.745 274.465 727.474 274.668 727.281 274.923C727.088 275.173 726.991 275.484 726.991 275.858C726.991 276.401 727.188 276.815 727.58 277.102C727.979 277.382 728.484 277.522 729.095 277.522ZM743.114 260.853V280H739.131V260.853H743.114ZM755.772 280H751.434L758.044 260.853H763.261L769.861 280H765.523L760.727 265.228H760.578L755.772 280ZM755.501 272.474H765.748V275.634H755.501V272.474ZM772.091 280V265.64H775.952V268.145H776.102C776.364 267.254 776.803 266.581 777.42 266.126C778.037 265.665 778.748 265.434 779.552 265.434C779.751 265.434 779.966 265.447 780.197 265.472C780.427 265.496 780.63 265.531 780.805 265.574V269.108C780.618 269.052 780.359 269.002 780.029 268.959C779.698 268.915 779.396 268.893 779.122 268.893C778.536 268.893 778.012 269.021 777.551 269.277C777.096 269.526 776.735 269.875 776.467 270.324C776.205 270.772 776.074 271.29 776.074 271.876V280H772.091ZM791.222 265.64V268.632H782.574V265.64H791.222ZM784.537 262.199H788.52V275.587C788.52 275.955 788.576 276.242 788.688 276.447C788.8 276.647 788.956 276.787 789.156 276.868C789.361 276.949 789.598 276.99 789.866 276.99C790.053 276.99 790.24 276.974 790.427 276.943C790.614 276.905 790.757 276.877 790.857 276.859L791.483 279.822C791.284 279.885 791.004 279.956 790.642 280.037C790.281 280.125 789.841 280.178 789.324 280.196C788.364 280.234 787.523 280.106 786.8 279.813C786.083 279.52 785.525 279.065 785.126 278.448C784.727 277.831 784.531 277.052 784.537 276.111V262.199ZM805.584 269.735L801.938 269.959C801.876 269.647 801.742 269.367 801.536 269.118C801.33 268.862 801.059 268.66 800.723 268.51C800.392 268.354 799.997 268.276 799.535 268.276C798.918 268.276 798.398 268.407 797.974 268.669C797.55 268.924 797.338 269.267 797.338 269.697C797.338 270.04 797.475 270.33 797.75 270.567C798.024 270.804 798.495 270.994 799.161 271.137L801.76 271.661C803.157 271.947 804.197 272.409 804.883 273.044C805.569 273.68 805.911 274.515 805.911 275.55C805.911 276.491 805.634 277.317 805.079 278.027C804.531 278.738 803.777 279.293 802.817 279.691C801.863 280.084 800.763 280.28 799.517 280.28C797.616 280.28 796.101 279.885 794.973 279.093C793.851 278.295 793.194 277.211 793 275.84L796.918 275.634C797.036 276.214 797.323 276.656 797.778 276.962C798.233 277.261 798.816 277.41 799.526 277.41C800.224 277.41 800.785 277.276 801.209 277.008C801.639 276.734 801.857 276.382 801.863 275.952C801.857 275.59 801.704 275.294 801.405 275.064C801.106 274.827 800.645 274.646 800.022 274.521L797.535 274.026C796.132 273.745 795.088 273.259 794.403 272.567C793.723 271.876 793.384 270.994 793.384 269.922C793.384 268.999 793.633 268.205 794.132 267.538C794.636 266.871 795.344 266.357 796.254 265.995C797.17 265.634 798.242 265.453 799.47 265.453C801.284 265.453 802.711 265.836 803.752 266.603C804.799 267.369 805.41 268.413 805.584 269.735ZM814.587 280V260.853H822.254C823.662 260.853 824.837 261.062 825.778 261.479C826.719 261.897 827.427 262.477 827.901 263.218C828.374 263.954 828.611 264.802 828.611 265.761C828.611 266.509 828.461 267.167 828.162 267.734C827.863 268.295 827.452 268.756 826.928 269.118C826.411 269.473 825.819 269.725 825.152 269.875V270.062C825.881 270.093 826.564 270.299 827.199 270.679C827.841 271.059 828.362 271.592 828.761 272.278C829.16 272.957 829.359 273.767 829.359 274.708C829.359 275.724 829.107 276.631 828.602 277.429C828.103 278.221 827.365 278.847 826.386 279.308C825.407 279.769 824.201 280 822.768 280H814.587ZM818.636 276.69H821.936C823.064 276.69 823.887 276.475 824.404 276.045C824.921 275.609 825.18 275.029 825.18 274.306C825.18 273.777 825.052 273.309 824.797 272.904C824.541 272.499 824.176 272.181 823.703 271.95C823.235 271.72 822.678 271.605 822.029 271.605H818.636V276.69ZM818.636 268.865H821.637C822.191 268.865 822.684 268.769 823.114 268.575C823.55 268.376 823.893 268.095 824.142 267.734C824.398 267.373 824.526 266.939 824.526 266.434C824.526 265.743 824.279 265.185 823.787 264.761C823.301 264.337 822.609 264.125 821.711 264.125H818.636V268.865ZM841.127 273.886V265.64H845.11V280H841.286V277.392H841.136C840.812 278.233 840.273 278.909 839.519 279.42C838.771 279.931 837.858 280.187 836.78 280.187C835.82 280.187 834.975 279.969 834.246 279.533C833.517 279.096 832.947 278.476 832.535 277.672C832.13 276.868 831.925 275.905 831.918 274.783V265.64H835.901V274.073C835.907 274.92 836.135 275.59 836.583 276.083C837.032 276.575 837.634 276.821 838.388 276.821C838.868 276.821 839.317 276.712 839.734 276.494C840.152 276.27 840.488 275.939 840.744 275.503C841.006 275.067 841.133 274.528 841.127 273.886ZM848.296 280V265.64H852.278V280H848.296ZM850.296 263.789C849.704 263.789 849.196 263.592 848.772 263.2C848.355 262.801 848.146 262.324 848.146 261.769C848.146 261.221 848.355 260.75 848.772 260.358C849.196 259.959 849.704 259.759 850.296 259.759C850.888 259.759 851.393 259.959 851.811 260.358C852.235 260.75 852.447 261.221 852.447 261.769C852.447 262.324 852.235 262.801 851.811 263.2C851.393 263.592 850.888 263.789 850.296 263.789ZM859.451 260.853V280H855.469V260.853H859.451ZM867.933 280.234C866.843 280.234 865.855 279.953 864.97 279.392C864.091 278.825 863.393 277.993 862.875 276.896C862.364 275.793 862.109 274.44 862.109 272.839C862.109 271.193 862.374 269.825 862.904 268.734C863.433 267.637 864.138 266.818 865.016 266.276C865.901 265.727 866.871 265.453 867.924 265.453C868.728 265.453 869.398 265.59 869.934 265.864C870.476 266.132 870.913 266.469 871.243 266.874C871.579 267.273 871.835 267.665 872.01 268.052H872.131V260.853H876.104V280H872.178V277.7H872.01C871.823 278.099 871.558 278.495 871.215 278.887C870.878 279.274 870.439 279.595 869.897 279.85C869.361 280.106 868.706 280.234 867.933 280.234ZM869.195 277.064C869.837 277.064 870.38 276.89 870.822 276.541C871.271 276.186 871.614 275.69 871.851 275.054C872.094 274.419 872.215 273.674 872.215 272.82C872.215 271.966 872.097 271.224 871.86 270.595C871.623 269.965 871.28 269.479 870.832 269.136C870.383 268.794 869.837 268.622 869.195 268.622C868.541 268.622 867.989 268.8 867.541 269.155C867.092 269.51 866.752 270.003 866.522 270.632C866.291 271.262 866.176 271.991 866.176 272.82C866.176 273.655 866.291 274.394 866.522 275.036C866.758 275.671 867.098 276.17 867.541 276.531C867.989 276.887 868.541 277.064 869.195 277.064ZM879.379 280V265.64H883.362V280H879.379ZM881.38 263.789C880.788 263.789 880.28 263.592 879.856 263.2C879.438 262.801 879.229 262.324 879.229 261.769C879.229 261.221 879.438 260.75 879.856 260.358C880.28 259.959 880.788 259.759 881.38 259.759C881.972 259.759 882.477 259.959 882.894 260.358C883.318 260.75 883.53 261.221 883.53 261.769C883.53 262.324 883.318 262.801 882.894 263.2C882.477 263.592 881.972 263.789 881.38 263.789ZM890.535 271.698V280H886.552V265.64H890.348V268.173H890.516C890.834 267.338 891.367 266.678 892.115 266.191C892.863 265.699 893.77 265.453 894.835 265.453C895.833 265.453 896.702 265.671 897.444 266.107C898.185 266.544 898.762 267.167 899.173 267.977C899.585 268.781 899.79 269.741 899.79 270.857V280H895.808V271.567C895.814 270.688 895.589 270.003 895.134 269.51C894.679 269.012 894.053 268.762 893.255 268.762C892.719 268.762 892.246 268.878 891.834 269.108C891.429 269.339 891.111 269.675 890.881 270.118C890.656 270.554 890.541 271.081 890.535 271.698ZM909.399 285.684C908.109 285.684 907.002 285.507 906.08 285.151C905.164 284.802 904.434 284.326 903.892 283.721C903.35 283.116 902.998 282.437 902.836 281.683L906.519 281.187C906.632 281.474 906.809 281.742 907.052 281.991C907.295 282.241 907.616 282.44 908.015 282.59C908.42 282.746 908.913 282.823 909.492 282.823C910.359 282.823 911.072 282.612 911.633 282.188C912.2 281.77 912.484 281.069 912.484 280.084V277.457H912.316C912.141 277.856 911.879 278.233 911.53 278.588C911.181 278.944 910.733 279.233 910.184 279.458C909.636 279.682 908.981 279.794 908.221 279.794C907.143 279.794 906.161 279.545 905.276 279.046C904.397 278.542 903.696 277.772 903.172 276.737C902.655 275.696 902.396 274.381 902.396 272.792C902.396 271.165 902.661 269.806 903.191 268.716C903.721 267.625 904.425 266.808 905.304 266.266C906.189 265.724 907.158 265.453 908.212 265.453C909.016 265.453 909.689 265.59 910.231 265.864C910.773 266.132 911.209 266.469 911.54 266.874C911.876 267.273 912.135 267.665 912.316 268.052H912.465V265.64H916.42V280.14C916.42 281.362 916.121 282.384 915.522 283.207C914.924 284.029 914.095 284.646 913.036 285.058C911.982 285.475 910.77 285.684 909.399 285.684ZM909.483 276.803C910.125 276.803 910.667 276.644 911.11 276.326C911.558 276.002 911.901 275.54 912.138 274.942C912.381 274.338 912.503 273.615 912.503 272.773C912.503 271.932 912.384 271.203 912.147 270.585C911.911 269.962 911.568 269.479 911.119 269.136C910.67 268.794 910.125 268.622 909.483 268.622C908.829 268.622 908.277 268.8 907.828 269.155C907.379 269.504 907.04 269.99 906.809 270.614C906.579 271.237 906.463 271.957 906.463 272.773C906.463 273.602 906.579 274.319 906.809 274.923C907.046 275.522 907.386 275.986 907.828 276.316C908.277 276.641 908.829 276.803 909.483 276.803Z" fill="white" fill-opacity="0.4"/>
<path d="M916.996 185.239L899.337 167.907C899.047 167.62 898.702 167.392 898.322 167.236C897.942 167.08 897.534 167 897.122 167C896.71 167 896.303 167.08 895.922 167.236C895.542 167.392 895.197 167.62 894.907 167.907C894.326 168.482 894 169.26 894 170.07C894 170.88 894.326 171.658 894.907 172.233L910.35 187.57L894.907 202.755C894.326 203.329 894 204.107 894 204.917C894 205.728 894.326 206.505 894.907 207.08C895.196 207.37 895.541 207.6 895.921 207.758C896.301 207.916 896.71 207.998 897.122 208C897.535 207.998 897.943 207.916 898.324 207.758C898.704 207.6 899.048 207.37 899.337 207.08L916.996 189.748C917.312 189.461 917.565 189.112 917.738 188.724C917.911 188.336 918 187.917 918 187.494C918 187.07 917.911 186.651 917.738 186.263C917.565 185.875 917.312 185.526 916.996 185.239Z" fill="#AA9CAF"/>
<path d="M774.282 187.916L787.883 174.476C788.598 173.765 789 172.803 789 171.8C789 170.797 788.598 169.834 787.883 169.123C787.526 168.767 787.101 168.485 786.632 168.292C786.164 168.099 785.662 168 785.155 168C784.648 168 784.145 168.099 783.677 168.292C783.209 168.485 782.784 168.767 782.427 169.123L766.136 185.22C765.776 185.573 765.491 185.993 765.295 186.456C765.1 186.919 765 187.415 765 187.916C765 188.417 765.1 188.913 765.295 189.376C765.491 189.839 765.776 190.259 766.136 190.612L782.427 206.899C782.786 207.251 783.212 207.529 783.68 207.718C784.148 207.907 784.649 208.003 785.155 208C785.661 208.003 786.162 207.907 786.63 207.718C787.098 207.529 787.524 207.251 787.883 206.899C788.598 206.188 789 205.225 789 204.222C789 203.219 788.598 202.257 787.883 201.546L774.282 187.916Z" fill="#AA9CAF"/>
</g>
<defs>
<clipPath id="clip0_29_190">
<rect width="921" height="293" fill="white"/>
</clipPath>
</defs>
</svg>
