<svg width="921" height="87" viewBox="0 0 921 87" fill="none" xmlns="http://www.w3.org/2000/svg">
<path d="M431 8.16296C431 12.5812 434.582 16.163 439 16.163C443.418 16.163 447 12.5812 447 8.16296C447 3.74469 443.418 0.162964 439 0.162964C434.582 0.162964 431 3.74469 431 8.16296ZM440.5 51.3319V8.16296H437.5V51.3319H440.5Z" fill="black"/>
<g clip-path="url(#clip0_30_244)">
<rect y="40" width="606" height="47" rx="23.5" fill="white"/>
<rect x="-9.5" y="33.5" width="167" height="60" fill="#D3DCBA" stroke="black" stroke-width="3"/>
<path d="M176.983 54.5973L182.447 70.0886H182.662L188.126 54.5973H190.462L183.705 73H181.404L174.647 54.5973H176.983ZM195.817 73.3235C194.943 73.3235 194.149 73.1587 193.436 72.8293C192.723 72.4938 192.157 72.0116 191.738 71.3826C191.318 70.7476 191.109 69.9808 191.109 69.0822C191.109 68.2915 191.265 67.6505 191.576 67.1593C191.888 66.6621 192.304 66.2727 192.825 65.9912C193.346 65.7096 193.921 65.4999 194.55 65.3622C195.185 65.2184 195.823 65.1046 196.464 65.0207C197.303 64.9129 197.983 64.832 198.504 64.7781C199.031 64.7182 199.415 64.6193 199.654 64.4816C199.9 64.3438 200.023 64.1042 200.023 63.7627V63.6908C200.023 62.8042 199.78 62.1153 199.295 61.6241C198.815 61.1329 198.088 60.8873 197.111 60.8873C196.099 60.8873 195.305 61.1089 194.73 61.5522C194.155 61.9955 193.751 62.4688 193.517 62.972L191.504 62.2531C191.864 61.4145 192.343 60.7615 192.942 60.2942C193.547 59.821 194.206 59.4915 194.919 59.3058C195.638 59.1141 196.344 59.0183 197.039 59.0183C197.483 59.0183 197.992 59.0722 198.567 59.18C199.148 59.2818 199.708 59.4945 200.247 59.818C200.792 60.1415 201.245 60.6297 201.604 61.2827C201.963 61.9356 202.143 62.8102 202.143 63.9065V73H200.023V71.131H199.915C199.771 71.4305 199.531 71.751 199.196 72.0924C198.86 72.4339 198.414 72.7244 197.857 72.9641C197.3 73.2037 196.62 73.3235 195.817 73.3235ZM196.141 71.4185C196.979 71.4185 197.686 71.2538 198.261 70.9243C198.842 70.5948 199.28 70.1695 199.573 69.6483C199.873 69.1272 200.023 68.579 200.023 68.004V66.063C199.933 66.1709 199.735 66.2697 199.43 66.3596C199.13 66.4434 198.783 66.5183 198.387 66.5842C197.998 66.6441 197.617 66.698 197.246 66.746C196.881 66.7879 196.584 66.8238 196.356 66.8538C195.805 66.9257 195.29 67.0425 194.811 67.2042C194.338 67.36 193.954 67.5966 193.661 67.9141C193.373 68.2256 193.229 68.6509 193.229 69.1901C193.229 69.9269 193.502 70.484 194.047 70.8614C194.598 71.2328 195.296 71.4185 196.141 71.4185ZM211.621 73.2875C210.327 73.2875 209.213 72.982 208.278 72.371C207.344 71.76 206.625 70.9183 206.122 69.846C205.618 68.7737 205.367 67.5487 205.367 66.1709C205.367 64.7691 205.624 63.5321 206.14 62.4598C206.661 61.3815 207.386 60.5398 208.314 59.9348C209.249 59.3238 210.339 59.0183 211.585 59.0183C212.555 59.0183 213.43 59.198 214.209 59.5574C214.987 59.9168 215.625 60.42 216.123 61.067C216.62 61.714 216.928 62.4688 217.048 63.3314H214.928C214.766 62.7024 214.406 62.1453 213.849 61.6601C213.298 61.1688 212.555 60.9232 211.621 60.9232C210.794 60.9232 210.069 61.1389 209.446 61.5702C208.829 61.9955 208.347 62.5976 208 63.3763C207.658 64.1491 207.487 65.0567 207.487 66.099C207.487 67.1653 207.655 68.0938 207.991 68.8846C208.332 69.6753 208.811 70.2893 209.428 70.7266C210.051 71.1639 210.782 71.3826 211.621 71.3826C212.172 71.3826 212.672 71.2867 213.121 71.095C213.571 70.9033 213.951 70.6278 214.263 70.2684C214.574 69.9089 214.796 69.4776 214.928 68.9744H217.048C216.928 69.7891 216.632 70.5229 216.159 71.1759C215.691 71.8229 215.071 72.3381 214.299 72.7214C213.532 73.0988 212.639 73.2875 211.621 73.2875ZM224.21 73.3235C223.335 73.3235 222.541 73.1587 221.829 72.8293C221.116 72.4938 220.55 72.0116 220.13 71.3826C219.711 70.7476 219.501 69.9808 219.501 69.0822C219.501 68.2915 219.657 67.6505 219.969 67.1593C220.28 66.6621 220.696 66.2727 221.218 65.9912C221.739 65.7096 222.314 65.4999 222.943 65.3622C223.578 65.2184 224.216 65.1046 224.857 65.0207C225.695 64.9129 226.375 64.832 226.897 64.7781C227.424 64.7182 227.807 64.6193 228.047 64.4816C228.292 64.3438 228.415 64.1042 228.415 63.7627V63.6908C228.415 62.8042 228.172 62.1153 227.687 61.6241C227.208 61.1329 226.48 60.8873 225.504 60.8873C224.491 60.8873 223.698 61.1089 223.123 61.5522C222.547 61.9955 222.143 62.4688 221.909 62.972L219.897 62.2531C220.256 61.4145 220.735 60.7615 221.334 60.2942C221.939 59.821 222.598 59.4915 223.311 59.3058C224.03 59.1141 224.737 59.0183 225.432 59.0183C225.875 59.0183 226.384 59.0722 226.959 59.18C227.54 59.2818 228.101 59.4945 228.64 59.818C229.185 60.1415 229.637 60.6297 229.997 61.2827C230.356 61.9356 230.536 62.8102 230.536 63.9065V73H228.415V71.131H228.307C228.163 71.4305 227.924 71.751 227.588 72.0924C227.253 72.4339 226.807 72.7244 226.25 72.9641C225.692 73.2037 225.013 73.3235 224.21 73.3235ZM224.533 71.4185C225.372 71.4185 226.079 71.2538 226.654 70.9243C227.235 70.5948 227.672 70.1695 227.966 69.6483C228.265 69.1272 228.415 68.579 228.415 68.004V66.063C228.325 66.1709 228.128 66.2697 227.822 66.3596C227.523 66.4434 227.175 66.5183 226.78 66.5842C226.39 66.6441 226.01 66.698 225.639 66.746C225.273 66.7879 224.977 66.8238 224.749 66.8538C224.198 66.9257 223.683 67.0425 223.203 67.2042C222.73 67.36 222.347 67.5966 222.053 67.9141C221.766 68.2256 221.622 68.6509 221.622 69.1901C221.622 69.9269 221.894 70.484 222.44 70.8614C222.991 71.2328 223.689 71.4185 224.533 71.4185ZM236.527 64.6972V73H234.406V59.198H236.455V61.3545H236.635C236.958 60.6537 237.449 60.0906 238.108 59.6652C238.767 59.2339 239.618 59.0183 240.66 59.0183C241.595 59.0183 242.413 59.21 243.113 59.5934C243.814 59.9708 244.359 60.5458 244.749 61.3186C245.138 62.0854 245.333 63.0558 245.333 64.23V73H243.212V64.3737C243.212 63.2895 242.931 62.4448 242.368 61.8398C241.805 61.2287 241.032 60.9232 240.049 60.9232C239.372 60.9232 238.767 61.07 238.234 61.3635C237.707 61.6571 237.291 62.0854 236.985 62.6485C236.68 63.2116 236.527 63.8945 236.527 64.6972ZM255.21 59.198V60.9951H248.058V59.198H255.21ZM250.142 55.8912H252.263V69.0463C252.263 69.6453 252.35 70.0946 252.524 70.3941C252.703 70.6877 252.931 70.8854 253.207 70.9872C253.488 71.0831 253.785 71.131 254.096 71.131C254.33 71.131 254.522 71.119 254.671 71.095C254.821 71.0651 254.941 71.0411 255.031 71.0231L255.462 72.9281C255.318 72.982 255.118 73.0359 254.86 73.0899C254.602 73.1498 254.276 73.1797 253.881 73.1797C253.281 73.1797 252.694 73.0509 252.119 72.7933C251.55 72.5357 251.077 72.1434 250.7 71.6162C250.328 71.089 250.142 70.4241 250.142 69.6214V55.8912ZM271.663 59.198V60.9951H264.223V59.198H271.663ZM266.452 73V57.293C266.452 56.5023 266.637 55.8433 267.009 55.3162C267.38 54.789 267.862 54.3936 268.455 54.1301C269.048 53.8665 269.674 53.7347 270.333 53.7347C270.854 53.7347 271.28 53.7766 271.609 53.8605C271.939 53.9443 272.184 54.0222 272.346 54.0941L271.735 55.9272C271.627 55.8912 271.478 55.8463 271.286 55.7924C271.1 55.7385 270.854 55.7115 270.549 55.7115C269.848 55.7115 269.342 55.8883 269.03 56.2417C268.725 56.5951 268.572 57.1133 268.572 57.7962V73H266.452ZM279.674 73.2875C278.428 73.2875 277.335 72.991 276.394 72.398C275.46 71.8049 274.729 70.9752 274.202 69.9089C273.681 68.8426 273.42 67.5966 273.42 66.1709C273.42 64.7332 273.681 63.4782 274.202 62.4059C274.729 61.3336 275.46 60.5009 276.394 59.9079C277.335 59.3148 278.428 59.0183 279.674 59.0183C280.92 59.0183 282.01 59.3148 282.945 59.9079C283.885 60.5009 284.616 61.3336 285.137 62.4059C285.664 63.4782 285.928 64.7332 285.928 66.1709C285.928 67.5966 285.664 68.8426 285.137 69.9089C284.616 70.9752 283.885 71.8049 282.945 72.398C282.01 72.991 280.92 73.2875 279.674 73.2875ZM279.674 71.3826C280.62 71.3826 281.399 71.14 282.01 70.6547C282.621 70.1695 283.074 69.5315 283.367 68.7408C283.661 67.95 283.807 67.0934 283.807 66.1709C283.807 65.2483 283.661 64.3887 283.367 63.592C283.074 62.7953 282.621 62.1513 282.01 61.6601C281.399 61.1688 280.62 60.9232 279.674 60.9232C278.727 60.9232 277.949 61.1688 277.338 61.6601C276.727 62.1513 276.274 62.7953 275.981 63.592C275.687 64.3887 275.541 65.2483 275.541 66.1709C275.541 67.0934 275.687 67.95 275.981 68.7408C276.274 69.5315 276.727 70.1695 277.338 70.6547C277.949 71.14 278.727 71.3826 279.674 71.3826ZM289.165 73V59.198H291.214V61.2827H291.358C291.609 60.5997 292.064 60.0456 292.723 59.6203C293.382 59.195 294.125 58.9823 294.952 58.9823C295.108 58.9823 295.302 58.9853 295.536 58.9913C295.77 58.9973 295.946 59.0063 296.066 59.0183V61.1748C295.994 61.1569 295.829 61.1299 295.572 61.094C295.32 61.052 295.054 61.0311 294.772 61.0311C294.101 61.0311 293.502 61.1718 292.975 61.4534C292.454 61.7289 292.041 62.1123 291.735 62.6036C291.435 63.0888 291.286 63.6429 291.286 64.2659V73H289.165ZM314.395 67.357V59.198H316.515V73H314.395V70.6637H314.251C313.927 71.3646 313.424 71.9607 312.741 72.4519C312.058 72.9371 311.196 73.1797 310.153 73.1797C309.291 73.1797 308.524 72.991 307.853 72.6136C307.182 72.2302 306.655 71.6551 306.272 70.8884C305.888 70.1156 305.697 69.1421 305.697 67.968V59.198H307.817V67.8242C307.817 68.8306 308.099 69.6334 308.662 70.2324C309.231 70.8315 309.956 71.131 310.836 71.131C311.363 71.131 311.9 70.9962 312.445 70.7266C312.996 70.457 313.457 70.0437 313.829 69.4866C314.206 68.9295 314.395 68.2196 314.395 67.357ZM330.176 62.2891L328.271 62.8282C328.151 62.5107 327.974 62.2022 327.741 61.9027C327.513 61.5972 327.202 61.3456 326.806 61.1479C326.411 60.9502 325.905 60.8513 325.288 60.8513C324.443 60.8513 323.739 61.046 323.176 61.4354C322.619 61.8188 322.34 62.307 322.34 62.9001C322.34 63.4272 322.532 63.8436 322.915 64.1491C323.299 64.4546 323.898 64.7092 324.712 64.9129L326.761 65.4161C327.995 65.7156 328.915 66.1739 329.52 66.7909C330.125 67.4019 330.427 68.1897 330.427 69.1541C330.427 69.9449 330.2 70.6517 329.744 71.2747C329.295 71.8978 328.666 72.389 327.857 72.7484C327.049 73.1078 326.108 73.2875 325.036 73.2875C323.628 73.2875 322.463 72.982 321.541 72.371C320.618 71.76 320.034 70.8674 319.788 69.6933L321.801 69.1901C321.993 69.9329 322.355 70.49 322.888 70.8614C323.428 71.2328 324.131 71.4185 325 71.4185C325.988 71.4185 326.773 71.2089 327.354 70.7895C327.941 70.3642 328.235 69.855 328.235 69.262C328.235 68.7827 328.067 68.3814 327.732 68.0579C327.396 67.7284 326.881 67.4828 326.186 67.321L323.886 66.7819C322.622 66.4824 321.693 66.0181 321.1 65.3891C320.513 64.7541 320.22 63.9604 320.22 63.0079C320.22 62.2292 320.438 61.5403 320.876 60.9412C321.319 60.3422 321.921 59.8719 322.682 59.5305C323.448 59.189 324.317 59.0183 325.288 59.0183C326.653 59.0183 327.726 59.3178 328.504 59.9168C329.289 60.5159 329.846 61.3066 330.176 62.2891ZM339.406 73.2875C338.076 73.2875 336.929 72.994 335.965 72.4069C335.006 71.8139 334.267 70.9872 333.745 69.9269C333.23 68.8606 332.973 67.6206 332.973 66.2068C332.973 64.7931 333.23 63.5471 333.745 62.4688C334.267 61.3845 334.991 60.5398 335.92 59.9348C336.854 59.3238 337.945 59.0183 339.191 59.0183C339.91 59.0183 340.619 59.1381 341.32 59.3777C342.021 59.6173 342.659 60.0067 343.234 60.5458C343.809 61.079 344.268 61.7859 344.609 62.6665C344.95 63.5471 345.121 64.6313 345.121 65.9193V66.8178H334.482V64.9848H342.965C342.965 64.206 342.809 63.5111 342.497 62.9001C342.192 62.2891 341.755 61.8068 341.185 61.4534C340.622 61.1 339.957 60.9232 339.191 60.9232C338.346 60.9232 337.615 61.1329 336.998 61.5522C336.387 61.9656 335.917 62.5047 335.587 63.1697C335.258 63.8346 335.093 64.5475 335.093 65.3082V66.5303C335.093 67.5726 335.273 68.4562 335.632 69.1811C335.998 69.8999 336.504 70.4481 337.151 70.8255C337.798 71.1969 338.55 71.3826 339.406 71.3826C339.963 71.3826 340.467 71.3047 340.916 71.1489C341.371 70.9872 341.764 70.7476 342.093 70.4301C342.423 70.1066 342.677 69.7052 342.857 69.226L344.906 69.8011C344.69 70.496 344.327 71.107 343.818 71.6342C343.309 72.1553 342.68 72.5627 341.931 72.8562C341.182 73.1438 340.341 73.2875 339.406 73.2875Z" fill="black"/>
<path d="M579 51C576.429 51 573.915 51.7624 571.778 53.1909C569.64 54.6194 567.974 56.6497 566.99 59.0251C566.006 61.4006 565.748 64.0144 566.25 66.5362C566.751 69.0579 567.99 71.3743 569.808 73.1924C571.626 75.0105 573.942 76.2486 576.464 76.7502C578.986 77.2518 581.599 76.9944 583.975 76.0104C586.35 75.0265 588.381 73.3602 589.809 71.2224C591.238 69.0846 592 66.5712 592 64C592 62.2928 591.664 60.6023 591.01 59.0251C590.357 57.4479 589.4 56.0148 588.192 54.8076C586.985 53.6004 585.552 52.6429 583.975 51.9896C582.398 51.3363 580.707 51 579 51ZM579 74.4C576.943 74.4 574.932 73.79 573.222 72.6473C571.512 71.5045 570.179 69.8803 569.392 67.9799C568.605 66.0796 568.399 63.9885 568.8 61.9711C569.201 59.9537 570.192 58.1006 571.646 56.6461C573.101 55.1916 574.954 54.2011 576.971 53.7998C578.988 53.3985 581.08 53.6045 582.98 54.3917C584.88 55.1788 586.505 56.5118 587.647 58.2221C588.79 59.9323 589.4 61.9431 589.4 64C589.4 66.7582 588.304 69.4035 586.354 71.3539C584.404 73.3043 581.758 74.4 579 74.4ZM584.2 62.7H580.3V58.8C580.3 58.4552 580.163 58.1246 579.919 57.8808C579.675 57.637 579.345 57.5 579 57.5C578.655 57.5 578.325 57.637 578.081 57.8808C577.837 58.1246 577.7 58.4552 577.7 58.8V62.7H573.8C573.455 62.7 573.125 62.837 572.881 63.0808C572.637 63.3246 572.5 63.6552 572.5 64C572.5 64.3448 572.637 64.6754 572.881 64.9192C573.125 65.163 573.455 65.3 573.8 65.3H577.7V69.2C577.7 69.5448 577.837 69.8754 578.081 70.1192C578.325 70.363 578.655 70.5 579 70.5C579.345 70.5 579.675 70.363 579.919 70.1192C580.163 69.8754 580.3 69.5448 580.3 69.2V65.3H584.2C584.545 65.3 584.875 65.163 585.119 64.9192C585.363 64.6754 585.5 64.3448 585.5 64C585.5 63.6552 585.363 63.3246 585.119 63.0808C584.875 62.837 584.545 62.7 584.2 62.7Z" fill="#C56D86"/>
<path d="M27.7419 73L22.4762 54.5973H26.7265L29.7726 67.3839H29.9254L33.286 54.5973H36.9252L40.2769 67.4109H40.4386L43.4848 54.5973H47.735L42.4694 73H38.6774L35.173 60.9682H35.0293L31.5338 73H27.7419ZM52.1987 73.2606C51.3181 73.2606 50.5333 73.1078 49.8444 72.8023C49.1555 72.4908 48.6104 72.0325 48.209 71.4275C47.8136 70.8165 47.616 70.0557 47.616 69.1451C47.616 68.3784 47.7567 67.7344 48.0383 67.2132C48.3198 66.692 48.7032 66.2727 49.1885 65.9552C49.6737 65.6377 50.2248 65.3981 50.8418 65.2364C51.4648 65.0746 52.1178 64.9608 52.8007 64.8949C53.6034 64.811 54.2504 64.7332 54.7416 64.6613C55.2328 64.5834 55.5893 64.4696 55.8109 64.3198C56.0326 64.1701 56.1434 63.9484 56.1434 63.6549V63.601C56.1434 63.0319 55.9637 62.5916 55.6042 62.2801C55.2508 61.9686 54.7476 61.8128 54.0946 61.8128C53.4057 61.8128 52.8576 61.9656 52.4503 62.2711C52.0429 62.5706 51.7733 62.948 51.6415 63.4033L48.1012 63.1157C48.2809 62.2771 48.6343 61.5522 49.1615 60.9412C49.6887 60.3242 50.3686 59.8509 51.2012 59.5215C52.0399 59.186 53.0104 59.0183 54.1126 59.0183C54.8794 59.0183 55.6132 59.1081 56.3141 59.2878C57.021 59.4676 57.647 59.7461 58.1921 60.1235C58.7432 60.5009 59.1775 60.9861 59.495 61.5792C59.8125 62.1663 59.9713 62.8701 59.9713 63.6908V73H56.3411V71.086H56.2332C56.0116 71.5174 55.7151 71.8978 55.3436 72.2272C54.9722 72.5507 54.5259 72.8053 54.0048 72.991C53.4836 73.1707 52.8816 73.2606 52.1987 73.2606ZM53.2949 70.6188C53.858 70.6188 54.3552 70.508 54.7865 70.2863C55.2178 70.0587 55.5563 69.7532 55.8019 69.3698C56.0475 68.9864 56.1703 68.5521 56.1703 68.0669V66.6022C56.0505 66.6801 55.8858 66.752 55.6761 66.8178C55.4724 66.8778 55.2418 66.9347 54.9842 66.9886C54.7266 67.0365 54.469 67.0814 54.2115 67.1234C53.9539 67.1593 53.7202 67.1922 53.5106 67.2222C53.0613 67.2881 52.6689 67.3929 52.3334 67.5367C51.998 67.6805 51.7374 67.8752 51.5517 68.1208C51.366 68.3604 51.2731 68.6599 51.2731 69.0193C51.2731 69.5405 51.4618 69.9389 51.8392 70.2144C52.2226 70.484 52.7078 70.6188 53.2949 70.6188ZM62.941 73V59.198H66.6521V61.6061H66.7959C67.0475 60.7495 67.4698 60.1025 68.0629 59.6652C68.6559 59.2219 69.3389 59.0003 70.1116 59.0003C70.3033 59.0003 70.51 59.0123 70.7316 59.0362C70.9533 59.0602 71.148 59.0931 71.3157 59.1351V62.5317C71.136 62.4778 70.8874 62.4298 70.5699 62.3879C70.2524 62.346 69.9619 62.325 69.6983 62.325C69.1352 62.325 68.632 62.4478 68.1887 62.6934C67.7514 62.933 67.4039 63.2685 67.1464 63.6998C66.8948 64.1311 66.769 64.6283 66.769 65.1914V73H62.941ZM77.7382 73.2246C76.6899 73.2246 75.7404 72.9551 74.8898 72.4159C74.0451 71.8708 73.3742 71.0711 72.877 70.0168C72.3858 68.9564 72.1401 67.6565 72.1401 66.117C72.1401 64.5355 72.3947 63.2206 72.9039 62.1722C73.4131 61.1179 74.09 60.3302 74.9347 59.809C75.7853 59.2818 76.7169 59.0183 77.7292 59.0183C78.502 59.0183 79.146 59.1501 79.6612 59.4136C80.1823 59.6712 80.6017 59.9947 80.9192 60.3841C81.2426 60.7675 81.4883 61.1449 81.656 61.5163H81.7728V54.5973H85.5917V73H81.8177V70.7895H81.656C81.4763 71.1729 81.2217 71.5533 80.8922 71.9307C80.5687 72.3021 80.1464 72.6106 79.6252 72.8562C79.11 73.1018 78.481 73.2246 77.7382 73.2246ZM78.9513 70.1785C79.5683 70.1785 80.0895 70.0108 80.5148 69.6753C80.9461 69.3338 81.2756 68.8576 81.5032 68.2466C81.7369 67.6355 81.8537 66.9197 81.8537 66.099C81.8537 65.2783 81.7399 64.5654 81.5122 63.9604C81.2846 63.3554 80.9551 62.8881 80.5238 62.5586C80.0925 62.2292 79.5683 62.0644 78.9513 62.0644C78.3223 62.0644 77.7921 62.2351 77.3608 62.5766C76.9295 62.9181 76.603 63.3913 76.3814 63.9963C76.1597 64.6014 76.0489 65.3023 76.0489 66.099C76.0489 66.9017 76.1597 67.6116 76.3814 68.2286C76.609 68.8396 76.9355 69.3189 77.3608 69.6663C77.7921 70.0078 78.3223 70.1785 78.9513 70.1785ZM101.362 73.2516C100.02 73.2516 98.8246 73.021 97.7763 72.5597C96.734 72.0924 95.9103 71.4515 95.3053 70.6368C94.7062 69.8161 94.3977 68.8696 94.3797 67.7973H98.2975C98.3215 68.2466 98.4682 68.6419 98.7378 68.9834C99.0133 69.3189 99.3788 69.5794 99.834 69.7652C100.289 69.9509 100.802 70.0437 101.371 70.0437C101.964 70.0437 102.488 69.9389 102.943 69.7292C103.398 69.5195 103.755 69.229 104.012 68.8576C104.27 68.4862 104.399 68.0579 104.399 67.5726C104.399 67.0814 104.261 66.6471 103.985 66.2697C103.716 65.8863 103.326 65.5868 102.817 65.3711C102.314 65.1555 101.715 65.0477 101.02 65.0477H99.3039V62.1902H101.02C101.607 62.1902 102.125 62.0884 102.575 61.8847C103.03 61.681 103.383 61.3995 103.635 61.04C103.887 60.6746 104.012 60.2493 104.012 59.7641C104.012 59.3028 103.902 58.8985 103.68 58.551C103.464 58.1976 103.159 57.922 102.763 57.7243C102.374 57.5266 101.919 57.4278 101.398 57.4278C100.87 57.4278 100.388 57.5236 99.9509 57.7153C99.5136 57.901 99.1631 58.1676 98.8995 58.5151C98.6359 58.8625 98.4952 59.2699 98.4772 59.7371H94.7481C94.7661 58.6768 95.0686 57.7423 95.6557 56.9336C96.2428 56.1249 97.0335 55.4929 98.0279 55.0376C99.0283 54.5763 100.158 54.3457 101.416 54.3457C102.686 54.3457 103.797 54.5763 104.749 55.0376C105.702 55.4989 106.442 56.1219 106.969 56.9066C107.502 57.6854 107.765 58.56 107.759 59.5305C107.765 60.5608 107.445 61.4204 106.798 62.1093C106.157 62.7982 105.321 63.2356 104.291 63.4213V63.565C105.645 63.7387 106.675 64.209 107.382 64.9758C108.095 65.7366 108.448 66.6891 108.442 67.8332C108.448 68.8816 108.146 69.8131 107.535 70.6278C106.93 71.4425 106.094 72.0835 105.028 72.5507C103.961 73.018 102.739 73.2516 101.362 73.2516ZM118.455 73.4044C116.909 73.3984 115.579 73.018 114.465 72.2632C113.357 71.5084 112.503 70.4151 111.904 68.9834C111.311 67.5517 111.017 65.8294 111.023 63.8166C111.023 61.8098 111.32 60.0995 111.913 58.6858C112.512 57.272 113.366 56.1968 114.474 55.4599C115.588 54.7171 116.915 54.3457 118.455 54.3457C119.994 54.3457 121.318 54.7171 122.426 55.4599C123.541 56.2028 124.397 57.281 124.996 58.6948C125.595 60.1025 125.892 61.8098 125.886 63.8166C125.886 65.8354 125.586 67.5607 124.987 68.9924C124.394 70.4241 123.544 71.5174 122.435 72.2722C121.327 73.027 120 73.4044 118.455 73.4044ZM118.455 70.1785C119.509 70.1785 120.351 69.6483 120.98 68.588C121.609 67.5277 121.92 65.9372 121.914 63.8166C121.914 62.4208 121.77 61.2587 121.483 60.3302C121.201 59.4017 120.8 58.7038 120.279 58.2365C119.764 57.7693 119.156 57.5356 118.455 57.5356C117.406 57.5356 116.568 58.0598 115.939 59.1081C115.31 60.1565 114.992 61.726 114.986 63.8166C114.986 65.2304 115.127 66.4105 115.408 67.357C115.696 68.2975 116.1 69.0044 116.622 69.4776C117.143 69.9449 117.754 70.1785 118.455 70.1785ZM128.66 73V70.1965L135.211 64.1311C135.768 63.592 136.235 63.1068 136.612 62.6754C136.996 62.2441 137.286 61.8218 137.484 61.4085C137.682 60.9891 137.781 60.5368 137.781 60.0516C137.781 59.5125 137.658 59.0482 137.412 58.6588C137.167 58.2635 136.831 57.961 136.406 57.7513C135.98 57.5356 135.498 57.4278 134.959 57.4278C134.396 57.4278 133.905 57.5416 133.485 57.7693C133.066 57.9969 132.743 58.3234 132.515 58.7487C132.287 59.174 132.174 59.6802 132.174 60.2673H128.48C128.48 59.0632 128.753 58.0179 129.298 57.1313C129.843 56.2447 130.607 55.5588 131.589 55.0735C132.572 54.5883 133.704 54.3457 134.986 54.3457C136.304 54.3457 137.451 54.5793 138.428 55.0466C139.41 55.5079 140.174 56.1488 140.719 56.9695C141.264 57.7902 141.537 58.7307 141.537 59.791C141.537 60.4859 141.399 61.1718 141.123 61.8488C140.854 62.5257 140.371 63.2775 139.677 64.1042C138.982 64.9249 138.002 65.9103 136.738 67.0605L134.052 69.6933V69.8191H141.779V73H128.66Z" fill="black"/>
</g>
<rect x="1.5" y="41.5" width="603" height="44" rx="22" stroke="black" stroke-width="3"/>
<rect x="639.515" y="41.5147" width="279.971" height="43.9706" rx="21.9853" fill="white"/>
<path d="M667.464 63.4445C668.14 62.8594 668.682 62.1356 669.053 61.3224C669.425 60.5092 669.617 59.6256 669.617 58.7315C669.617 57.0514 668.95 55.4402 667.762 54.2522C666.574 53.0642 664.963 52.3968 663.283 52.3968C661.603 52.3968 659.991 53.0642 658.803 54.2522C657.615 55.4402 656.948 57.0514 656.948 58.7315C656.948 59.6256 657.14 60.5092 657.512 61.3224C657.883 62.1356 658.426 62.8594 659.102 63.4445C657.328 64.2476 655.823 65.5445 654.767 67.1801C653.712 68.8158 653.149 70.7209 653.147 72.6678C653.147 73.0039 653.281 73.3261 653.518 73.5637C653.756 73.8013 654.078 73.9348 654.414 73.9348C654.75 73.9348 655.072 73.8013 655.31 73.5637C655.547 73.3261 655.681 73.0039 655.681 72.6678C655.681 70.6518 656.482 68.7183 657.907 67.2927C659.333 65.8671 661.267 65.0662 663.283 65.0662C665.299 65.0662 667.232 65.8671 668.658 67.2927C670.083 68.7183 670.884 70.6518 670.884 72.6678C670.884 73.0039 671.018 73.3261 671.255 73.5637C671.493 73.8013 671.815 73.9348 672.151 73.9348C672.487 73.9348 672.809 73.8013 673.047 73.5637C673.285 73.3261 673.418 73.0039 673.418 72.6678C673.416 70.7209 672.854 68.8158 671.798 67.1801C670.742 65.5445 669.237 64.2476 667.464 63.4445ZM663.283 62.5323C662.531 62.5323 661.796 62.3094 661.171 61.8918C660.546 61.4741 660.059 60.8805 659.771 60.186C659.483 59.4915 659.408 58.7273 659.555 57.99C659.701 57.2527 660.063 56.5755 660.595 56.0439C661.127 55.5124 661.804 55.1504 662.541 55.0037C663.278 54.857 664.043 54.9323 664.737 55.22C665.432 55.5077 666.025 55.9948 666.443 56.6199C666.861 57.2449 667.083 57.9798 667.083 58.7315C667.083 59.7395 666.683 60.7063 665.97 61.4191C665.257 62.1319 664.291 62.5323 663.283 62.5323ZM675.623 62.9377C676.433 62.0247 676.963 60.8968 677.148 59.6897C677.332 58.4827 677.164 57.248 676.664 56.1343C676.163 55.0205 675.351 54.0752 674.326 53.4121C673.301 52.7491 672.105 52.3965 670.884 52.3968C670.548 52.3968 670.226 52.5303 669.988 52.7679C669.751 53.0055 669.617 53.3277 669.617 53.6637C669.617 53.9997 669.751 54.322 669.988 54.5596C670.226 54.7972 670.548 54.9307 670.884 54.9307C671.892 54.9307 672.859 55.3311 673.572 56.0439C674.285 56.7567 674.685 57.7235 674.685 58.7315C674.683 59.3969 674.507 60.0503 674.173 60.6261C673.84 61.202 673.361 61.6801 672.785 62.0129C672.597 62.1212 672.44 62.276 672.329 62.4623C672.218 62.6486 672.157 62.8603 672.151 63.0771C672.146 63.2922 672.195 63.5051 672.295 63.6957C672.395 63.8863 672.542 64.0484 672.721 64.1667L673.215 64.4961L673.38 64.5848C674.907 65.3091 676.196 66.4548 677.094 67.8868C677.991 69.3189 678.461 70.9777 678.448 72.6678C678.448 73.0039 678.581 73.3261 678.819 73.5637C679.057 73.8013 679.379 73.9348 679.715 73.9348C680.051 73.9348 680.373 73.8013 680.611 73.5637C680.848 73.3261 680.982 73.0039 680.982 72.6678C680.992 70.7236 680.505 68.8091 679.567 67.1061C678.629 65.403 677.271 63.9682 675.623 62.9377Z" fill="black"/>
<path d="M692.457 70.8454C691.661 70.8454 690.95 70.7085 690.326 70.4349C689.707 70.1612 689.214 69.7809 688.847 69.2939C688.485 68.8029 688.288 68.2334 688.256 67.5854H689.777C689.809 67.9839 689.946 68.328 690.188 68.6177C690.429 68.9035 690.745 69.1248 691.135 69.2818C691.526 69.4388 691.958 69.5172 692.433 69.5172C692.964 69.5172 693.435 69.4247 693.846 69.2395C694.256 69.0544 694.578 68.7968 694.812 68.4668C695.045 68.1368 695.162 67.7545 695.162 67.3198C695.162 66.865 695.049 66.4646 694.824 66.1184C694.598 65.7683 694.268 65.4946 693.834 65.2974C693.399 65.1002 692.868 65.0016 692.24 65.0016H691.25V63.6735H692.24C692.731 63.6735 693.162 63.5849 693.532 63.4079C693.906 63.2308 694.198 62.9813 694.407 62.6593C694.621 62.3373 694.727 61.959 694.727 61.5243C694.727 61.1058 694.635 60.7416 694.45 60.4317C694.264 60.1218 694.003 59.8803 693.665 59.7072C693.331 59.5342 692.936 59.4476 692.482 59.4476C692.055 59.4476 691.652 59.5261 691.274 59.6831C690.9 59.836 690.594 60.0594 690.357 60.3532C690.119 60.643 689.99 60.9931 689.97 61.4036H688.521C688.545 60.7556 688.741 60.1882 689.107 59.7012C689.473 59.2102 689.952 58.8278 690.544 58.5542C691.139 58.2805 691.793 58.1437 692.506 58.1437C693.27 58.1437 693.926 58.2986 694.474 58.6085C695.021 58.9144 695.442 59.3188 695.735 59.8219C696.029 60.325 696.176 60.8683 696.176 61.4519C696.176 62.1482 695.993 62.7418 695.627 63.2328C695.265 63.7238 694.772 64.0639 694.148 64.253V64.3496C694.929 64.4784 695.538 64.8104 695.977 65.3457C696.416 65.877 696.635 66.535 696.635 67.3198C696.635 67.9919 696.452 68.5956 696.086 69.1309C695.723 69.6621 695.228 70.0807 694.6 70.3866C693.973 70.6924 693.258 70.8454 692.457 70.8454ZM698.814 68.1408V66.9093L704.248 58.3127H705.141V60.2204H704.537L700.432 66.7161V66.8127H707.749V68.1408H698.814ZM704.634 70.6763V67.7665V67.193V58.3127H706.059V70.6763H704.634ZM714.044 70.8454C713.134 70.8454 712.36 70.5979 711.72 70.1028C711.08 69.6038 710.591 68.8813 710.253 67.9356C709.915 66.9858 709.746 65.8387 709.746 64.4945C709.746 63.1583 709.915 62.0174 710.253 61.0716C710.595 60.1218 711.086 59.3973 711.726 58.8983C712.37 58.3952 713.142 58.1437 714.044 58.1437C714.945 58.1437 715.716 58.3952 716.356 58.8983C717 59.3973 717.491 60.1218 717.829 61.0716C718.171 62.0174 718.342 63.1583 718.342 64.4945C718.342 65.8387 718.173 66.9858 717.835 67.9356C717.497 68.8813 717.008 69.6038 716.368 70.1028C715.728 70.5979 714.954 70.8454 714.044 70.8454ZM714.044 69.5172C714.945 69.5172 715.646 69.0826 716.145 68.2133C716.644 67.3439 716.893 66.1044 716.893 64.4945C716.893 63.424 716.779 62.5124 716.549 61.7598C716.324 61.0072 715.998 60.4337 715.571 60.0393C715.149 59.6448 714.64 59.4476 714.044 59.4476C713.15 59.4476 712.452 59.8883 711.949 60.7697C711.446 61.6471 711.195 62.8887 711.195 64.4945C711.195 65.5651 711.307 66.4746 711.533 67.2232C711.758 67.9718 712.082 68.5413 712.505 68.9317C712.931 69.322 713.444 69.5172 714.044 69.5172Z" fill="black"/>
<path d="M777.191 58.4755V70.8391H775.694V60.0451H775.621L772.603 62.0493V60.528L775.694 58.4755H777.191ZM784.61 71.0081C783.902 71.0081 783.264 70.8673 782.697 70.5856C782.129 70.3038 781.674 69.9175 781.332 69.4265C780.99 68.9355 780.803 68.376 780.771 67.7482H782.22C782.276 68.3076 782.53 68.7705 782.98 69.1367C783.435 69.4989 783.979 69.68 784.61 69.68C785.117 69.68 785.568 69.5613 785.963 69.3238C786.361 69.0864 786.673 68.7604 786.898 68.3459C787.128 67.9273 787.242 67.4544 787.242 66.9272C787.242 66.3879 787.124 65.9069 786.886 65.4844C786.653 65.0577 786.331 64.7217 785.92 64.4762C785.51 64.2307 785.041 64.1059 784.514 64.1019C784.135 64.0979 783.747 64.1562 783.349 64.277C782.95 64.3937 782.622 64.5446 782.365 64.7297L780.964 64.5607L781.713 58.4755H788.136V59.8036H782.968L782.534 63.4499H782.606C782.86 63.2487 783.178 63.0817 783.56 62.9488C783.942 62.816 784.341 62.7496 784.755 62.7496C785.512 62.7496 786.186 62.9307 786.778 63.2929C787.373 63.6511 787.84 64.1421 788.178 64.766C788.52 65.3898 788.691 66.1021 788.691 66.903C788.691 67.6919 788.514 68.3962 788.16 69.016C787.81 69.6317 787.327 70.1187 786.711 70.4769C786.095 70.8311 785.395 71.0081 784.61 71.0081ZM791.476 70.8391L797.006 59.9002V59.8036H790.631V58.4755H798.551V59.876L793.045 70.8391H791.476Z" fill="black"/>
<path d="M843.28 70.8391V69.7525L847.361 65.2851C847.84 64.7619 848.234 64.3072 848.544 63.9208C848.854 63.5304 849.083 63.1642 849.232 62.8221C849.385 62.4759 849.462 62.1137 849.462 61.7354C849.462 61.3008 849.357 60.9245 849.148 60.6065C848.942 60.2886 848.661 60.0431 848.303 59.87C847.944 59.6969 847.542 59.6104 847.095 59.6104C846.62 59.6104 846.206 59.709 845.852 59.9062C845.501 60.0994 845.23 60.3711 845.037 60.7212C844.847 61.0714 844.753 61.4819 844.753 61.9527H843.328C843.328 61.2283 843.495 60.5924 843.829 60.0451C844.163 59.4977 844.618 59.0711 845.194 58.7652C845.773 58.4594 846.423 58.3064 847.143 58.3064C847.868 58.3064 848.51 58.4594 849.069 58.7652C849.629 59.0711 850.067 59.4836 850.385 60.0028C850.703 60.522 850.862 61.0995 850.862 61.7354C850.862 62.1902 850.78 62.6349 850.615 63.0696C850.454 63.5002 850.172 63.9812 849.77 64.5124C849.371 65.0396 848.818 65.6836 848.109 66.4442L845.332 69.4144V69.511H851.08V70.8391H843.28ZM857.605 71.0081C856.696 71.0081 855.921 70.7606 855.281 70.2656C854.641 69.7665 854.152 69.0441 853.814 68.0983C853.476 67.1485 853.307 66.0015 853.307 64.6573C853.307 63.3211 853.476 62.1801 853.814 61.2344C854.156 60.2845 854.647 59.5601 855.287 59.0611C855.931 58.558 856.704 58.3064 857.605 58.3064C858.507 58.3064 859.278 58.558 859.918 59.0611C860.562 59.5601 861.053 60.2845 861.391 61.2344C861.733 62.1801 861.904 63.3211 861.904 64.6573C861.904 66.0015 861.735 67.1485 861.397 68.0983C861.059 69.0441 860.57 69.7665 859.93 70.2656C859.29 70.7606 858.515 71.0081 857.605 71.0081ZM857.605 69.68C858.507 69.68 859.207 69.2454 859.706 68.376C860.205 67.5067 860.455 66.2671 860.455 64.6573C860.455 63.5867 860.34 62.6752 860.111 61.9226C859.885 61.17 859.559 60.5964 859.133 60.202C858.71 59.8076 858.201 59.6104 857.605 59.6104C856.712 59.6104 856.014 60.0511 855.511 60.9325C855.008 61.8099 854.756 63.0515 854.756 64.6573C854.756 65.7278 854.869 66.6374 855.094 67.386C855.319 68.1346 855.643 68.704 856.066 69.0944C856.493 69.4848 857.006 69.68 857.605 69.68ZM868.23 71.0081C867.321 71.0081 866.546 70.7606 865.906 70.2656C865.266 69.7665 864.777 69.0441 864.439 68.0983C864.101 67.1485 863.932 66.0015 863.932 64.6573C863.932 63.3211 864.101 62.1801 864.439 61.2344C864.781 60.2845 865.272 59.5601 865.912 59.0611C866.556 58.558 867.329 58.3064 868.23 58.3064C869.132 58.3064 869.903 58.558 870.543 59.0611C871.187 59.5601 871.678 60.2845 872.016 61.2344C872.358 62.1801 872.529 63.3211 872.529 64.6573C872.529 66.0015 872.36 67.1485 872.022 68.0983C871.684 69.0441 871.195 69.7665 870.555 70.2656C869.915 70.7606 869.14 71.0081 868.23 71.0081ZM868.23 69.68C869.132 69.68 869.832 69.2454 870.331 68.376C870.83 67.5067 871.08 66.2671 871.08 64.6573C871.08 63.5867 870.965 62.6752 870.736 61.9226C870.51 61.17 870.184 60.5964 869.758 60.202C869.335 59.8076 868.826 59.6104 868.23 59.6104C867.337 59.6104 866.639 60.0511 866.136 60.9325C865.633 61.8099 865.381 63.0515 865.381 64.6573C865.381 65.7278 865.494 66.6374 865.719 67.386C865.944 68.1346 866.268 68.704 866.691 69.0944C867.118 69.4848 867.631 69.68 868.23 69.68Z" fill="black"/>
<path d="M892.79 64.0204L887 69.8204V68.2304C887 67.9652 886.895 67.7108 886.707 67.5233C886.52 67.3358 886.265 67.2304 886 67.2304C885.735 67.2304 885.48 67.3358 885.293 67.5233C885.105 67.7108 885 67.9652 885 68.2304V72.2304C885.002 72.3611 885.029 72.4902 885.08 72.6104C885.181 72.8548 885.376 73.0489 885.62 73.1504C885.74 73.2016 885.869 73.2288 886 73.2304H890C890.265 73.2304 890.52 73.1251 890.707 72.9375C890.895 72.75 891 72.4956 891 72.2304C891 71.9652 890.895 71.7108 890.707 71.5233C890.52 71.3358 890.265 71.2304 890 71.2304H888.41L894.21 65.4404C894.398 65.2521 894.504 64.9967 894.504 64.7304C894.504 64.4641 894.398 64.2087 894.21 64.0204C894.022 63.8321 893.766 63.7263 893.5 63.7263C893.234 63.7263 892.978 63.8321 892.79 64.0204ZM904.92 53.8504C904.819 53.6061 904.624 53.4119 904.38 53.3104C904.26 53.2592 904.131 53.232 904 53.2304H900C899.735 53.2304 899.48 53.3358 899.293 53.5233C899.105 53.7108 899 53.9652 899 54.2304C899 54.4956 899.105 54.75 899.293 54.9375C899.48 55.1251 899.735 55.2304 900 55.2304H901.59L895.79 61.0204C895.696 61.1134 895.622 61.224 895.571 61.3458C895.52 61.4677 895.494 61.5984 895.494 61.7304C895.494 61.8624 895.52 61.9931 895.571 62.115C895.622 62.2368 895.696 62.3474 895.79 62.4404C895.883 62.5341 895.994 62.6085 896.115 62.6593C896.237 62.7101 896.368 62.7362 896.5 62.7362C896.632 62.7362 896.763 62.7101 896.885 62.6593C897.006 62.6085 897.117 62.5341 897.21 62.4404L903 56.6404V58.2304C903 58.4956 903.105 58.75 903.293 58.9375C903.48 59.1251 903.735 59.2304 904 59.2304C904.265 59.2304 904.52 59.1251 904.707 58.9375C904.895 58.75 905 58.4956 905 58.2304V54.2304C904.998 54.0997 904.971 53.9706 904.92 53.8504Z" fill="#C56D86"/>
<path d="M745.597 63.7624C746.241 63.7624 746.871 63.5715 747.406 63.2137C747.941 62.8559 748.359 62.3474 748.605 61.7525C748.852 61.1576 748.916 60.5029 748.79 59.8713C748.665 59.2398 748.355 58.6596 747.899 58.2043C747.444 57.7489 746.864 57.4389 746.232 57.3132C745.601 57.1876 744.946 57.2521 744.351 57.4985C743.756 57.7449 743.248 58.1622 742.89 58.6977C742.532 59.2331 742.341 59.8626 742.341 60.5065C742.341 61.37 742.684 62.1982 743.295 62.8088C743.905 63.4194 744.734 63.7624 745.597 63.7624ZM745.597 59.4212C745.812 59.4212 746.022 59.4849 746.2 59.6041C746.379 59.7234 746.518 59.8929 746.6 60.0912C746.682 60.2895 746.703 60.5077 746.662 60.7183C746.62 60.9288 746.516 61.1222 746.364 61.274C746.213 61.4257 746.019 61.5291 745.809 61.571C745.598 61.6128 745.38 61.5914 745.182 61.5092C744.983 61.4271 744.814 61.288 744.695 61.1095C744.575 60.931 744.512 60.7212 744.512 60.5065C744.512 60.2187 744.626 59.9426 744.83 59.7391C745.033 59.5356 745.309 59.4212 745.597 59.4212ZM759.706 57.2507H751.024C750.736 57.2507 750.46 57.365 750.256 57.5685C750.053 57.7721 749.938 58.0481 749.938 58.336V64.8477H741.256V56.1654C741.256 55.8775 741.142 55.6015 740.938 55.398C740.735 55.1944 740.458 55.0801 740.171 55.0801C739.883 55.0801 739.607 55.1944 739.403 55.398C739.2 55.6015 739.085 55.8775 739.085 56.1654V70.2742C739.085 70.562 739.2 70.838 739.403 71.0416C739.607 71.2451 739.883 71.3594 740.171 71.3594C740.458 71.3594 740.735 71.2451 740.938 71.0416C741.142 70.838 741.256 70.562 741.256 70.2742V67.0183H760.791V70.2742C760.791 70.562 760.905 70.838 761.109 71.0416C761.313 71.2451 761.589 71.3594 761.876 71.3594C762.164 71.3594 762.44 71.2451 762.644 71.0416C762.847 70.838 762.962 70.562 762.962 70.2742V60.5065C762.962 59.643 762.619 58.8149 762.008 58.2043C761.398 57.5937 760.569 57.2507 759.706 57.2507ZM760.791 64.8477H752.109V59.4212H759.706C759.994 59.4212 760.27 59.5356 760.473 59.7391C760.677 59.9426 760.791 60.2187 760.791 60.5065V64.8477Z" fill="black"/>
<path d="M833.8 61C833.4 59.8 832.2 59 831 59C829.3 59 828 60.3 828 62C828 63.3 828.8 64.4 830 64.8V66.5C830 69 828 71 825.5 71C823 71 821 69 821 66.5V65.9C823.9 65.4 826 62.9 826 60V54C826 53.4 825.6 53 825 53H823C822.4 53 822 53.4 822 54C822 54.6 822.4 55 823 55H824V60C824 62.2 822.2 64 820 64C817.8 64 816 62.2 816 60V55H817C817.6 55 818 54.6 818 54C818 53.4 817.6 53 817 53H815C814.4 53 814 53.4 814 54V60C814 62.9 816.1 65.4 819 65.9V66.5C819 70.1 821.9 73 825.5 73C829.1 73 832 70.1 832 66.5V64.8C833.6 64.3 834.4 62.6 833.8 61Z" fill="black"/>
<rect x="639.515" y="41.5147" width="279.971" height="43.9706" rx="21.9853" stroke="black" stroke-width="3.02941"/>
<defs>
<clipPath id="clip0_30_244">
<rect y="40" width="606" height="47" rx="23.5" fill="white"/>
</clipPath>
</defs>
</svg>
